solid OpenSCAD_Model
  facet normal -0.000000 -0.000000 -1.000000
    outer loop
      vertex -6.062178 -3.500000 0.000000
      vertex -6.062178 3.500000 0.000000
      vertex 0.000000 -7.000000 0.000000
    endloop
  endfacet
  facet normal 0.000000 0.000000 -1.000000
    outer loop
      vertex 0.000000 -7.000000 0.000000
      vertex -6.062178 3.500000 0.000000
      vertex 0.000000 7.000000 0.000000
    endloop
  endfacet
  facet normal 0.000000 -0.000000 -1.000000
    outer loop
      vertex 0.000000 -7.000000 0.000000
      vertex 0.000000 7.000000 0.000000
      vertex 6.062178 3.500000 0.000000
    endloop
  endfacet
  facet normal 0.000000 0.000000 -1.000000
    outer loop
      vertex 0.000000 -7.000000 0.000000
      vertex 6.062178 3.500000 0.000000
      vertex 6.062178 -3.500000 0.000000
    endloop
  endfacet
  facet normal -1.000000 -0.000000 -0.000000
    outer loop
      vertex -6.062178 -3.500000 0.000000
      vertex -6.062178 -3.500000 5.000000
      vertex -6.062178 3.500000 0.000000
    endloop
  endfacet
  facet normal -1.000000 0.000000 0.000000
    outer loop
      vertex -6.062178 3.500000 0.000000
      vertex -6.062178 -3.500000 5.000000
      vertex -6.062178 3.500000 5.000000
    endloop
  endfacet
  facet normal -0.500000 -0.866025 0.000000
    outer loop
      vertex -6.062178 -3.500000 5.000000
      vertex -6.062178 -3.500000 0.000000
      vertex 0.000000 -7.000000 0.000000
    endloop
  endfacet
  facet normal -0.500000 -0.866025 0.000000
    outer loop
      vertex 0.000000 -7.000000 5.000000
      vertex -6.062178 -3.500000 5.000000
      vertex 0.000000 -7.000000 0.000000
    endloop
  endfacet
  facet normal 0.500000 -0.866025 0.000000
    outer loop
      vertex 0.000000 -7.000000 5.000000
      vertex 0.000000 -7.000000 0.000000
      vertex 6.062178 -3.500000 0.000000
    endloop
  endfacet
  facet normal 0.500000 -0.866025 0.000000
    outer loop
      vertex 6.062178 -3.500000 5.000000
      vertex 0.000000 -7.000000 5.000000
      vertex 6.062178 -3.500000 0.000000
    endloop
  endfacet
  facet normal 1.000000 0.000000 -0.000000
    outer loop
      vertex 6.062178 -3.500000 5.000000
      vertex 6.062178 -3.500000 0.000000
      vertex 6.062178 3.500000 0.000000
    endloop
  endfacet
  facet normal 1.000000 0.000000 0.000000
    outer loop
      vertex 6.062178 3.500000 5.000000
      vertex 6.062178 -3.500000 5.000000
      vertex 6.062178 3.500000 0.000000
    endloop
  endfacet
  facet normal 0.500000 0.866025 0.000000
    outer loop
      vertex 0.000000 7.000000 0.000000
      vertex 0.000000 7.000000 5.000000
      vertex 6.062178 3.500000 0.000000
    endloop
  endfacet
  facet normal 0.500000 0.866025 0.000000
    outer loop
      vertex 6.062178 3.500000 0.000000
      vertex 0.000000 7.000000 5.000000
      vertex 6.062178 3.500000 5.000000
    endloop
  endfacet
  facet normal -0.500000 0.866025 0.000000
    outer loop
      vertex -6.062178 3.500000 0.000000
      vertex -6.062178 3.500000 5.000000
      vertex 0.000000 7.000000 0.000000
    endloop
  endfacet
  facet normal -0.500000 0.866025 0.000000
    outer loop
      vertex 0.000000 7.000000 0.000000
      vertex -6.062178 3.500000 5.000000
      vertex 0.000000 7.000000 5.000000
    endloop
  endfacet
  facet normal 0.000000 -0.000000 1.000000
    outer loop
      vertex -3.541824 -1.858893 5.000000
      vertex -6.062178 -3.500000 5.000000
      vertex 0.000000 -7.000000 5.000000
    endloop
  endfacet
  facet normal 0.000000 -0.000000 1.000000
    outer loop
      vertex 3.883767 0.957263 5.000000
      vertex 3.883767 -0.957263 5.000000
      vertex 6.062178 -3.500000 5.000000
    endloop
  endfacet
  facet normal 0.000000 0.000000 1.000000
    outer loop
      vertex 1.418420 3.740065 5.000000
      vertex 2.994043 2.652491 5.000000
      vertex 6.062178 3.500000 5.000000
    endloop
  endfacet
  facet normal -0.000000 -0.000000 1.000000
    outer loop
      vertex -2.272259 -3.291935 5.000000
      vertex -3.541824 -1.858893 5.000000
      vertex 0.000000 -7.000000 5.000000
    endloop
  endfacet
  facet normal 0.000000 -0.000000 1.000000
    outer loop
      vertex -6.062178 3.500000 5.000000
      vertex -6.062178 -3.500000 5.000000
      vertex -3.541824 -1.858893 5.000000
    endloop
  endfacet
  facet normal -0.000000 0.000000 1.000000
    outer loop
      vertex -3.541824 1.858893 5.000000
      vertex -6.062178 3.500000 5.000000
      vertex -4.000000 0.000000 5.000000
    endloop
  endfacet
  facet normal -0.000000 -0.000000 1.000000
    outer loop
      vertex -0.482147 -3.970835 5.000000
      vertex -2.272259 -3.291935 5.000000
      vertex 0.000000 -7.000000 5.000000
    endloop
  endfacet
  facet normal 0.000000 -0.000000 1.000000
    outer loop
      vertex 0.000000 7.000000 5.000000
      vertex -0.482147 3.970835 5.000000
      vertex 6.062178 3.500000 5.000000
    endloop
  endfacet
  facet normal 0.000000 0.000000 1.000000
    outer loop
      vertex 0.000000 7.000000 5.000000
      vertex -6.062178 3.500000 5.000000
      vertex -0.482147 3.970835 5.000000
    endloop
  endfacet
  facet normal 0.000000 0.000000 1.000000
    outer loop
      vertex -0.482147 3.970835 5.000000
      vertex 1.418420 3.740065 5.000000
      vertex 6.062178 3.500000 5.000000
    endloop
  endfacet
  facet normal 0.000000 0.000000 1.000000
    outer loop
      vertex 6.062178 3.500000 5.000000
      vertex 3.883767 0.957263 5.000000
      vertex 6.062178 -3.500000 5.000000
    endloop
  endfacet
  facet normal 0.000000 0.000000 1.000000
    outer loop
      vertex 6.062178 3.500000 5.000000
      vertex 2.994043 2.652491 5.000000
      vertex 3.883767 0.957263 5.000000
    endloop
  endfacet
  facet normal -0.000000 0.000000 1.000000
    outer loop
      vertex 6.062178 -3.500000 5.000000
      vertex 2.994043 -2.652491 5.000000
      vertex 0.000000 -7.000000 5.000000
    endloop
  endfacet
  facet normal 0.000000 0.000000 1.000000
    outer loop
      vertex 2.994043 -2.652491 5.000000
      vertex 1.418420 -3.740065 5.000000
      vertex 0.000000 -7.000000 5.000000
    endloop
  endfacet
  facet normal 0.000000 0.000000 1.000000
    outer loop
      vertex 1.418420 -3.740065 5.000000
      vertex -0.482147 -3.970835 5.000000
      vertex 0.000000 -7.000000 5.000000
    endloop
  endfacet
  facet normal 0.000000 0.000000 1.000000
    outer loop
      vertex -3.541824 1.858893 5.000000
      vertex -2.272259 3.291935 5.000000
      vertex -6.062178 3.500000 5.000000
    endloop
  endfacet
  facet normal 0.000000 0.000000 1.000000
    outer loop
      vertex -2.272259 3.291935 5.000000
      vertex -0.482147 3.970835 5.000000
      vertex -6.062178 3.500000 5.000000
    endloop
  endfacet
  facet normal 0.000000 0.000000 1.000000
    outer loop
      vertex -3.541824 -1.858893 5.000000
      vertex -4.000000 0.000000 5.000000
      vertex -6.062178 3.500000 5.000000
    endloop
  endfacet
  facet normal 0.000000 -0.000000 1.000000
    outer loop
      vertex 3.883767 -0.957263 5.000000
      vertex 2.994043 -2.652491 5.000000
      vertex 6.062178 -3.500000 5.000000
    endloop
  endfacet
  facet normal -0.748511 -0.663123 -0.000000
    outer loop
      vertex -3.541824 -1.858893 5.000000
      vertex -2.272259 -3.291935 5.000000
      vertex -3.541824 -1.858893 30.000000
    endloop
  endfacet
  facet normal -0.748511 -0.663123 0.000000
    outer loop
      vertex -3.541824 -1.858893 30.000000
      vertex -2.272259 -3.291935 5.000000
      vertex -2.272259 -3.291935 30.000000
    endloop
  endfacet
  facet normal -0.970942 -0.239316 -0.000000
    outer loop
      vertex -4.000000 0.000000 5.000000
      vertex -3.541824 -1.858893 5.000000
      vertex -4.000000 0.000000 30.000000
    endloop
  endfacet
  facet normal -0.970942 -0.239316 0.000000
    outer loop
      vertex -4.000000 0.000000 30.000000
      vertex -3.541824 -1.858893 5.000000
      vertex -3.541824 -1.858893 30.000000
    endloop
  endfacet
  facet normal -0.354605 -0.935016 0.000000
    outer loop
      vertex -2.272259 -3.291935 30.000000
      vertex -2.272259 -3.291935 5.000000
      vertex -0.482147 -3.970835 5.000000
    endloop
  endfacet
  facet normal -0.354605 -0.935016 0.000000
    outer loop
      vertex -0.482147 -3.970835 30.000000
      vertex -2.272259 -3.291935 30.000000
      vertex -0.482147 -3.970835 5.000000
    endloop
  endfacet
  facet normal 0.120536 -0.992709 0.000000
    outer loop
      vertex -0.482147 -3.970835 30.000000
      vertex -0.482147 -3.970835 5.000000
      vertex 1.418420 -3.740065 5.000000
    endloop
  endfacet
  facet normal 0.120536 -0.992709 0.000000
    outer loop
      vertex 1.418420 -3.740065 30.000000
      vertex -0.482147 -3.970835 30.000000
      vertex 1.418420 -3.740065 5.000000
    endloop
  endfacet
  facet normal 0.568065 -0.822984 0.000000
    outer loop
      vertex 1.418420 -3.740065 30.000000
      vertex 1.418420 -3.740065 5.000000
      vertex 2.994043 -2.652491 5.000000
    endloop
  endfacet
  facet normal 0.568065 -0.822984 0.000000
    outer loop
      vertex 2.994043 -2.652491 30.000000
      vertex 1.418420 -3.740065 30.000000
      vertex 2.994043 -2.652491 5.000000
    endloop
  endfacet
  facet normal 0.885456 -0.464723 0.000000
    outer loop
      vertex 2.994043 -2.652491 30.000000
      vertex 2.994043 -2.652491 5.000000
      vertex 3.883767 -0.957263 5.000000
    endloop
  endfacet
  facet normal 0.885456 -0.464723 0.000000
    outer loop
      vertex 3.883767 -0.957263 30.000000
      vertex 2.994043 -2.652491 30.000000
      vertex 3.883767 -0.957263 5.000000
    endloop
  endfacet
  facet normal 1.000000 0.000000 -0.000000
    outer loop
      vertex 3.883767 -0.957263 30.000000
      vertex 3.883767 -0.957263 5.000000
      vertex 3.883767 0.957263 5.000000
    endloop
  endfacet
  facet normal 1.000000 0.000000 0.000000
    outer loop
      vertex 3.883767 0.957263 30.000000
      vertex 3.883767 -0.957263 30.000000
      vertex 3.883767 0.957263 5.000000
    endloop
  endfacet
  facet normal 0.885456 0.464723 0.000000
    outer loop
      vertex 3.883767 0.957263 5.000000
      vertex 2.994043 2.652491 5.000000
      vertex 2.994043 2.652491 30.000000
    endloop
  endfacet
  facet normal 0.885456 0.464723 -0.000000
    outer loop
      vertex 3.883767 0.957263 30.000000
      vertex 3.883767 0.957263 5.000000
      vertex 2.994043 2.652491 30.000000
    endloop
  endfacet
  facet normal 0.568065 0.822984 0.000000
    outer loop
      vertex 1.418420 3.740065 5.000000
      vertex 1.418420 3.740065 30.000000
      vertex 2.994043 2.652491 5.000000
    endloop
  endfacet
  facet normal 0.568065 0.822984 0.000000
    outer loop
      vertex 2.994043 2.652491 5.000000
      vertex 1.418420 3.740065 30.000000
      vertex 2.994043 2.652491 30.000000
    endloop
  endfacet
  facet normal 0.120536 0.992709 0.000000
    outer loop
      vertex -0.482147 3.970835 5.000000
      vertex -0.482147 3.970835 30.000000
      vertex 1.418420 3.740065 5.000000
    endloop
  endfacet
  facet normal 0.120536 0.992709 0.000000
    outer loop
      vertex 1.418420 3.740065 5.000000
      vertex -0.482147 3.970835 30.000000
      vertex 1.418420 3.740065 30.000000
    endloop
  endfacet
  facet normal -0.354605 0.935016 0.000000
    outer loop
      vertex -2.272259 3.291935 5.000000
      vertex -2.272259 3.291935 30.000000
      vertex -0.482147 3.970835 5.000000
    endloop
  endfacet
  facet normal -0.354605 0.935016 0.000000
    outer loop
      vertex -0.482147 3.970835 5.000000
      vertex -2.272259 3.291935 30.000000
      vertex -0.482147 3.970835 30.000000
    endloop
  endfacet
  facet normal -0.748511 0.663123 0.000000
    outer loop
      vertex -3.541824 1.858893 5.000000
      vertex -3.541824 1.858893 30.000000
      vertex -2.272259 3.291935 5.000000
    endloop
  endfacet
  facet normal -0.748511 0.663123 0.000000
    outer loop
      vertex -2.272259 3.291935 5.000000
      vertex -3.541824 1.858893 30.000000
      vertex -2.272259 3.291935 30.000000
    endloop
  endfacet
  facet normal -0.970942 0.239316 0.000000
    outer loop
      vertex -4.000000 0.000000 5.000000
      vertex -4.000000 0.000000 30.000000
      vertex -3.541824 1.858893 5.000000
    endloop
  endfacet
  facet normal -0.970942 0.239316 0.000000
    outer loop
      vertex -3.541824 1.858893 5.000000
      vertex -4.000000 0.000000 30.000000
      vertex -3.541824 1.858893 30.000000
    endloop
  endfacet
  facet normal 0.000000 0.000000 1.000000
    outer loop
      vertex -3.541824 1.858893 30.000000
      vertex -4.000000 0.000000 30.000000
      vertex -3.541824 -1.858893 30.000000
    endloop
  endfacet
  facet normal 0.000000 0.000000 1.000000
    outer loop
      vertex -0.482147 -3.970835 30.000000
      vertex -3.541824 1.858893 30.000000
      vertex -2.272259 -3.291935 30.000000
    endloop
  endfacet
  facet normal 0.000000 0.000000 1.000000
    outer loop
      vertex -2.272259 -3.291935 30.000000
      vertex -3.541824 1.858893 30.000000
      vertex -3.541824 -1.858893 30.000000
    endloop
  endfacet
  facet normal -0.000000 0.000000 1.000000
    outer loop
      vertex 1.418420 -3.740065 30.000000
      vertex -3.541824 1.858893 30.000000
      vertex -0.482147 -3.970835 30.000000
    endloop
  endfacet
  facet normal -0.000000 0.000000 1.000000
    outer loop
      vertex 2.994043 -2.652491 30.000000
      vertex -3.541824 1.858893 30.000000
      vertex 1.418420 -3.740065 30.000000
    endloop
  endfacet
  facet normal -0.000000 0.000000 1.000000
    outer loop
      vertex 3.883767 -0.957263 30.000000
      vertex -3.541824 1.858893 30.000000
      vertex 2.994043 -2.652491 30.000000
    endloop
  endfacet
  facet normal -0.000000 0.000000 1.000000
    outer loop
      vertex 3.883767 0.957263 30.000000
      vertex -3.541824 1.858893 30.000000
      vertex 3.883767 -0.957263 30.000000
    endloop
  endfacet
  facet normal 0.000000 -0.000000 1.000000
    outer loop
      vertex 2.994043 2.652491 30.000000
      vertex -3.541824 1.858893 30.000000
      vertex 3.883767 0.957263 30.000000
    endloop
  endfacet
  facet normal 0.000000 -0.000000 1.000000
    outer loop
      vertex 1.418420 3.740065 30.000000
      vertex -3.541824 1.858893 30.000000
      vertex 2.994043 2.652491 30.000000
    endloop
  endfacet
  facet normal 0.000000 -0.000000 1.000000
    outer loop
      vertex -0.482147 3.970835 30.000000
      vertex -3.541824 1.858893 30.000000
      vertex 1.418420 3.740065 30.000000
    endloop
  endfacet
  facet normal 0.000000 -0.000000 1.000000
    outer loop
      vertex -2.272259 3.291935 30.000000
      vertex -3.541824 1.858893 30.000000
      vertex -0.482147 3.970835 30.000000
    endloop
  endfacet
endsolid OpenSCAD_Model
