solid Default
  facet normal 1.000000e+00 0.000000e+00 0.000000e+00
    outer loop
      vertex 6.000000e+00 -2.000000e+01 0.000000e+00
      vertex 6.000000e+00 2.000000e+01 0.000000e+00
      vertex 6.000000e+00 2.000000e+01 5.000000e+00
    endloop
  endfacet
  facet normal 1.000000e+00 0.000000e+00 0.000000e+00
    outer loop
      vertex 6.000000e+00 -2.000000e+01 5.000000e+00
      vertex 6.000000e+00 -2.000000e+01 0.000000e+00
      vertex 6.000000e+00 2.000000e+01 5.000000e+00
    endloop
  endfacet
  facet normal 0.000000e+00 1.000000e+00 0.000000e+00
    outer loop
      vertex 6.000000e+00 2.000000e+01 0.000000e+00
      vertex -6.000000e+00 2.000000e+01 0.000000e+00
      vertex 6.000000e+00 2.000000e+01 5.000000e+00
    endloop
  endfacet
  facet normal 0.000000e+00 1.000000e+00 0.000000e+00
    outer loop
      vertex 6.000000e+00 2.000000e+01 5.000000e+00
      vertex -6.000000e+00 2.000000e+01 0.000000e+00
      vertex -6.000000e+00 2.000000e+01 5.000000e+00
    endloop
  endfacet
  facet normal 0.000000e+00 0.000000e+00 -1.000000e+00
    outer loop
      vertex -3.883766e+00 1.404274e+01 0.000000e+00
      vertex 6.000000e+00 -2.000000e+01 0.000000e+00
      vertex -6.000000e+00 2.000000e+01 0.000000e+00
    endloop
  endfacet
  facet normal 0.000000e+00 0.000000e+00 -1.000000e+00
    outer loop
      vertex -1.418421e+00 -1.874006e+01 0.000000e+00
      vertex 6.000000e+00 -2.000000e+01 0.000000e+00
      vertex -6.000000e+00 -2.000000e+01 0.000000e+00
    endloop
  endfacet
  facet normal 0.000000e+00 0.000000e+00 -1.000000e+00
    outer loop
      vertex 6.000000e+00 2.000000e+01 0.000000e+00
      vertex 6.000000e+00 -2.000000e+01 0.000000e+00
      vertex 4.000000e+00 1.500000e+01 0.000000e+00
    endloop
  endfacet
  facet normal 0.000000e+00 0.000000e+00 -1.000000e+00
    outer loop
      vertex 6.000000e+00 2.000000e+01 0.000000e+00
      vertex 4.000000e+00 1.500000e+01 0.000000e+00
      vertex 3.541824e+00 1.685889e+01 0.000000e+00
    endloop
  endfacet
  facet normal 0.000000e+00 0.000000e+00 -1.000000e+00
    outer loop
      vertex 6.000000e+00 2.000000e+01 0.000000e+00
      vertex 3.541824e+00 1.685889e+01 0.000000e+00
      vertex 2.272259e+00 1.829193e+01 0.000000e+00
    endloop
  endfacet
  facet normal 0.000000e+00 0.000000e+00 -1.000000e+00
    outer loop
      vertex 6.000000e+00 2.000000e+01 0.000000e+00
      vertex 2.272259e+00 1.829193e+01 0.000000e+00
      vertex 4.821472e-01 1.897083e+01 0.000000e+00
    endloop
  endfacet
  facet normal 0.000000e+00 0.000000e+00 -1.000000e+00
    outer loop
      vertex 6.000000e+00 2.000000e+01 0.000000e+00
      vertex 4.821472e-01 1.897083e+01 0.000000e+00
      vertex -6.000000e+00 2.000000e+01 0.000000e+00
    endloop
  endfacet
  facet normal 0.000000e+00 0.000000e+00 -1.000000e+00
    outer loop
      vertex -2.994043e+00 1.765249e+01 0.000000e+00
      vertex -6.000000e+00 2.000000e+01 0.000000e+00
      vertex -1.418421e+00 1.874006e+01 0.000000e+00
    endloop
  endfacet
  facet normal 0.000000e+00 0.000000e+00 -1.000000e+00
    outer loop
      vertex 2.272259e+00 -1.170807e+01 0.000000e+00
      vertex -6.000000e+00 2.000000e+01 0.000000e+00
      vertex 3.541824e+00 -1.314111e+01 0.000000e+00
    endloop
  endfacet
  facet normal 0.000000e+00 0.000000e+00 -1.000000e+00
    outer loop
      vertex -1.418421e+00 1.125994e+01 0.000000e+00
      vertex 6.000000e+00 -2.000000e+01 0.000000e+00
      vertex -2.994043e+00 1.234751e+01 0.000000e+00
    endloop
  endfacet
  facet normal 0.000000e+00 0.000000e+00 -1.000000e+00
    outer loop
      vertex -2.994043e+00 1.765249e+01 0.000000e+00
      vertex -3.883766e+00 1.595726e+01 0.000000e+00
      vertex -6.000000e+00 2.000000e+01 0.000000e+00
    endloop
  endfacet
  facet normal 0.000000e+00 0.000000e+00 -1.000000e+00
    outer loop
      vertex -2.994043e+00 1.234751e+01 0.000000e+00
      vertex 6.000000e+00 -2.000000e+01 0.000000e+00
      vertex -3.883766e+00 1.404274e+01 0.000000e+00
    endloop
  endfacet
  facet normal 0.000000e+00 0.000000e+00 -1.000000e+00
    outer loop
      vertex -3.883766e+00 1.595726e+01 0.000000e+00
      vertex -3.883766e+00 1.404274e+01 0.000000e+00
      vertex -6.000000e+00 2.000000e+01 0.000000e+00
    endloop
  endfacet
  facet normal 0.000000e+00 0.000000e+00 -1.000000e+00
    outer loop
      vertex 4.821472e-01 1.102917e+01 0.000000e+00
      vertex 6.000000e+00 -2.000000e+01 0.000000e+00
      vertex -1.418421e+00 1.125994e+01 0.000000e+00
    endloop
  endfacet
  facet normal 0.000000e+00 0.000000e+00 -1.000000e+00
    outer loop
      vertex 2.272259e+00 1.170807e+01 0.000000e+00
      vertex 6.000000e+00 -2.000000e+01 0.000000e+00
      vertex 4.821472e-01 1.102917e+01 0.000000e+00
    endloop
  endfacet
  facet normal 0.000000e+00 0.000000e+00 -1.000000e+00
    outer loop
      vertex 3.541824e+00 1.314111e+01 0.000000e+00
      vertex 6.000000e+00 -2.000000e+01 0.000000e+00
      vertex 2.272259e+00 1.170807e+01 0.000000e+00
    endloop
  endfacet
  facet normal 0.000000e+00 0.000000e+00 -1.000000e+00
    outer loop
      vertex 4.000000e+00 1.500000e+01 0.000000e+00
      vertex 6.000000e+00 -2.000000e+01 0.000000e+00
      vertex 3.541824e+00 1.314111e+01 0.000000e+00
    endloop
  endfacet
  facet normal 0.000000e+00 0.000000e+00 -1.000000e+00
    outer loop
      vertex 3.541824e+00 -1.314111e+01 0.000000e+00
      vertex 6.000000e+00 -2.000000e+01 0.000000e+00
      vertex 4.000000e+00 -1.500000e+01 0.000000e+00
    endloop
  endfacet
  facet normal 0.000000e+00 0.000000e+00 -1.000000e+00
    outer loop
      vertex -6.000000e+00 2.000000e+01 0.000000e+00
      vertex 6.000000e+00 -2.000000e+01 0.000000e+00
      vertex 3.541824e+00 -1.314111e+01 0.000000e+00
    endloop
  endfacet
  facet normal 0.000000e+00 0.000000e+00 -1.000000e+00
    outer loop
      vertex -3.883766e+00 -1.595726e+01 0.000000e+00
      vertex -6.000000e+00 -2.000000e+01 0.000000e+00
      vertex -3.883766e+00 -1.404274e+01 0.000000e+00
    endloop
  endfacet
  facet normal 0.000000e+00 0.000000e+00 -1.000000e+00
    outer loop
      vertex -6.000000e+00 2.000000e+01 0.000000e+00
      vertex 2.272259e+00 -1.170807e+01 0.000000e+00
      vertex 4.821472e-01 -1.102917e+01 0.000000e+00
    endloop
  endfacet
  facet normal 0.000000e+00 0.000000e+00 -1.000000e+00
    outer loop
      vertex -6.000000e+00 2.000000e+01 0.000000e+00
      vertex 4.821472e-01 -1.102917e+01 0.000000e+00
      vertex -1.418421e+00 -1.125994e+01 0.000000e+00
    endloop
  endfacet
  facet normal 0.000000e+00 0.000000e+00 -1.000000e+00
    outer loop
      vertex -6.000000e+00 2.000000e+01 0.000000e+00
      vertex -1.418421e+00 -1.125994e+01 0.000000e+00
      vertex -2.994043e+00 -1.234751e+01 0.000000e+00
    endloop
  endfacet
  facet normal 0.000000e+00 0.000000e+00 -1.000000e+00
    outer loop
      vertex -6.000000e+00 2.000000e+01 0.000000e+00
      vertex -2.994043e+00 -1.234751e+01 0.000000e+00
      vertex -3.883766e+00 -1.404274e+01 0.000000e+00
    endloop
  endfacet
  facet normal 0.000000e+00 0.000000e+00 -1.000000e+00
    outer loop
      vertex -6.000000e+00 2.000000e+01 0.000000e+00
      vertex -3.883766e+00 -1.404274e+01 0.000000e+00
      vertex -6.000000e+00 -2.000000e+01 0.000000e+00
    endloop
  endfacet
  facet normal 0.000000e+00 0.000000e+00 -1.000000e+00
    outer loop
      vertex -2.994043e+00 -1.765249e+01 0.000000e+00
      vertex -6.000000e+00 -2.000000e+01 0.000000e+00
      vertex -3.883766e+00 -1.595726e+01 0.000000e+00
    endloop
  endfacet
  facet normal 0.000000e+00 0.000000e+00 -1.000000e+00
    outer loop
      vertex -1.418421e+00 -1.874006e+01 0.000000e+00
      vertex -6.000000e+00 -2.000000e+01 0.000000e+00
      vertex -2.994043e+00 -1.765249e+01 0.000000e+00
    endloop
  endfacet
  facet normal -0.000000e+00 -0.000000e+00 -1.000000e+00
    outer loop
      vertex 4.821472e-01 -1.897083e+01 0.000000e+00
      vertex 6.000000e+00 -2.000000e+01 0.000000e+00
      vertex -1.418421e+00 -1.874006e+01 0.000000e+00
    endloop
  endfacet
  facet normal 0.000000e+00 0.000000e+00 -1.000000e+00
    outer loop
      vertex 2.272259e+00 -1.829193e+01 0.000000e+00
      vertex 6.000000e+00 -2.000000e+01 0.000000e+00
      vertex 4.821472e-01 -1.897083e+01 0.000000e+00
    endloop
  endfacet
  facet normal 0.000000e+00 0.000000e+00 -1.000000e+00
    outer loop
      vertex 3.541824e+00 -1.685889e+01 0.000000e+00
      vertex 6.000000e+00 -2.000000e+01 0.000000e+00
      vertex 2.272259e+00 -1.829193e+01 0.000000e+00
    endloop
  endfacet
  facet normal 0.000000e+00 0.000000e+00 -1.000000e+00
    outer loop
      vertex 4.000000e+00 -1.500000e+01 0.000000e+00
      vertex 6.000000e+00 -2.000000e+01 0.000000e+00
      vertex 3.541824e+00 -1.685889e+01 0.000000e+00
    endloop
  endfacet
  facet normal 0.000000e+00 0.000000e+00 -1.000000e+00
    outer loop
      vertex -1.418421e+00 1.874006e+01 0.000000e+00
      vertex -6.000000e+00 2.000000e+01 0.000000e+00
      vertex 4.821472e-01 1.897083e+01 0.000000e+00
    endloop
  endfacet
  facet normal 0.000000e+00 -1.000000e+00 0.000000e+00
    outer loop
      vertex -6.000000e+00 -2.000000e+01 0.000000e+00
      vertex 6.000000e+00 -2.000000e+01 0.000000e+00
      vertex 6.000000e+00 -2.000000e+01 5.000000e+00
    endloop
  endfacet
  facet normal 0.000000e+00 -1.000000e+00 0.000000e+00
    outer loop
      vertex -6.000000e+00 -2.000000e+01 5.000000e+00
      vertex -6.000000e+00 -2.000000e+01 0.000000e+00
      vertex 6.000000e+00 -2.000000e+01 5.000000e+00
    endloop
  endfacet
  facet normal 0.000000e+00 0.000000e+00 1.000000e+00
    outer loop
      vertex -9.754524e-01 1.990393e+01 5.000000e+00
      vertex 6.000000e+00 2.000000e+01 5.000000e+00
      vertex -6.000000e+00 2.000000e+01 5.000000e+00
    endloop
  endfacet
  facet normal 0.000000e+00 0.000000e+00 1.000000e+00
    outer loop
      vertex -4.903927e+00 1.402455e+01 5.000000e+00
      vertex -4.903927e+00 1.597545e+01 5.000000e+00
      vertex -6.000000e+00 2.000000e+01 5.000000e+00
    endloop
  endfacet
  facet normal 0.000000e+00 0.000000e+00 1.000000e+00
    outer loop
      vertex 9.754524e-01 1.990393e+01 5.000000e+00
      vertex 2.777851e+00 1.915735e+01 5.000000e+00
      vertex 6.000000e+00 2.000000e+01 5.000000e+00
    endloop
  endfacet
  facet normal 0.000000e+00 0.000000e+00 1.000000e+00
    outer loop
      vertex 6.000000e+00 -2.000000e+01 5.000000e+00
      vertex 6.000000e+00 2.000000e+01 5.000000e+00
      vertex 4.903927e+00 1.597545e+01 5.000000e+00
    endloop
  endfacet
  facet normal 0.000000e+00 0.000000e+00 1.000000e+00
    outer loop
      vertex 6.000000e+00 -2.000000e+01 5.000000e+00
      vertex 4.903927e+00 1.597545e+01 5.000000e+00
      vertex 4.903927e+00 1.402455e+01 5.000000e+00
    endloop
  endfacet
  facet normal 0.000000e+00 0.000000e+00 1.000000e+00
    outer loop
      vertex 4.903927e+00 -1.597545e+01 5.000000e+00
      vertex 4.157349e+00 -1.777785e+01 5.000000e+00
      vertex 6.000000e+00 -2.000000e+01 5.000000e+00
    endloop
  endfacet
  facet normal 0.000000e+00 0.000000e+00 1.000000e+00
    outer loop
      vertex 6.000000e+00 -2.000000e+01 5.000000e+00
      vertex 4.903927e+00 1.402455e+01 5.000000e+00
      vertex 4.157349e+00 1.222215e+01 5.000000e+00
    endloop
  endfacet
  facet normal 0.000000e+00 0.000000e+00 1.000000e+00
    outer loop
      vertex 6.000000e+00 -2.000000e+01 5.000000e+00
      vertex 4.157349e+00 1.222215e+01 5.000000e+00
      vertex 2.777851e+00 1.084265e+01 5.000000e+00
    endloop
  endfacet
  facet normal 0.000000e+00 0.000000e+00 1.000000e+00
    outer loop
      vertex 6.000000e+00 -2.000000e+01 5.000000e+00
      vertex 2.777851e+00 1.084265e+01 5.000000e+00
      vertex 9.754524e-01 1.009607e+01 5.000000e+00
    endloop
  endfacet
  facet normal 0.000000e+00 0.000000e+00 1.000000e+00
    outer loop
      vertex 4.903927e+00 -1.402455e+01 5.000000e+00
      vertex 9.754524e-01 1.009607e+01 5.000000e+00
      vertex -9.754524e-01 1.009607e+01 5.000000e+00
    endloop
  endfacet
  facet normal 0.000000e+00 0.000000e+00 1.000000e+00
    outer loop
      vertex -6.000000e+00 -2.000000e+01 5.000000e+00
      vertex -4.903927e+00 1.402455e+01 5.000000e+00
      vertex -6.000000e+00 2.000000e+01 5.000000e+00
    endloop
  endfacet
  facet normal 0.000000e+00 0.000000e+00 1.000000e+00
    outer loop
      vertex -6.000000e+00 -2.000000e+01 5.000000e+00
      vertex -4.157349e+00 1.222215e+01 5.000000e+00
      vertex -4.903927e+00 1.402455e+01 5.000000e+00
    endloop
  endfacet
  facet normal 0.000000e+00 0.000000e+00 1.000000e+00
    outer loop
      vertex -2.777851e+00 1.915735e+01 5.000000e+00
      vertex -9.754524e-01 1.990393e+01 5.000000e+00
      vertex -6.000000e+00 2.000000e+01 5.000000e+00
    endloop
  endfacet
  facet normal 0.000000e+00 0.000000e+00 1.000000e+00
    outer loop
      vertex 9.754524e-01 1.990393e+01 5.000000e+00
      vertex 6.000000e+00 2.000000e+01 5.000000e+00
      vertex -9.754524e-01 1.990393e+01 5.000000e+00
    endloop
  endfacet
  facet normal 0.000000e+00 0.000000e+00 1.000000e+00
    outer loop
      vertex 4.157349e+00 -1.222215e+01 5.000000e+00
      vertex 4.903927e+00 -1.402455e+01 5.000000e+00
      vertex -9.754524e-01 1.009607e+01 5.000000e+00
    endloop
  endfacet
  facet normal 0.000000e+00 0.000000e+00 1.000000e+00
    outer loop
      vertex 4.157349e+00 1.777785e+01 5.000000e+00
      vertex 6.000000e+00 2.000000e+01 5.000000e+00
      vertex 2.777851e+00 1.915735e+01 5.000000e+00
    endloop
  endfacet
  facet normal 0.000000e+00 0.000000e+00 1.000000e+00
    outer loop
      vertex 4.903927e+00 1.597545e+01 5.000000e+00
      vertex 6.000000e+00 2.000000e+01 5.000000e+00
      vertex 4.157349e+00 1.777785e+01 5.000000e+00
    endloop
  endfacet
  facet normal 0.000000e+00 0.000000e+00 1.000000e+00
    outer loop
      vertex 6.000000e+00 -2.000000e+01 5.000000e+00
      vertex 9.754524e-01 1.009607e+01 5.000000e+00
      vertex 4.903927e+00 -1.402455e+01 5.000000e+00
    endloop
  endfacet
  facet normal 0.000000e+00 0.000000e+00 1.000000e+00
    outer loop
      vertex 2.777851e+00 -1.084265e+01 5.000000e+00
      vertex -9.754524e-01 1.009607e+01 5.000000e+00
      vertex -2.777851e+00 1.084265e+01 5.000000e+00
    endloop
  endfacet
  facet normal 0.000000e+00 0.000000e+00 1.000000e+00
    outer loop
      vertex 2.777851e+00 -1.915735e+01 5.000000e+00
      vertex 6.000000e+00 -2.000000e+01 5.000000e+00
      vertex 4.157349e+00 -1.777785e+01 5.000000e+00
    endloop
  endfacet
  facet normal 0.000000e+00 0.000000e+00 1.000000e+00
    outer loop
      vertex -4.903927e+00 -1.402455e+01 5.000000e+00
      vertex -4.157349e+00 -1.222215e+01 5.000000e+00
      vertex -4.157349e+00 1.222215e+01 5.000000e+00
    endloop
  endfacet
  facet normal 0.000000e+00 0.000000e+00 1.000000e+00
    outer loop
      vertex 9.754524e-01 -1.990393e+01 5.000000e+00
      vertex 6.000000e+00 -2.000000e+01 5.000000e+00
      vertex 2.777851e+00 -1.915735e+01 5.000000e+00
    endloop
  endfacet
  facet normal 0.000000e+00 0.000000e+00 1.000000e+00
    outer loop
      vertex -6.000000e+00 -2.000000e+01 5.000000e+00
      vertex 6.000000e+00 -2.000000e+01 5.000000e+00
      vertex 9.754524e-01 -1.990393e+01 5.000000e+00
    endloop
  endfacet
  facet normal 0.000000e+00 0.000000e+00 1.000000e+00
    outer loop
      vertex 2.777851e+00 -1.084265e+01 5.000000e+00
      vertex 4.157349e+00 -1.222215e+01 5.000000e+00
      vertex -9.754524e-01 1.009607e+01 5.000000e+00
    endloop
  endfacet
  facet normal 0.000000e+00 0.000000e+00 1.000000e+00
    outer loop
      vertex -6.000000e+00 -2.000000e+01 5.000000e+00
      vertex 9.754524e-01 -1.990393e+01 5.000000e+00
      vertex -9.754524e-01 -1.990393e+01 5.000000e+00
    endloop
  endfacet
  facet normal 0.000000e+00 0.000000e+00 1.000000e+00
    outer loop
      vertex 9.754524e-01 -1.009607e+01 5.000000e+00
      vertex 2.777851e+00 -1.084265e+01 5.000000e+00
      vertex -4.157349e+00 1.222215e+01 5.000000e+00
    endloop
  endfacet
  facet normal 0.000000e+00 0.000000e+00 1.000000e+00
    outer loop
      vertex -6.000000e+00 -2.000000e+01 5.000000e+00
      vertex -2.777851e+00 -1.915735e+01 5.000000e+00
      vertex -4.157349e+00 -1.777785e+01 5.000000e+00
    endloop
  endfacet
  facet normal 0.000000e+00 0.000000e+00 1.000000e+00
    outer loop
      vertex -4.157349e+00 -1.222215e+01 5.000000e+00
      vertex -2.777851e+00 -1.084265e+01 5.000000e+00
      vertex -4.157349e+00 1.222215e+01 5.000000e+00
    endloop
  endfacet
  facet normal 0.000000e+00 0.000000e+00 1.000000e+00
    outer loop
      vertex -6.000000e+00 -2.000000e+01 5.000000e+00
      vertex -4.157349e+00 -1.777785e+01 5.000000e+00
      vertex -4.903927e+00 -1.597545e+01 5.000000e+00
    endloop
  endfacet
  facet normal 0.000000e+00 0.000000e+00 1.000000e+00
    outer loop
      vertex -6.000000e+00 -2.000000e+01 5.000000e+00
      vertex -4.903927e+00 -1.402455e+01 5.000000e+00
      vertex -4.157349e+00 1.222215e+01 5.000000e+00
    endloop
  endfacet
  facet normal 0.000000e+00 0.000000e+00 1.000000e+00
    outer loop
      vertex -6.000000e+00 -2.000000e+01 5.000000e+00
      vertex -4.903927e+00 -1.597545e+01 5.000000e+00
      vertex -4.903927e+00 -1.402455e+01 5.000000e+00
    endloop
  endfacet
  facet normal 0.000000e+00 0.000000e+00 1.000000e+00
    outer loop
      vertex -2.777851e+00 -1.084265e+01 5.000000e+00
      vertex -9.754524e-01 -1.009607e+01 5.000000e+00
      vertex -4.157349e+00 1.222215e+01 5.000000e+00
    endloop
  endfacet
  facet normal 0.000000e+00 0.000000e+00 1.000000e+00
    outer loop
      vertex -9.754524e-01 -1.009607e+01 5.000000e+00
      vertex 9.754524e-01 -1.009607e+01 5.000000e+00
      vertex -4.157349e+00 1.222215e+01 5.000000e+00
    endloop
  endfacet
  facet normal 0.000000e+00 0.000000e+00 1.000000e+00
    outer loop
      vertex 2.777851e+00 -1.084265e+01 5.000000e+00
      vertex -2.777851e+00 1.084265e+01 5.000000e+00
      vertex -4.157349e+00 1.222215e+01 5.000000e+00
    endloop
  endfacet
  facet normal 0.000000e+00 0.000000e+00 1.000000e+00
    outer loop
      vertex 4.903927e+00 -1.402455e+01 5.000000e+00
      vertex 4.903927e+00 -1.597545e+01 5.000000e+00
      vertex 6.000000e+00 -2.000000e+01 5.000000e+00
    endloop
  endfacet
  facet normal 0.000000e+00 0.000000e+00 1.000000e+00
    outer loop
      vertex -9.754524e-01 -1.990393e+01 5.000000e+00
      vertex -2.777851e+00 -1.915735e+01 5.000000e+00
      vertex -6.000000e+00 -2.000000e+01 5.000000e+00
    endloop
  endfacet
  facet normal 0.000000e+00 0.000000e+00 1.000000e+00
    outer loop
      vertex -4.903927e+00 1.597545e+01 5.000000e+00
      vertex -4.157349e+00 1.777785e+01 5.000000e+00
      vertex -6.000000e+00 2.000000e+01 5.000000e+00
    endloop
  endfacet
  facet normal 0.000000e+00 0.000000e+00 1.000000e+00
    outer loop
      vertex -4.157349e+00 1.777785e+01 5.000000e+00
      vertex -2.777851e+00 1.915735e+01 5.000000e+00
      vertex -6.000000e+00 2.000000e+01 5.000000e+00
    endloop
  endfacet
  facet normal -1.000000e+00 0.000000e+00 0.000000e+00
    outer loop
      vertex -6.000000e+00 2.000000e+01 0.000000e+00
      vertex -6.000000e+00 -2.000000e+01 0.000000e+00
      vertex -6.000000e+00 2.000000e+01 5.000000e+00
    endloop
  endfacet
  facet normal -1.000000e+00 0.000000e+00 0.000000e+00
    outer loop
      vertex -6.000000e+00 2.000000e+01 5.000000e+00
      vertex -6.000000e+00 -2.000000e+01 0.000000e+00
      vertex -6.000000e+00 -2.000000e+01 5.000000e+00
    endloop
  endfacet
  facet normal -9.709417e-01 2.393159e-01 0.000000e+00
    outer loop
      vertex 3.541824e+00 1.314111e+01 7.000000e+00
      vertex 4.000000e+00 1.500000e+01 7.000000e+00
      vertex 3.541824e+00 1.314111e+01 0.000000e+00
    endloop
  endfacet
  facet normal -9.709417e-01 2.393159e-01 0.000000e+00
    outer loop
      vertex 3.541824e+00 1.314111e+01 0.000000e+00
      vertex 4.000000e+00 1.500000e+01 7.000000e+00
      vertex 4.000000e+00 1.500000e+01 0.000000e+00
    endloop
  endfacet
  facet normal -9.709417e-01 -2.393159e-01 -0.000000e+00
    outer loop
      vertex 3.541824e+00 1.685889e+01 7.000000e+00
      vertex 3.541824e+00 1.685889e+01 0.000000e+00
      vertex 4.000000e+00 1.500000e+01 7.000000e+00
    endloop
  endfacet
  facet normal -9.709417e-01 -2.393159e-01 -0.000000e+00
    outer loop
      vertex 4.000000e+00 1.500000e+01 7.000000e+00
      vertex 3.541824e+00 1.685889e+01 0.000000e+00
      vertex 4.000000e+00 1.500000e+01 0.000000e+00
    endloop
  endfacet
  facet normal -7.485107e-01 6.631227e-01 0.000000e+00
    outer loop
      vertex 2.272259e+00 1.170807e+01 7.000000e+00
      vertex 3.541824e+00 1.314111e+01 7.000000e+00
      vertex 2.272259e+00 1.170807e+01 0.000000e+00
    endloop
  endfacet
  facet normal -7.485107e-01 6.631227e-01 0.000000e+00
    outer loop
      vertex 2.272259e+00 1.170807e+01 0.000000e+00
      vertex 3.541824e+00 1.314111e+01 7.000000e+00
      vertex 3.541824e+00 1.314111e+01 0.000000e+00
    endloop
  endfacet
  facet normal -3.546051e-01 9.350162e-01 0.000000e+00
    outer loop
      vertex 4.821472e-01 1.102917e+01 7.000000e+00
      vertex 2.272259e+00 1.170807e+01 7.000000e+00
      vertex 4.821472e-01 1.102917e+01 0.000000e+00
    endloop
  endfacet
  facet normal -3.546051e-01 9.350162e-01 0.000000e+00
    outer loop
      vertex 4.821472e-01 1.102917e+01 0.000000e+00
      vertex 2.272259e+00 1.170807e+01 7.000000e+00
      vertex 2.272259e+00 1.170807e+01 0.000000e+00
    endloop
  endfacet
  facet normal 1.205360e-01 9.927090e-01 0.000000e+00
    outer loop
      vertex -1.418421e+00 1.125994e+01 7.000000e+00
      vertex 4.821472e-01 1.102917e+01 7.000000e+00
      vertex -1.418421e+00 1.125994e+01 0.000000e+00
    endloop
  endfacet
  facet normal 1.205360e-01 9.927090e-01 0.000000e+00
    outer loop
      vertex -1.418421e+00 1.125994e+01 0.000000e+00
      vertex 4.821472e-01 1.102917e+01 7.000000e+00
      vertex 4.821472e-01 1.102917e+01 0.000000e+00
    endloop
  endfacet
  facet normal 5.680649e-01 8.229838e-01 0.000000e+00
    outer loop
      vertex -2.994043e+00 1.234751e+01 7.000000e+00
      vertex -1.418421e+00 1.125994e+01 7.000000e+00
      vertex -2.994043e+00 1.234751e+01 0.000000e+00
    endloop
  endfacet
  facet normal 5.680649e-01 8.229838e-01 0.000000e+00
    outer loop
      vertex -2.994043e+00 1.234751e+01 0.000000e+00
      vertex -1.418421e+00 1.125994e+01 7.000000e+00
      vertex -1.418421e+00 1.125994e+01 0.000000e+00
    endloop
  endfacet
  facet normal 8.854561e-01 4.647231e-01 0.000000e+00
    outer loop
      vertex -3.883766e+00 1.404274e+01 0.000000e+00
      vertex -3.883766e+00 1.404274e+01 7.000000e+00
      vertex -2.994043e+00 1.234751e+01 7.000000e+00
    endloop
  endfacet
  facet normal 8.854561e-01 4.647231e-01 0.000000e+00
    outer loop
      vertex -2.994043e+00 1.234751e+01 0.000000e+00
      vertex -3.883766e+00 1.404274e+01 0.000000e+00
      vertex -2.994043e+00 1.234751e+01 7.000000e+00
    endloop
  endfacet
  facet normal 1.000000e+00 0.000000e+00 0.000000e+00
    outer loop
      vertex -3.883766e+00 1.595726e+01 7.000000e+00
      vertex -3.883766e+00 1.404274e+01 7.000000e+00
      vertex -3.883766e+00 1.404274e+01 0.000000e+00
    endloop
  endfacet
  facet normal 1.000000e+00 0.000000e+00 0.000000e+00
    outer loop
      vertex -3.883766e+00 1.595726e+01 0.000000e+00
      vertex -3.883766e+00 1.595726e+01 7.000000e+00
      vertex -3.883766e+00 1.404274e+01 0.000000e+00
    endloop
  endfacet
  facet normal 8.854561e-01 -4.647231e-01 0.000000e+00
    outer loop
      vertex -2.994043e+00 1.765249e+01 7.000000e+00
      vertex -3.883766e+00 1.595726e+01 7.000000e+00
      vertex -3.883766e+00 1.595726e+01 0.000000e+00
    endloop
  endfacet
  facet normal 8.854561e-01 -4.647231e-01 0.000000e+00
    outer loop
      vertex -2.994043e+00 1.765249e+01 0.000000e+00
      vertex -2.994043e+00 1.765249e+01 7.000000e+00
      vertex -3.883766e+00 1.595726e+01 0.000000e+00
    endloop
  endfacet
  facet normal 5.680649e-01 -8.229838e-01 0.000000e+00
    outer loop
      vertex -1.418421e+00 1.874006e+01 7.000000e+00
      vertex -2.994043e+00 1.765249e+01 7.000000e+00
      vertex -2.994043e+00 1.765249e+01 0.000000e+00
    endloop
  endfacet
  facet normal 5.680649e-01 -8.229838e-01 0.000000e+00
    outer loop
      vertex -1.418421e+00 1.874006e+01 0.000000e+00
      vertex -1.418421e+00 1.874006e+01 7.000000e+00
      vertex -2.994043e+00 1.765249e+01 0.000000e+00
    endloop
  endfacet
  facet normal 1.205360e-01 -9.927090e-01 0.000000e+00
    outer loop
      vertex 4.821472e-01 1.897083e+01 7.000000e+00
      vertex -1.418421e+00 1.874006e+01 7.000000e+00
      vertex -1.418421e+00 1.874006e+01 0.000000e+00
    endloop
  endfacet
  facet normal 1.205360e-01 -9.927090e-01 0.000000e+00
    outer loop
      vertex 4.821472e-01 1.897083e+01 0.000000e+00
      vertex 4.821472e-01 1.897083e+01 7.000000e+00
      vertex -1.418421e+00 1.874006e+01 0.000000e+00
    endloop
  endfacet
  facet normal -3.546051e-01 -9.350162e-01 0.000000e+00
    outer loop
      vertex 2.272259e+00 1.829193e+01 7.000000e+00
      vertex 4.821472e-01 1.897083e+01 7.000000e+00
      vertex 4.821472e-01 1.897083e+01 0.000000e+00
    endloop
  endfacet
  facet normal -3.546051e-01 -9.350162e-01 -0.000000e+00
    outer loop
      vertex 2.272259e+00 1.829193e+01 0.000000e+00
      vertex 2.272259e+00 1.829193e+01 7.000000e+00
      vertex 4.821472e-01 1.897083e+01 0.000000e+00
    endloop
  endfacet
  facet normal -7.485107e-01 -6.631227e-01 0.000000e+00
    outer loop
      vertex 2.272259e+00 1.829193e+01 7.000000e+00
      vertex 2.272259e+00 1.829193e+01 0.000000e+00
      vertex 3.541824e+00 1.685889e+01 7.000000e+00
    endloop
  endfacet
  facet normal -7.485107e-01 -6.631227e-01 -0.000000e+00
    outer loop
      vertex 3.541824e+00 1.685889e+01 7.000000e+00
      vertex 2.272259e+00 1.829193e+01 0.000000e+00
      vertex 3.541824e+00 1.685889e+01 0.000000e+00
    endloop
  endfacet
  facet normal -9.709417e-01 2.393159e-01 0.000000e+00
    outer loop
      vertex 3.541824e+00 -1.685889e+01 7.000000e+00
      vertex 4.000000e+00 -1.500000e+01 7.000000e+00
      vertex 3.541824e+00 -1.685889e+01 0.000000e+00
    endloop
  endfacet
  facet normal -9.709417e-01 2.393159e-01 0.000000e+00
    outer loop
      vertex 3.541824e+00 -1.685889e+01 0.000000e+00
      vertex 4.000000e+00 -1.500000e+01 7.000000e+00
      vertex 4.000000e+00 -1.500000e+01 0.000000e+00
    endloop
  endfacet
  facet normal -9.709417e-01 -2.393159e-01 -0.000000e+00
    outer loop
      vertex 3.541824e+00 -1.314111e+01 7.000000e+00
      vertex 3.541824e+00 -1.314111e+01 0.000000e+00
      vertex 4.000000e+00 -1.500000e+01 7.000000e+00
    endloop
  endfacet
  facet normal -9.709417e-01 -2.393159e-01 -0.000000e+00
    outer loop
      vertex 4.000000e+00 -1.500000e+01 7.000000e+00
      vertex 3.541824e+00 -1.314111e+01 0.000000e+00
      vertex 4.000000e+00 -1.500000e+01 0.000000e+00
    endloop
  endfacet
  facet normal -7.485107e-01 6.631227e-01 0.000000e+00
    outer loop
      vertex 2.272259e+00 -1.829193e+01 7.000000e+00
      vertex 3.541824e+00 -1.685889e+01 7.000000e+00
      vertex 2.272259e+00 -1.829193e+01 0.000000e+00
    endloop
  endfacet
  facet normal -7.485107e-01 6.631227e-01 0.000000e+00
    outer loop
      vertex 2.272259e+00 -1.829193e+01 0.000000e+00
      vertex 3.541824e+00 -1.685889e+01 7.000000e+00
      vertex 3.541824e+00 -1.685889e+01 0.000000e+00
    endloop
  endfacet
  facet normal -3.546051e-01 9.350162e-01 0.000000e+00
    outer loop
      vertex 4.821472e-01 -1.897083e+01 7.000000e+00
      vertex 2.272259e+00 -1.829193e+01 7.000000e+00
      vertex 4.821472e-01 -1.897083e+01 0.000000e+00
    endloop
  endfacet
  facet normal -3.546051e-01 9.350162e-01 0.000000e+00
    outer loop
      vertex 4.821472e-01 -1.897083e+01 0.000000e+00
      vertex 2.272259e+00 -1.829193e+01 7.000000e+00
      vertex 2.272259e+00 -1.829193e+01 0.000000e+00
    endloop
  endfacet
  facet normal 1.205360e-01 9.927090e-01 0.000000e+00
    outer loop
      vertex -1.418421e+00 -1.874006e+01 7.000000e+00
      vertex 4.821472e-01 -1.897083e+01 7.000000e+00
      vertex -1.418421e+00 -1.874006e+01 0.000000e+00
    endloop
  endfacet
  facet normal 1.205360e-01 9.927090e-01 0.000000e+00
    outer loop
      vertex -1.418421e+00 -1.874006e+01 0.000000e+00
      vertex 4.821472e-01 -1.897083e+01 7.000000e+00
      vertex 4.821472e-01 -1.897083e+01 0.000000e+00
    endloop
  endfacet
  facet normal 5.680649e-01 8.229838e-01 0.000000e+00
    outer loop
      vertex -2.994043e+00 -1.765249e+01 7.000000e+00
      vertex -1.418421e+00 -1.874006e+01 7.000000e+00
      vertex -2.994043e+00 -1.765249e+01 0.000000e+00
    endloop
  endfacet
  facet normal 5.680649e-01 8.229838e-01 0.000000e+00
    outer loop
      vertex -2.994043e+00 -1.765249e+01 0.000000e+00
      vertex -1.418421e+00 -1.874006e+01 7.000000e+00
      vertex -1.418421e+00 -1.874006e+01 0.000000e+00
    endloop
  endfacet
  facet normal 8.854561e-01 4.647231e-01 0.000000e+00
    outer loop
      vertex -3.883766e+00 -1.595726e+01 0.000000e+00
      vertex -3.883766e+00 -1.595726e+01 7.000000e+00
      vertex -2.994043e+00 -1.765249e+01 7.000000e+00
    endloop
  endfacet
  facet normal 8.854561e-01 4.647231e-01 0.000000e+00
    outer loop
      vertex -2.994043e+00 -1.765249e+01 0.000000e+00
      vertex -3.883766e+00 -1.595726e+01 0.000000e+00
      vertex -2.994043e+00 -1.765249e+01 7.000000e+00
    endloop
  endfacet
  facet normal 1.000000e+00 0.000000e+00 0.000000e+00
    outer loop
      vertex -3.883766e+00 -1.404274e+01 7.000000e+00
      vertex -3.883766e+00 -1.595726e+01 7.000000e+00
      vertex -3.883766e+00 -1.595726e+01 0.000000e+00
    endloop
  endfacet
  facet normal 1.000000e+00 0.000000e+00 0.000000e+00
    outer loop
      vertex -3.883766e+00 -1.404274e+01 0.000000e+00
      vertex -3.883766e+00 -1.404274e+01 7.000000e+00
      vertex -3.883766e+00 -1.595726e+01 0.000000e+00
    endloop
  endfacet
  facet normal 8.854561e-01 -4.647231e-01 0.000000e+00
    outer loop
      vertex -2.994043e+00 -1.234751e+01 7.000000e+00
      vertex -3.883766e+00 -1.404274e+01 7.000000e+00
      vertex -3.883766e+00 -1.404274e+01 0.000000e+00
    endloop
  endfacet
  facet normal 8.854561e-01 -4.647231e-01 0.000000e+00
    outer loop
      vertex -2.994043e+00 -1.234751e+01 0.000000e+00
      vertex -2.994043e+00 -1.234751e+01 7.000000e+00
      vertex -3.883766e+00 -1.404274e+01 0.000000e+00
    endloop
  endfacet
  facet normal 5.680649e-01 -8.229838e-01 0.000000e+00
    outer loop
      vertex -1.418421e+00 -1.125994e+01 7.000000e+00
      vertex -2.994043e+00 -1.234751e+01 7.000000e+00
      vertex -2.994043e+00 -1.234751e+01 0.000000e+00
    endloop
  endfacet
  facet normal 5.680649e-01 -8.229838e-01 0.000000e+00
    outer loop
      vertex -1.418421e+00 -1.125994e+01 0.000000e+00
      vertex -1.418421e+00 -1.125994e+01 7.000000e+00
      vertex -2.994043e+00 -1.234751e+01 0.000000e+00
    endloop
  endfacet
  facet normal 1.205360e-01 -9.927090e-01 0.000000e+00
    outer loop
      vertex 4.821472e-01 -1.102917e+01 7.000000e+00
      vertex -1.418421e+00 -1.125994e+01 7.000000e+00
      vertex -1.418421e+00 -1.125994e+01 0.000000e+00
    endloop
  endfacet
  facet normal 1.205360e-01 -9.927090e-01 0.000000e+00
    outer loop
      vertex 4.821472e-01 -1.102917e+01 0.000000e+00
      vertex 4.821472e-01 -1.102917e+01 7.000000e+00
      vertex -1.418421e+00 -1.125994e+01 0.000000e+00
    endloop
  endfacet
  facet normal -3.546051e-01 -9.350162e-01 -0.000000e+00
    outer loop
      vertex 2.272259e+00 -1.170807e+01 7.000000e+00
      vertex 4.821472e-01 -1.102917e+01 7.000000e+00
      vertex 4.821472e-01 -1.102917e+01 0.000000e+00
    endloop
  endfacet
  facet normal -3.546051e-01 -9.350162e-01 -0.000000e+00
    outer loop
      vertex 2.272259e+00 -1.170807e+01 0.000000e+00
      vertex 2.272259e+00 -1.170807e+01 7.000000e+00
      vertex 4.821472e-01 -1.102917e+01 0.000000e+00
    endloop
  endfacet
  facet normal -7.485107e-01 -6.631227e-01 0.000000e+00
    outer loop
      vertex 2.272259e+00 -1.170807e+01 7.000000e+00
      vertex 2.272259e+00 -1.170807e+01 0.000000e+00
      vertex 3.541824e+00 -1.314111e+01 7.000000e+00
    endloop
  endfacet
  facet normal -7.485107e-01 -6.631227e-01 -0.000000e+00
    outer loop
      vertex 3.541824e+00 -1.314111e+01 7.000000e+00
      vertex 2.272259e+00 -1.170807e+01 0.000000e+00
      vertex 3.541824e+00 -1.314111e+01 0.000000e+00
    endloop
  endfacet
  facet normal 1.000000e+00 0.000000e+00 0.000000e+00
    outer loop
      vertex 4.903927e+00 1.402455e+01 5.000000e+00
      vertex 4.903927e+00 1.597545e+01 5.000000e+00
      vertex 4.903927e+00 1.597545e+01 7.000000e+00
    endloop
  endfacet
  facet normal 1.000000e+00 0.000000e+00 0.000000e+00
    outer loop
      vertex 4.903927e+00 1.402455e+01 7.000000e+00
      vertex 4.903927e+00 1.402455e+01 5.000000e+00
      vertex 4.903927e+00 1.597545e+01 7.000000e+00
    endloop
  endfacet
  facet normal 9.238797e-01 3.826829e-01 0.000000e+00
    outer loop
      vertex 4.903927e+00 1.597545e+01 7.000000e+00
      vertex 4.903927e+00 1.597545e+01 5.000000e+00
      vertex 4.157349e+00 1.777785e+01 5.000000e+00
    endloop
  endfacet
  facet normal 9.238797e-01 3.826829e-01 0.000000e+00
    outer loop
      vertex 4.157349e+00 1.777785e+01 7.000000e+00
      vertex 4.903927e+00 1.597545e+01 7.000000e+00
      vertex 4.157349e+00 1.777785e+01 5.000000e+00
    endloop
  endfacet
  facet normal 7.071068e-01 7.071068e-01 0.000000e+00
    outer loop
      vertex 4.157349e+00 1.777785e+01 5.000000e+00
      vertex 2.777851e+00 1.915735e+01 5.000000e+00
      vertex 4.157349e+00 1.777785e+01 7.000000e+00
    endloop
  endfacet
  facet normal 7.071068e-01 7.071068e-01 0.000000e+00
    outer loop
      vertex 4.157349e+00 1.777785e+01 7.000000e+00
      vertex 2.777851e+00 1.915735e+01 5.000000e+00
      vertex 2.777851e+00 1.915735e+01 7.000000e+00
    endloop
  endfacet
  facet normal 3.826829e-01 9.238797e-01 0.000000e+00
    outer loop
      vertex 2.777851e+00 1.915735e+01 5.000000e+00
      vertex 9.754524e-01 1.990393e+01 5.000000e+00
      vertex 2.777851e+00 1.915735e+01 7.000000e+00
    endloop
  endfacet
  facet normal 3.826829e-01 9.238797e-01 0.000000e+00
    outer loop
      vertex 2.777851e+00 1.915735e+01 7.000000e+00
      vertex 9.754524e-01 1.990393e+01 5.000000e+00
      vertex 9.754524e-01 1.990393e+01 7.000000e+00
    endloop
  endfacet
  facet normal 0.000000e+00 1.000000e+00 0.000000e+00
    outer loop
      vertex 9.754524e-01 1.990393e+01 5.000000e+00
      vertex -9.754524e-01 1.990393e+01 5.000000e+00
      vertex 9.754524e-01 1.990393e+01 7.000000e+00
    endloop
  endfacet
  facet normal 0.000000e+00 1.000000e+00 0.000000e+00
    outer loop
      vertex 9.754524e-01 1.990393e+01 7.000000e+00
      vertex -9.754524e-01 1.990393e+01 5.000000e+00
      vertex -9.754524e-01 1.990393e+01 7.000000e+00
    endloop
  endfacet
  facet normal -3.826829e-01 9.238797e-01 0.000000e+00
    outer loop
      vertex -9.754524e-01 1.990393e+01 5.000000e+00
      vertex -2.777851e+00 1.915735e+01 5.000000e+00
      vertex -9.754524e-01 1.990393e+01 7.000000e+00
    endloop
  endfacet
  facet normal -3.826829e-01 9.238797e-01 0.000000e+00
    outer loop
      vertex -9.754524e-01 1.990393e+01 7.000000e+00
      vertex -2.777851e+00 1.915735e+01 5.000000e+00
      vertex -2.777851e+00 1.915735e+01 7.000000e+00
    endloop
  endfacet
  facet normal -7.071068e-01 7.071068e-01 0.000000e+00
    outer loop
      vertex -2.777851e+00 1.915735e+01 5.000000e+00
      vertex -4.157349e+00 1.777785e+01 5.000000e+00
      vertex -2.777851e+00 1.915735e+01 7.000000e+00
    endloop
  endfacet
  facet normal -7.071068e-01 7.071068e-01 0.000000e+00
    outer loop
      vertex -2.777851e+00 1.915735e+01 7.000000e+00
      vertex -4.157349e+00 1.777785e+01 5.000000e+00
      vertex -4.157349e+00 1.777785e+01 7.000000e+00
    endloop
  endfacet
  facet normal -9.238797e-01 3.826829e-01 0.000000e+00
    outer loop
      vertex -4.157349e+00 1.777785e+01 5.000000e+00
      vertex -4.903927e+00 1.597545e+01 5.000000e+00
      vertex -4.157349e+00 1.777785e+01 7.000000e+00
    endloop
  endfacet
  facet normal -9.238797e-01 3.826829e-01 0.000000e+00
    outer loop
      vertex -4.157349e+00 1.777785e+01 7.000000e+00
      vertex -4.903927e+00 1.597545e+01 5.000000e+00
      vertex -4.903927e+00 1.597545e+01 7.000000e+00
    endloop
  endfacet
  facet normal -1.000000e+00 0.000000e+00 0.000000e+00
    outer loop
      vertex -4.903927e+00 1.597545e+01 5.000000e+00
      vertex -4.903927e+00 1.402455e+01 5.000000e+00
      vertex -4.903927e+00 1.597545e+01 7.000000e+00
    endloop
  endfacet
  facet normal -1.000000e+00 0.000000e+00 0.000000e+00
    outer loop
      vertex -4.903927e+00 1.597545e+01 7.000000e+00
      vertex -4.903927e+00 1.402455e+01 5.000000e+00
      vertex -4.903927e+00 1.402455e+01 7.000000e+00
    endloop
  endfacet
  facet normal -9.238797e-01 -3.826829e-01 -0.000000e+00
    outer loop
      vertex -4.157349e+00 1.222215e+01 5.000000e+00
      vertex -4.157349e+00 1.222215e+01 7.000000e+00
      vertex -4.903927e+00 1.402455e+01 5.000000e+00
    endloop
  endfacet
  facet normal -9.238797e-01 -3.826829e-01 -0.000000e+00
    outer loop
      vertex -4.903927e+00 1.402455e+01 5.000000e+00
      vertex -4.157349e+00 1.222215e+01 7.000000e+00
      vertex -4.903927e+00 1.402455e+01 7.000000e+00
    endloop
  endfacet
  facet normal -7.071068e-01 -7.071068e-01 0.000000e+00
    outer loop
      vertex -4.157349e+00 1.222215e+01 5.000000e+00
      vertex -2.777851e+00 1.084265e+01 5.000000e+00
      vertex -2.777851e+00 1.084265e+01 7.000000e+00
    endloop
  endfacet
  facet normal -7.071068e-01 -7.071068e-01 0.000000e+00
    outer loop
      vertex -4.157349e+00 1.222215e+01 7.000000e+00
      vertex -4.157349e+00 1.222215e+01 5.000000e+00
      vertex -2.777851e+00 1.084265e+01 7.000000e+00
    endloop
  endfacet
  facet normal -3.826829e-01 -9.238797e-01 0.000000e+00
    outer loop
      vertex -2.777851e+00 1.084265e+01 5.000000e+00
      vertex -9.754524e-01 1.009607e+01 5.000000e+00
      vertex -9.754524e-01 1.009607e+01 7.000000e+00
    endloop
  endfacet
  facet normal -3.826829e-01 -9.238797e-01 0.000000e+00
    outer loop
      vertex -2.777851e+00 1.084265e+01 7.000000e+00
      vertex -2.777851e+00 1.084265e+01 5.000000e+00
      vertex -9.754524e-01 1.009607e+01 7.000000e+00
    endloop
  endfacet
  facet normal 0.000000e+00 -1.000000e+00 0.000000e+00
    outer loop
      vertex -9.754524e-01 1.009607e+01 5.000000e+00
      vertex 9.754524e-01 1.009607e+01 5.000000e+00
      vertex 9.754524e-01 1.009607e+01 7.000000e+00
    endloop
  endfacet
  facet normal 0.000000e+00 -1.000000e+00 0.000000e+00
    outer loop
      vertex -9.754524e-01 1.009607e+01 7.000000e+00
      vertex -9.754524e-01 1.009607e+01 5.000000e+00
      vertex 9.754524e-01 1.009607e+01 7.000000e+00
    endloop
  endfacet
  facet normal 3.826829e-01 -9.238797e-01 0.000000e+00
    outer loop
      vertex 9.754524e-01 1.009607e+01 5.000000e+00
      vertex 2.777851e+00 1.084265e+01 5.000000e+00
      vertex 2.777851e+00 1.084265e+01 7.000000e+00
    endloop
  endfacet
  facet normal 3.826829e-01 -9.238797e-01 0.000000e+00
    outer loop
      vertex 9.754524e-01 1.009607e+01 7.000000e+00
      vertex 9.754524e-01 1.009607e+01 5.000000e+00
      vertex 2.777851e+00 1.084265e+01 7.000000e+00
    endloop
  endfacet
  facet normal 7.071068e-01 -7.071068e-01 0.000000e+00
    outer loop
      vertex 2.777851e+00 1.084265e+01 5.000000e+00
      vertex 4.157349e+00 1.222215e+01 5.000000e+00
      vertex 4.157349e+00 1.222215e+01 7.000000e+00
    endloop
  endfacet
  facet normal 7.071068e-01 -7.071068e-01 0.000000e+00
    outer loop
      vertex 2.777851e+00 1.084265e+01 7.000000e+00
      vertex 2.777851e+00 1.084265e+01 5.000000e+00
      vertex 4.157349e+00 1.222215e+01 7.000000e+00
    endloop
  endfacet
  facet normal 9.238797e-01 -3.826829e-01 0.000000e+00
    outer loop
      vertex 4.157349e+00 1.222215e+01 5.000000e+00
      vertex 4.903927e+00 1.402455e+01 5.000000e+00
      vertex 4.903927e+00 1.402455e+01 7.000000e+00
    endloop
  endfacet
  facet normal 9.238797e-01 -3.826829e-01 0.000000e+00
    outer loop
      vertex 4.157349e+00 1.222215e+01 7.000000e+00
      vertex 4.157349e+00 1.222215e+01 5.000000e+00
      vertex 4.903927e+00 1.402455e+01 7.000000e+00
    endloop
  endfacet
  facet normal 1.000000e+00 0.000000e+00 0.000000e+00
    outer loop
      vertex 4.903927e+00 -1.597545e+01 5.000000e+00
      vertex 4.903927e+00 -1.402455e+01 5.000000e+00
      vertex 4.903927e+00 -1.402455e+01 7.000000e+00
    endloop
  endfacet
  facet normal 1.000000e+00 0.000000e+00 0.000000e+00
    outer loop
      vertex 4.903927e+00 -1.597545e+01 7.000000e+00
      vertex 4.903927e+00 -1.597545e+01 5.000000e+00
      vertex 4.903927e+00 -1.402455e+01 7.000000e+00
    endloop
  endfacet
  facet normal 9.238797e-01 3.826829e-01 0.000000e+00
    outer loop
      vertex 4.903927e+00 -1.402455e+01 7.000000e+00
      vertex 4.903927e+00 -1.402455e+01 5.000000e+00
      vertex 4.157349e+00 -1.222215e+01 5.000000e+00
    endloop
  endfacet
  facet normal 9.238797e-01 3.826829e-01 0.000000e+00
    outer loop
      vertex 4.157349e+00 -1.222215e+01 7.000000e+00
      vertex 4.903927e+00 -1.402455e+01 7.000000e+00
      vertex 4.157349e+00 -1.222215e+01 5.000000e+00
    endloop
  endfacet
  facet normal 7.071068e-01 7.071068e-01 0.000000e+00
    outer loop
      vertex 4.157349e+00 -1.222215e+01 5.000000e+00
      vertex 2.777851e+00 -1.084265e+01 5.000000e+00
      vertex 4.157349e+00 -1.222215e+01 7.000000e+00
    endloop
  endfacet
  facet normal 7.071068e-01 7.071068e-01 0.000000e+00
    outer loop
      vertex 4.157349e+00 -1.222215e+01 7.000000e+00
      vertex 2.777851e+00 -1.084265e+01 5.000000e+00
      vertex 2.777851e+00 -1.084265e+01 7.000000e+00
    endloop
  endfacet
  facet normal 3.826829e-01 9.238797e-01 0.000000e+00
    outer loop
      vertex 2.777851e+00 -1.084265e+01 5.000000e+00
      vertex 9.754524e-01 -1.009607e+01 5.000000e+00
      vertex 2.777851e+00 -1.084265e+01 7.000000e+00
    endloop
  endfacet
  facet normal 3.826829e-01 9.238797e-01 0.000000e+00
    outer loop
      vertex 2.777851e+00 -1.084265e+01 7.000000e+00
      vertex 9.754524e-01 -1.009607e+01 5.000000e+00
      vertex 9.754524e-01 -1.009607e+01 7.000000e+00
    endloop
  endfacet
  facet normal 0.000000e+00 1.000000e+00 0.000000e+00
    outer loop
      vertex 9.754524e-01 -1.009607e+01 5.000000e+00
      vertex -9.754524e-01 -1.009607e+01 5.000000e+00
      vertex 9.754524e-01 -1.009607e+01 7.000000e+00
    endloop
  endfacet
  facet normal 0.000000e+00 1.000000e+00 0.000000e+00
    outer loop
      vertex 9.754524e-01 -1.009607e+01 7.000000e+00
      vertex -9.754524e-01 -1.009607e+01 5.000000e+00
      vertex -9.754524e-01 -1.009607e+01 7.000000e+00
    endloop
  endfacet
  facet normal -3.826829e-01 9.238797e-01 0.000000e+00
    outer loop
      vertex -9.754524e-01 -1.009607e+01 5.000000e+00
      vertex -2.777851e+00 -1.084265e+01 5.000000e+00
      vertex -9.754524e-01 -1.009607e+01 7.000000e+00
    endloop
  endfacet
  facet normal -3.826829e-01 9.238797e-01 0.000000e+00
    outer loop
      vertex -9.754524e-01 -1.009607e+01 7.000000e+00
      vertex -2.777851e+00 -1.084265e+01 5.000000e+00
      vertex -2.777851e+00 -1.084265e+01 7.000000e+00
    endloop
  endfacet
  facet normal -7.071068e-01 7.071068e-01 0.000000e+00
    outer loop
      vertex -2.777851e+00 -1.084265e+01 5.000000e+00
      vertex -4.157349e+00 -1.222215e+01 5.000000e+00
      vertex -2.777851e+00 -1.084265e+01 7.000000e+00
    endloop
  endfacet
  facet normal -7.071068e-01 7.071068e-01 0.000000e+00
    outer loop
      vertex -2.777851e+00 -1.084265e+01 7.000000e+00
      vertex -4.157349e+00 -1.222215e+01 5.000000e+00
      vertex -4.157349e+00 -1.222215e+01 7.000000e+00
    endloop
  endfacet
  facet normal -9.238797e-01 3.826829e-01 0.000000e+00
    outer loop
      vertex -4.157349e+00 -1.222215e+01 5.000000e+00
      vertex -4.903927e+00 -1.402455e+01 5.000000e+00
      vertex -4.157349e+00 -1.222215e+01 7.000000e+00
    endloop
  endfacet
  facet normal -9.238797e-01 3.826829e-01 0.000000e+00
    outer loop
      vertex -4.157349e+00 -1.222215e+01 7.000000e+00
      vertex -4.903927e+00 -1.402455e+01 5.000000e+00
      vertex -4.903927e+00 -1.402455e+01 7.000000e+00
    endloop
  endfacet
  facet normal -1.000000e+00 0.000000e+00 0.000000e+00
    outer loop
      vertex -4.903927e+00 -1.402455e+01 5.000000e+00
      vertex -4.903927e+00 -1.597545e+01 5.000000e+00
      vertex -4.903927e+00 -1.402455e+01 7.000000e+00
    endloop
  endfacet
  facet normal -1.000000e+00 0.000000e+00 0.000000e+00
    outer loop
      vertex -4.903927e+00 -1.402455e+01 7.000000e+00
      vertex -4.903927e+00 -1.597545e+01 5.000000e+00
      vertex -4.903927e+00 -1.597545e+01 7.000000e+00
    endloop
  endfacet
  facet normal -9.238797e-01 -3.826829e-01 -0.000000e+00
    outer loop
      vertex -4.157349e+00 -1.777785e+01 5.000000e+00
      vertex -4.157349e+00 -1.777785e+01 7.000000e+00
      vertex -4.903927e+00 -1.597545e+01 5.000000e+00
    endloop
  endfacet
  facet normal -9.238797e-01 -3.826829e-01 -0.000000e+00
    outer loop
      vertex -4.903927e+00 -1.597545e+01 5.000000e+00
      vertex -4.157349e+00 -1.777785e+01 7.000000e+00
      vertex -4.903927e+00 -1.597545e+01 7.000000e+00
    endloop
  endfacet
  facet normal -7.071068e-01 -7.071068e-01 0.000000e+00
    outer loop
      vertex -4.157349e+00 -1.777785e+01 5.000000e+00
      vertex -2.777851e+00 -1.915735e+01 5.000000e+00
      vertex -2.777851e+00 -1.915735e+01 7.000000e+00
    endloop
  endfacet
  facet normal -7.071068e-01 -7.071068e-01 0.000000e+00
    outer loop
      vertex -4.157349e+00 -1.777785e+01 7.000000e+00
      vertex -4.157349e+00 -1.777785e+01 5.000000e+00
      vertex -2.777851e+00 -1.915735e+01 7.000000e+00
    endloop
  endfacet
  facet normal -3.826829e-01 -9.238797e-01 0.000000e+00
    outer loop
      vertex -2.777851e+00 -1.915735e+01 5.000000e+00
      vertex -9.754524e-01 -1.990393e+01 5.000000e+00
      vertex -9.754524e-01 -1.990393e+01 7.000000e+00
    endloop
  endfacet
  facet normal -3.826829e-01 -9.238797e-01 0.000000e+00
    outer loop
      vertex -2.777851e+00 -1.915735e+01 7.000000e+00
      vertex -2.777851e+00 -1.915735e+01 5.000000e+00
      vertex -9.754524e-01 -1.990393e+01 7.000000e+00
    endloop
  endfacet
  facet normal 0.000000e+00 -1.000000e+00 0.000000e+00
    outer loop
      vertex -9.754524e-01 -1.990393e+01 5.000000e+00
      vertex 9.754524e-01 -1.990393e+01 5.000000e+00
      vertex 9.754524e-01 -1.990393e+01 7.000000e+00
    endloop
  endfacet
  facet normal 0.000000e+00 -1.000000e+00 0.000000e+00
    outer loop
      vertex -9.754524e-01 -1.990393e+01 7.000000e+00
      vertex -9.754524e-01 -1.990393e+01 5.000000e+00
      vertex 9.754524e-01 -1.990393e+01 7.000000e+00
    endloop
  endfacet
  facet normal 3.826829e-01 -9.238797e-01 0.000000e+00
    outer loop
      vertex 9.754524e-01 -1.990393e+01 5.000000e+00
      vertex 2.777851e+00 -1.915735e+01 5.000000e+00
      vertex 2.777851e+00 -1.915735e+01 7.000000e+00
    endloop
  endfacet
  facet normal 3.826829e-01 -9.238797e-01 0.000000e+00
    outer loop
      vertex 9.754524e-01 -1.990393e+01 7.000000e+00
      vertex 9.754524e-01 -1.990393e+01 5.000000e+00
      vertex 2.777851e+00 -1.915735e+01 7.000000e+00
    endloop
  endfacet
  facet normal 7.071068e-01 -7.071068e-01 0.000000e+00
    outer loop
      vertex 2.777851e+00 -1.915735e+01 5.000000e+00
      vertex 4.157349e+00 -1.777785e+01 5.000000e+00
      vertex 4.157349e+00 -1.777785e+01 7.000000e+00
    endloop
  endfacet
  facet normal 7.071068e-01 -7.071068e-01 0.000000e+00
    outer loop
      vertex 2.777851e+00 -1.915735e+01 7.000000e+00
      vertex 2.777851e+00 -1.915735e+01 5.000000e+00
      vertex 4.157349e+00 -1.777785e+01 7.000000e+00
    endloop
  endfacet
  facet normal 9.238797e-01 -3.826829e-01 0.000000e+00
    outer loop
      vertex 4.157349e+00 -1.777785e+01 5.000000e+00
      vertex 4.903927e+00 -1.597545e+01 5.000000e+00
      vertex 4.903927e+00 -1.597545e+01 7.000000e+00
    endloop
  endfacet
  facet normal 9.238797e-01 -3.826829e-01 0.000000e+00
    outer loop
      vertex 4.157349e+00 -1.777785e+01 7.000000e+00
      vertex 4.157349e+00 -1.777785e+01 5.000000e+00
      vertex 4.903927e+00 -1.597545e+01 7.000000e+00
    endloop
  endfacet
  facet normal 0.000000e+00 0.000000e+00 1.000000e+00
    outer loop
      vertex 4.903927e+00 1.402455e+01 7.000000e+00
      vertex 4.903927e+00 1.597545e+01 7.000000e+00
      vertex 4.157349e+00 1.777785e+01 7.000000e+00
    endloop
  endfacet
  facet normal 0.000000e+00 0.000000e+00 1.000000e+00
    outer loop
      vertex 3.541824e+00 1.685889e+01 7.000000e+00
      vertex 4.903927e+00 1.402455e+01 7.000000e+00
      vertex 2.777851e+00 1.915735e+01 7.000000e+00
    endloop
  endfacet
  facet normal 0.000000e+00 0.000000e+00 1.000000e+00
    outer loop
      vertex 2.777851e+00 1.915735e+01 7.000000e+00
      vertex 4.903927e+00 1.402455e+01 7.000000e+00
      vertex 4.157349e+00 1.777785e+01 7.000000e+00
    endloop
  endfacet
  facet normal 0.000000e+00 0.000000e+00 1.000000e+00
    outer loop
      vertex 3.541824e+00 1.314111e+01 7.000000e+00
      vertex 2.272259e+00 1.170807e+01 7.000000e+00
      vertex 4.903927e+00 1.402455e+01 7.000000e+00
    endloop
  endfacet
  facet normal 0.000000e+00 0.000000e+00 1.000000e+00
    outer loop
      vertex -1.418421e+00 1.125994e+01 7.000000e+00
      vertex -2.994043e+00 1.234751e+01 7.000000e+00
      vertex -2.777851e+00 1.084265e+01 7.000000e+00
    endloop
  endfacet
  facet normal 0.000000e+00 0.000000e+00 1.000000e+00
    outer loop
      vertex 4.821472e-01 1.102917e+01 7.000000e+00
      vertex -1.418421e+00 1.125994e+01 7.000000e+00
      vertex -9.754524e-01 1.009607e+01 7.000000e+00
    endloop
  endfacet
  facet normal 0.000000e+00 0.000000e+00 1.000000e+00
    outer loop
      vertex 2.777851e+00 1.084265e+01 7.000000e+00
      vertex 4.903927e+00 1.402455e+01 7.000000e+00
      vertex 9.754524e-01 1.009607e+01 7.000000e+00
    endloop
  endfacet
  facet normal 0.000000e+00 0.000000e+00 1.000000e+00
    outer loop
      vertex 4.157349e+00 1.222215e+01 7.000000e+00
      vertex 4.903927e+00 1.402455e+01 7.000000e+00
      vertex 2.777851e+00 1.084265e+01 7.000000e+00
    endloop
  endfacet
  facet normal 0.000000e+00 0.000000e+00 1.000000e+00
    outer loop
      vertex 9.754524e-01 1.990393e+01 7.000000e+00
      vertex 3.541824e+00 1.685889e+01 7.000000e+00
      vertex 2.777851e+00 1.915735e+01 7.000000e+00
    endloop
  endfacet
  facet normal 0.000000e+00 0.000000e+00 1.000000e+00
    outer loop
      vertex -3.883766e+00 1.404274e+01 7.000000e+00
      vertex -3.883766e+00 1.595726e+01 7.000000e+00
      vertex -4.903927e+00 1.597545e+01 7.000000e+00
    endloop
  endfacet
  facet normal 0.000000e+00 0.000000e+00 1.000000e+00
    outer loop
      vertex -2.994043e+00 1.234751e+01 7.000000e+00
      vertex -4.903927e+00 1.402455e+01 7.000000e+00
      vertex -4.157349e+00 1.222215e+01 7.000000e+00
    endloop
  endfacet
  facet normal 0.000000e+00 0.000000e+00 1.000000e+00
    outer loop
      vertex -2.994043e+00 1.234751e+01 7.000000e+00
      vertex -3.883766e+00 1.404274e+01 7.000000e+00
      vertex -4.903927e+00 1.402455e+01 7.000000e+00
    endloop
  endfacet
  facet normal 0.000000e+00 0.000000e+00 1.000000e+00
    outer loop
      vertex 9.754524e-01 1.009607e+01 7.000000e+00
      vertex 2.272259e+00 1.170807e+01 7.000000e+00
      vertex -9.754524e-01 1.009607e+01 7.000000e+00
    endloop
  endfacet
  facet normal 0.000000e+00 0.000000e+00 1.000000e+00
    outer loop
      vertex 9.754524e-01 1.009607e+01 7.000000e+00
      vertex 4.903927e+00 1.402455e+01 7.000000e+00
      vertex 2.272259e+00 1.170807e+01 7.000000e+00
    endloop
  endfacet
  facet normal 0.000000e+00 0.000000e+00 1.000000e+00
    outer loop
      vertex 2.272259e+00 1.170807e+01 7.000000e+00
      vertex 4.821472e-01 1.102917e+01 7.000000e+00
      vertex -9.754524e-01 1.009607e+01 7.000000e+00
    endloop
  endfacet
  facet normal 0.000000e+00 0.000000e+00 1.000000e+00
    outer loop
      vertex -9.754524e-01 1.009607e+01 7.000000e+00
      vertex -1.418421e+00 1.125994e+01 7.000000e+00
      vertex -2.777851e+00 1.084265e+01 7.000000e+00
    endloop
  endfacet
  facet normal 0.000000e+00 0.000000e+00 1.000000e+00
    outer loop
      vertex -2.777851e+00 1.084265e+01 7.000000e+00
      vertex -2.994043e+00 1.234751e+01 7.000000e+00
      vertex -4.157349e+00 1.222215e+01 7.000000e+00
    endloop
  endfacet
  facet normal 0.000000e+00 0.000000e+00 1.000000e+00
    outer loop
      vertex -4.903927e+00 1.402455e+01 7.000000e+00
      vertex -3.883766e+00 1.404274e+01 7.000000e+00
      vertex -4.903927e+00 1.597545e+01 7.000000e+00
    endloop
  endfacet
  facet normal 0.000000e+00 0.000000e+00 1.000000e+00
    outer loop
      vertex -4.903927e+00 1.597545e+01 7.000000e+00
      vertex -3.883766e+00 1.595726e+01 7.000000e+00
      vertex -4.157349e+00 1.777785e+01 7.000000e+00
    endloop
  endfacet
  facet normal 0.000000e+00 0.000000e+00 1.000000e+00
    outer loop
      vertex -4.157349e+00 1.777785e+01 7.000000e+00
      vertex -2.994043e+00 1.765249e+01 7.000000e+00
      vertex -2.777851e+00 1.915735e+01 7.000000e+00
    endloop
  endfacet
  facet normal 0.000000e+00 0.000000e+00 1.000000e+00
    outer loop
      vertex -2.777851e+00 1.915735e+01 7.000000e+00
      vertex -1.418421e+00 1.874006e+01 7.000000e+00
      vertex -9.754524e-01 1.990393e+01 7.000000e+00
    endloop
  endfacet
  facet normal 0.000000e+00 0.000000e+00 1.000000e+00
    outer loop
      vertex -9.754524e-01 1.990393e+01 7.000000e+00
      vertex 4.821472e-01 1.897083e+01 7.000000e+00
      vertex 9.754524e-01 1.990393e+01 7.000000e+00
    endloop
  endfacet
  facet normal 0.000000e+00 0.000000e+00 1.000000e+00
    outer loop
      vertex 9.754524e-01 1.990393e+01 7.000000e+00
      vertex 2.272259e+00 1.829193e+01 7.000000e+00
      vertex 3.541824e+00 1.685889e+01 7.000000e+00
    endloop
  endfacet
  facet normal 0.000000e+00 0.000000e+00 1.000000e+00
    outer loop
      vertex -1.418421e+00 1.874006e+01 7.000000e+00
      vertex 4.821472e-01 1.897083e+01 7.000000e+00
      vertex -9.754524e-01 1.990393e+01 7.000000e+00
    endloop
  endfacet
  facet normal 0.000000e+00 0.000000e+00 1.000000e+00
    outer loop
      vertex 3.541824e+00 1.685889e+01 7.000000e+00
      vertex 4.000000e+00 1.500000e+01 7.000000e+00
      vertex 4.903927e+00 1.402455e+01 7.000000e+00
    endloop
  endfacet
  facet normal 0.000000e+00 0.000000e+00 1.000000e+00
    outer loop
      vertex -3.883766e+00 1.595726e+01 7.000000e+00
      vertex -2.994043e+00 1.765249e+01 7.000000e+00
      vertex -4.157349e+00 1.777785e+01 7.000000e+00
    endloop
  endfacet
  facet normal 0.000000e+00 0.000000e+00 1.000000e+00
    outer loop
      vertex -2.994043e+00 1.765249e+01 7.000000e+00
      vertex -1.418421e+00 1.874006e+01 7.000000e+00
      vertex -2.777851e+00 1.915735e+01 7.000000e+00
    endloop
  endfacet
  facet normal 0.000000e+00 0.000000e+00 1.000000e+00
    outer loop
      vertex 4.821472e-01 1.897083e+01 7.000000e+00
      vertex 2.272259e+00 1.829193e+01 7.000000e+00
      vertex 9.754524e-01 1.990393e+01 7.000000e+00
    endloop
  endfacet
  facet normal 0.000000e+00 0.000000e+00 1.000000e+00
    outer loop
      vertex 4.000000e+00 1.500000e+01 7.000000e+00
      vertex 3.541824e+00 1.314111e+01 7.000000e+00
      vertex 4.903927e+00 1.402455e+01 7.000000e+00
    endloop
  endfacet
  facet normal 0.000000e+00 0.000000e+00 1.000000e+00
    outer loop
      vertex 4.903927e+00 -1.597545e+01 7.000000e+00
      vertex 4.903927e+00 -1.402455e+01 7.000000e+00
      vertex 4.157349e+00 -1.222215e+01 7.000000e+00
    endloop
  endfacet
  facet normal 0.000000e+00 0.000000e+00 1.000000e+00
    outer loop
      vertex 3.541824e+00 -1.314111e+01 7.000000e+00
      vertex 4.903927e+00 -1.597545e+01 7.000000e+00
      vertex 2.777851e+00 -1.084265e+01 7.000000e+00
    endloop
  endfacet
  facet normal 0.000000e+00 0.000000e+00 1.000000e+00
    outer loop
      vertex 2.777851e+00 -1.084265e+01 7.000000e+00
      vertex 4.903927e+00 -1.597545e+01 7.000000e+00
      vertex 4.157349e+00 -1.222215e+01 7.000000e+00
    endloop
  endfacet
  facet normal 0.000000e+00 0.000000e+00 1.000000e+00
    outer loop
      vertex 3.541824e+00 -1.685889e+01 7.000000e+00
      vertex 2.272259e+00 -1.829193e+01 7.000000e+00
      vertex 4.903927e+00 -1.597545e+01 7.000000e+00
    endloop
  endfacet
  facet normal 0.000000e+00 0.000000e+00 1.000000e+00
    outer loop
      vertex -1.418421e+00 -1.874006e+01 7.000000e+00
      vertex -2.994043e+00 -1.765249e+01 7.000000e+00
      vertex -2.777851e+00 -1.915735e+01 7.000000e+00
    endloop
  endfacet
  facet normal 0.000000e+00 0.000000e+00 1.000000e+00
    outer loop
      vertex 4.821472e-01 -1.897083e+01 7.000000e+00
      vertex -1.418421e+00 -1.874006e+01 7.000000e+00
      vertex -9.754524e-01 -1.990393e+01 7.000000e+00
    endloop
  endfacet
  facet normal 0.000000e+00 0.000000e+00 1.000000e+00
    outer loop
      vertex 2.777851e+00 -1.915735e+01 7.000000e+00
      vertex 4.903927e+00 -1.597545e+01 7.000000e+00
      vertex 9.754524e-01 -1.990393e+01 7.000000e+00
    endloop
  endfacet
  facet normal 0.000000e+00 0.000000e+00 1.000000e+00
    outer loop
      vertex 4.157349e+00 -1.777785e+01 7.000000e+00
      vertex 4.903927e+00 -1.597545e+01 7.000000e+00
      vertex 2.777851e+00 -1.915735e+01 7.000000e+00
    endloop
  endfacet
  facet normal 0.000000e+00 0.000000e+00 1.000000e+00
    outer loop
      vertex 9.754524e-01 -1.009607e+01 7.000000e+00
      vertex 3.541824e+00 -1.314111e+01 7.000000e+00
      vertex 2.777851e+00 -1.084265e+01 7.000000e+00
    endloop
  endfacet
  facet normal 0.000000e+00 0.000000e+00 1.000000e+00
    outer loop
      vertex -3.883766e+00 -1.595726e+01 7.000000e+00
      vertex -3.883766e+00 -1.404274e+01 7.000000e+00
      vertex -4.903927e+00 -1.402455e+01 7.000000e+00
    endloop
  endfacet
  facet normal 0.000000e+00 0.000000e+00 1.000000e+00
    outer loop
      vertex -2.994043e+00 -1.765249e+01 7.000000e+00
      vertex -4.903927e+00 -1.597545e+01 7.000000e+00
      vertex -4.157349e+00 -1.777785e+01 7.000000e+00
    endloop
  endfacet
  facet normal 0.000000e+00 0.000000e+00 1.000000e+00
    outer loop
      vertex -2.994043e+00 -1.765249e+01 7.000000e+00
      vertex -3.883766e+00 -1.595726e+01 7.000000e+00
      vertex -4.903927e+00 -1.597545e+01 7.000000e+00
    endloop
  endfacet
  facet normal 0.000000e+00 0.000000e+00 1.000000e+00
    outer loop
      vertex 9.754524e-01 -1.990393e+01 7.000000e+00
      vertex 2.272259e+00 -1.829193e+01 7.000000e+00
      vertex -9.754524e-01 -1.990393e+01 7.000000e+00
    endloop
  endfacet
  facet normal 0.000000e+00 0.000000e+00 1.000000e+00
    outer loop
      vertex 9.754524e-01 -1.990393e+01 7.000000e+00
      vertex 4.903927e+00 -1.597545e+01 7.000000e+00
      vertex 2.272259e+00 -1.829193e+01 7.000000e+00
    endloop
  endfacet
  facet normal 0.000000e+00 0.000000e+00 1.000000e+00
    outer loop
      vertex 2.272259e+00 -1.829193e+01 7.000000e+00
      vertex 4.821472e-01 -1.897083e+01 7.000000e+00
      vertex -9.754524e-01 -1.990393e+01 7.000000e+00
    endloop
  endfacet
  facet normal 0.000000e+00 0.000000e+00 1.000000e+00
    outer loop
      vertex -9.754524e-01 -1.990393e+01 7.000000e+00
      vertex -1.418421e+00 -1.874006e+01 7.000000e+00
      vertex -2.777851e+00 -1.915735e+01 7.000000e+00
    endloop
  endfacet
  facet normal 0.000000e+00 0.000000e+00 1.000000e+00
    outer loop
      vertex -2.777851e+00 -1.915735e+01 7.000000e+00
      vertex -2.994043e+00 -1.765249e+01 7.000000e+00
      vertex -4.157349e+00 -1.777785e+01 7.000000e+00
    endloop
  endfacet
  facet normal 0.000000e+00 0.000000e+00 1.000000e+00
    outer loop
      vertex -4.903927e+00 -1.597545e+01 7.000000e+00
      vertex -3.883766e+00 -1.595726e+01 7.000000e+00
      vertex -4.903927e+00 -1.402455e+01 7.000000e+00
    endloop
  endfacet
  facet normal 0.000000e+00 0.000000e+00 1.000000e+00
    outer loop
      vertex -4.903927e+00 -1.402455e+01 7.000000e+00
      vertex -3.883766e+00 -1.404274e+01 7.000000e+00
      vertex -4.157349e+00 -1.222215e+01 7.000000e+00
    endloop
  endfacet
  facet normal 0.000000e+00 0.000000e+00 1.000000e+00
    outer loop
      vertex -4.157349e+00 -1.222215e+01 7.000000e+00
      vertex -2.994043e+00 -1.234751e+01 7.000000e+00
      vertex -2.777851e+00 -1.084265e+01 7.000000e+00
    endloop
  endfacet
  facet normal 0.000000e+00 0.000000e+00 1.000000e+00
    outer loop
      vertex -2.777851e+00 -1.084265e+01 7.000000e+00
      vertex -1.418421e+00 -1.125994e+01 7.000000e+00
      vertex -9.754524e-01 -1.009607e+01 7.000000e+00
    endloop
  endfacet
  facet normal 0.000000e+00 0.000000e+00 1.000000e+00
    outer loop
      vertex -9.754524e-01 -1.009607e+01 7.000000e+00
      vertex 4.821472e-01 -1.102917e+01 7.000000e+00
      vertex 9.754524e-01 -1.009607e+01 7.000000e+00
    endloop
  endfacet
  facet normal 0.000000e+00 0.000000e+00 1.000000e+00
    outer loop
      vertex 9.754524e-01 -1.009607e+01 7.000000e+00
      vertex 2.272259e+00 -1.170807e+01 7.000000e+00
      vertex 3.541824e+00 -1.314111e+01 7.000000e+00
    endloop
  endfacet
  facet normal 0.000000e+00 0.000000e+00 1.000000e+00
    outer loop
      vertex -1.418421e+00 -1.125994e+01 7.000000e+00
      vertex 4.821472e-01 -1.102917e+01 7.000000e+00
      vertex -9.754524e-01 -1.009607e+01 7.000000e+00
    endloop
  endfacet
  facet normal 0.000000e+00 0.000000e+00 1.000000e+00
    outer loop
      vertex 3.541824e+00 -1.314111e+01 7.000000e+00
      vertex 4.000000e+00 -1.500000e+01 7.000000e+00
      vertex 4.903927e+00 -1.597545e+01 7.000000e+00
    endloop
  endfacet
  facet normal 0.000000e+00 0.000000e+00 1.000000e+00
    outer loop
      vertex -3.883766e+00 -1.404274e+01 7.000000e+00
      vertex -2.994043e+00 -1.234751e+01 7.000000e+00
      vertex -4.157349e+00 -1.222215e+01 7.000000e+00
    endloop
  endfacet
  facet normal 0.000000e+00 0.000000e+00 1.000000e+00
    outer loop
      vertex -2.994043e+00 -1.234751e+01 7.000000e+00
      vertex -1.418421e+00 -1.125994e+01 7.000000e+00
      vertex -2.777851e+00 -1.084265e+01 7.000000e+00
    endloop
  endfacet
  facet normal 0.000000e+00 0.000000e+00 1.000000e+00
    outer loop
      vertex 4.821472e-01 -1.102917e+01 7.000000e+00
      vertex 2.272259e+00 -1.170807e+01 7.000000e+00
      vertex 9.754524e-01 -1.009607e+01 7.000000e+00
    endloop
  endfacet
  facet normal 0.000000e+00 0.000000e+00 1.000000e+00
    outer loop
      vertex 4.000000e+00 -1.500000e+01 7.000000e+00
      vertex 3.541824e+00 -1.685889e+01 7.000000e+00
      vertex 4.903927e+00 -1.597545e+01 7.000000e+00
    endloop
  endfacet
endsolid Default
