solid Default
  facet normal 1.000000e+00 0.000000e+00 0.000000e+00
    outer loop
      vertex 6.000000e+00 -2.000000e+01 7.105427e-15
      vertex 6.000000e+00 2.000000e+01 0.000000e+00
      vertex 6.000000e+00 2.000000e+01 1.900000e+01
    endloop
  endfacet
  facet normal 1.000000e+00 0.000000e+00 0.000000e+00
    outer loop
      vertex 6.000000e+00 -2.000000e+01 1.900000e+01
      vertex 6.000000e+00 -2.000000e+01 7.105427e-15
      vertex 6.000000e+00 2.000000e+01 1.900000e+01
    endloop
  endfacet
  facet normal 0.000000e+00 1.000000e+00 -1.224647e-16
    outer loop
      vertex -2.346516e-01 2.000000e+01 3.018467e+00
      vertex 6.000000e+00 2.000000e+01 0.000000e+00
      vertex -6.000000e+00 2.000000e+01 0.000000e+00
    endloop
  endfacet
  facet normal 0.000000e+00 1.000000e+00 -1.224647e-16
    outer loop
      vertex -6.000000e+00 2.000000e+01 1.900000e+01
      vertex 6.000000e+00 2.000000e+01 1.900000e+01
      vertex -6.000000e+00 2.000000e+01 0.000000e+00
    endloop
  endfacet
  facet normal 0.000000e+00 1.000000e+00 -1.224647e-16
    outer loop
      vertex 6.000000e+00 2.000000e+01 1.900000e+01
      vertex 6.000000e+00 2.000000e+01 0.000000e+00
      vertex 1.481533e+00 2.000000e+01 4.265348e+00
    endloop
  endfacet
  facet normal 0.000000e+00 1.000000e+00 -1.224647e-16
    outer loop
      vertex -6.809864e-01 2.000000e+01 3.163490e+00
      vertex -2.346516e-01 2.000000e+01 3.018467e+00
      vertex -6.000000e+00 2.000000e+01 0.000000e+00
    endloop
  endfacet
  facet normal 0.000000e+00 1.000000e+00 -1.224647e-16
    outer loop
      vertex 6.000000e+00 2.000000e+01 1.900000e+01
      vertex 1.481533e+00 2.000000e+01 4.265348e+00
      vertex 1.481533e+00 2.000000e+01 4.734652e+00
    endloop
  endfacet
  facet normal 0.000000e+00 1.000000e+00 -1.224647e-16
    outer loop
      vertex -1.060659e+00 2.000000e+01 3.439341e+00
      vertex -6.809864e-01 2.000000e+01 3.163490e+00
      vertex -6.000000e+00 2.000000e+01 0.000000e+00
    endloop
  endfacet
  facet normal 0.000000e+00 1.000000e+00 -1.224647e-16
    outer loop
      vertex 6.000000e+00 2.000000e+01 1.900000e+01
      vertex 1.481533e+00 2.000000e+01 4.734652e+00
      vertex 1.336510e+00 2.000000e+01 5.180986e+00
    endloop
  endfacet
  facet normal 0.000000e+00 1.000000e+00 -1.224647e-16
    outer loop
      vertex 6.000000e+00 2.000000e+01 1.900000e+01
      vertex 1.336510e+00 2.000000e+01 5.180986e+00
      vertex 1.060659e+00 2.000000e+01 5.560659e+00
    endloop
  endfacet
  facet normal 0.000000e+00 1.000000e+00 -1.224647e-16
    outer loop
      vertex 6.000000e+00 2.000000e+01 1.900000e+01
      vertex 1.060659e+00 2.000000e+01 5.560659e+00
      vertex 6.809864e-01 2.000000e+01 5.836510e+00
    endloop
  endfacet
  facet normal 0.000000e+00 1.000000e+00 -1.224647e-16
    outer loop
      vertex -1.481533e+00 2.000000e+01 4.265348e+00
      vertex -1.336510e+00 2.000000e+01 3.819014e+00
      vertex -6.000000e+00 2.000000e+01 0.000000e+00
    endloop
  endfacet
  facet normal 0.000000e+00 1.000000e+00 -1.224647e-16
    outer loop
      vertex 6.000000e+00 2.000000e+01 1.900000e+01
      vertex 6.809864e-01 2.000000e+01 5.836510e+00
      vertex 2.346516e-01 2.000000e+01 5.981533e+00
    endloop
  endfacet
  facet normal 0.000000e+00 1.000000e+00 -1.224647e-16
    outer loop
      vertex -1.336510e+00 2.000000e+01 3.819014e+00
      vertex -1.060659e+00 2.000000e+01 3.439341e+00
      vertex -6.000000e+00 2.000000e+01 0.000000e+00
    endloop
  endfacet
  facet normal 0.000000e+00 1.000000e+00 -1.224647e-16
    outer loop
      vertex 6.000000e+00 2.000000e+01 1.900000e+01
      vertex 2.346516e-01 2.000000e+01 5.981533e+00
      vertex -2.346516e-01 2.000000e+01 5.981533e+00
    endloop
  endfacet
  facet normal 0.000000e+00 1.000000e+00 -1.224647e-16
    outer loop
      vertex 6.000000e+00 2.000000e+01 1.900000e+01
      vertex -2.346516e-01 2.000000e+01 5.981533e+00
      vertex -6.809864e-01 2.000000e+01 5.836510e+00
    endloop
  endfacet
  facet normal 0.000000e+00 1.000000e+00 -1.224647e-16
    outer loop
      vertex 6.000000e+00 2.000000e+01 1.900000e+01
      vertex -1.060659e+00 2.000000e+01 5.560659e+00
      vertex -6.000000e+00 2.000000e+01 0.000000e+00
    endloop
  endfacet
  facet normal 0.000000e+00 1.000000e+00 -1.224647e-16
    outer loop
      vertex 6.000000e+00 2.000000e+01 1.900000e+01
      vertex -6.809864e-01 2.000000e+01 5.836510e+00
      vertex -1.060659e+00 2.000000e+01 5.560659e+00
    endloop
  endfacet
  facet normal 0.000000e+00 1.000000e+00 -1.224647e-16
    outer loop
      vertex -1.060659e+00 2.000000e+01 5.560659e+00
      vertex -1.336510e+00 2.000000e+01 5.180986e+00
      vertex -6.000000e+00 2.000000e+01 0.000000e+00
    endloop
  endfacet
  facet normal 0.000000e+00 1.000000e+00 -1.224647e-16
    outer loop
      vertex 2.346516e-01 2.000000e+01 3.018467e+00
      vertex 6.000000e+00 2.000000e+01 0.000000e+00
      vertex -2.346516e-01 2.000000e+01 3.018467e+00
    endloop
  endfacet
  facet normal 0.000000e+00 1.000000e+00 -1.224647e-16
    outer loop
      vertex 6.809864e-01 2.000000e+01 3.163490e+00
      vertex 6.000000e+00 2.000000e+01 0.000000e+00
      vertex 2.346516e-01 2.000000e+01 3.018467e+00
    endloop
  endfacet
  facet normal 0.000000e+00 1.000000e+00 -1.224647e-16
    outer loop
      vertex 1.060659e+00 2.000000e+01 3.439341e+00
      vertex 6.000000e+00 2.000000e+01 0.000000e+00
      vertex 6.809864e-01 2.000000e+01 3.163490e+00
    endloop
  endfacet
  facet normal 0.000000e+00 1.000000e+00 -1.224647e-16
    outer loop
      vertex 1.336510e+00 2.000000e+01 3.819014e+00
      vertex 6.000000e+00 2.000000e+01 0.000000e+00
      vertex 1.060659e+00 2.000000e+01 3.439341e+00
    endloop
  endfacet
  facet normal 0.000000e+00 1.000000e+00 -1.224647e-16
    outer loop
      vertex 1.481533e+00 2.000000e+01 4.265348e+00
      vertex 6.000000e+00 2.000000e+01 0.000000e+00
      vertex 1.336510e+00 2.000000e+01 3.819014e+00
    endloop
  endfacet
  facet normal 0.000000e+00 1.000000e+00 -1.224647e-16
    outer loop
      vertex -1.336510e+00 2.000000e+01 5.180986e+00
      vertex -1.481533e+00 2.000000e+01 4.734652e+00
      vertex -6.000000e+00 2.000000e+01 0.000000e+00
    endloop
  endfacet
  facet normal 0.000000e+00 1.000000e+00 -1.224647e-16
    outer loop
      vertex -1.481533e+00 2.000000e+01 4.734652e+00
      vertex -1.481533e+00 2.000000e+01 4.265348e+00
      vertex -6.000000e+00 2.000000e+01 0.000000e+00
    endloop
  endfacet
  facet normal 0.000000e+00 -1.224647e-16 -1.000000e+00
    outer loop
      vertex -6.000000e+00 2.000000e+01 0.000000e+00
      vertex 6.000000e+00 2.000000e+01 0.000000e+00
      vertex 6.000000e+00 -2.000000e+01 7.105427e-15
    endloop
  endfacet
  facet normal 0.000000e+00 -1.224647e-16 -1.000000e+00
    outer loop
      vertex -6.000000e+00 -2.000000e+01 7.105427e-15
      vertex -6.000000e+00 2.000000e+01 0.000000e+00
      vertex 6.000000e+00 -2.000000e+01 7.105427e-15
    endloop
  endfacet
  facet normal 0.000000e+00 -1.000000e+00 1.224647e-16
    outer loop
      vertex -1.336510e+00 -2.000000e+01 5.180986e+00
      vertex 6.000000e+00 -2.000000e+01 1.900000e+01
      vertex -6.000000e+00 -2.000000e+01 7.105427e-15
    endloop
  endfacet
  facet normal 0.000000e+00 -1.000000e+00 1.224647e-16
    outer loop
      vertex -6.000000e+00 -2.000000e+01 7.105427e-15
      vertex 6.000000e+00 -2.000000e+01 1.900000e+01
      vertex -6.000000e+00 -2.000000e+01 1.900000e+01
    endloop
  endfacet
  facet normal 0.000000e+00 -1.000000e+00 1.224647e-16
    outer loop
      vertex 6.000000e+00 -2.000000e+01 7.105427e-15
      vertex 6.000000e+00 -2.000000e+01 1.900000e+01
      vertex 1.481533e+00 -2.000000e+01 4.734652e+00
    endloop
  endfacet
  facet normal 0.000000e+00 -1.000000e+00 1.224647e-16
    outer loop
      vertex 6.000000e+00 -2.000000e+01 7.105427e-15
      vertex 1.481533e+00 -2.000000e+01 4.734652e+00
      vertex 1.481533e+00 -2.000000e+01 4.265348e+00
    endloop
  endfacet
  facet normal 0.000000e+00 -1.000000e+00 1.224647e-16
    outer loop
      vertex 6.000000e+00 -2.000000e+01 7.105427e-15
      vertex 1.481533e+00 -2.000000e+01 4.265348e+00
      vertex 1.336510e+00 -2.000000e+01 3.819014e+00
    endloop
  endfacet
  facet normal 0.000000e+00 -1.000000e+00 1.224647e-16
    outer loop
      vertex 6.000000e+00 -2.000000e+01 7.105427e-15
      vertex 1.336510e+00 -2.000000e+01 3.819014e+00
      vertex 1.060659e+00 -2.000000e+01 3.439341e+00
    endloop
  endfacet
  facet normal 0.000000e+00 -1.000000e+00 1.224647e-16
    outer loop
      vertex 6.000000e+00 -2.000000e+01 7.105427e-15
      vertex 1.060659e+00 -2.000000e+01 3.439341e+00
      vertex 6.809864e-01 -2.000000e+01 3.163490e+00
    endloop
  endfacet
  facet normal 0.000000e+00 -1.000000e+00 1.224647e-16
    outer loop
      vertex 6.000000e+00 -2.000000e+01 7.105427e-15
      vertex 6.809864e-01 -2.000000e+01 3.163490e+00
      vertex -6.000000e+00 -2.000000e+01 7.105427e-15
    endloop
  endfacet
  facet normal 0.000000e+00 -1.000000e+00 1.224647e-16
    outer loop
      vertex 6.809864e-01 -2.000000e+01 3.163490e+00
      vertex 2.346516e-01 -2.000000e+01 3.018467e+00
      vertex -6.000000e+00 -2.000000e+01 7.105427e-15
    endloop
  endfacet
  facet normal 0.000000e+00 -1.000000e+00 1.224647e-16
    outer loop
      vertex -6.809864e-01 -2.000000e+01 3.163490e+00
      vertex -6.000000e+00 -2.000000e+01 7.105427e-15
      vertex -2.346516e-01 -2.000000e+01 3.018467e+00
    endloop
  endfacet
  facet normal 0.000000e+00 -1.000000e+00 1.224647e-16
    outer loop
      vertex -1.060659e+00 -2.000000e+01 3.439341e+00
      vertex -6.000000e+00 -2.000000e+01 7.105427e-15
      vertex -6.809864e-01 -2.000000e+01 3.163490e+00
    endloop
  endfacet
  facet normal 0.000000e+00 -1.000000e+00 1.224647e-16
    outer loop
      vertex -6.809864e-01 -2.000000e+01 5.836510e+00
      vertex 6.000000e+00 -2.000000e+01 1.900000e+01
      vertex -1.060659e+00 -2.000000e+01 5.560659e+00
    endloop
  endfacet
  facet normal 0.000000e+00 -1.000000e+00 1.224647e-16
    outer loop
      vertex 2.346516e-01 -2.000000e+01 5.981533e+00
      vertex 6.000000e+00 -2.000000e+01 1.900000e+01
      vertex -2.346516e-01 -2.000000e+01 5.981533e+00
    endloop
  endfacet
  facet normal 0.000000e+00 -1.000000e+00 1.224647e-16
    outer loop
      vertex -1.060659e+00 -2.000000e+01 3.439341e+00
      vertex -1.336510e+00 -2.000000e+01 3.819014e+00
      vertex -6.000000e+00 -2.000000e+01 7.105427e-15
    endloop
  endfacet
  facet normal 0.000000e+00 -1.000000e+00 1.224647e-16
    outer loop
      vertex -2.346516e-01 -2.000000e+01 5.981533e+00
      vertex 6.000000e+00 -2.000000e+01 1.900000e+01
      vertex -6.809864e-01 -2.000000e+01 5.836510e+00
    endloop
  endfacet
  facet normal 0.000000e+00 -1.000000e+00 1.224647e-16
    outer loop
      vertex -1.336510e+00 -2.000000e+01 3.819014e+00
      vertex -1.481533e+00 -2.000000e+01 4.265348e+00
      vertex -6.000000e+00 -2.000000e+01 7.105427e-15
    endloop
  endfacet
  facet normal 0.000000e+00 -1.000000e+00 1.224647e-16
    outer loop
      vertex -1.481533e+00 -2.000000e+01 4.265348e+00
      vertex -1.481533e+00 -2.000000e+01 4.734652e+00
      vertex -6.000000e+00 -2.000000e+01 7.105427e-15
    endloop
  endfacet
  facet normal 0.000000e+00 -1.000000e+00 1.224647e-16
    outer loop
      vertex -1.060659e+00 -2.000000e+01 5.560659e+00
      vertex 6.000000e+00 -2.000000e+01 1.900000e+01
      vertex -1.336510e+00 -2.000000e+01 5.180986e+00
    endloop
  endfacet
  facet normal 0.000000e+00 -1.000000e+00 1.224647e-16
    outer loop
      vertex -1.481533e+00 -2.000000e+01 4.734652e+00
      vertex -1.336510e+00 -2.000000e+01 5.180986e+00
      vertex -6.000000e+00 -2.000000e+01 7.105427e-15
    endloop
  endfacet
  facet normal 0.000000e+00 -1.000000e+00 1.224647e-16
    outer loop
      vertex 6.809864e-01 -2.000000e+01 5.836510e+00
      vertex 6.000000e+00 -2.000000e+01 1.900000e+01
      vertex 2.346516e-01 -2.000000e+01 5.981533e+00
    endloop
  endfacet
  facet normal 0.000000e+00 -1.000000e+00 1.224647e-16
    outer loop
      vertex 1.060659e+00 -2.000000e+01 5.560659e+00
      vertex 6.000000e+00 -2.000000e+01 1.900000e+01
      vertex 6.809864e-01 -2.000000e+01 5.836510e+00
    endloop
  endfacet
  facet normal 0.000000e+00 -1.000000e+00 1.224647e-16
    outer loop
      vertex 1.336510e+00 -2.000000e+01 5.180986e+00
      vertex 6.000000e+00 -2.000000e+01 1.900000e+01
      vertex 1.060659e+00 -2.000000e+01 5.560659e+00
    endloop
  endfacet
  facet normal 0.000000e+00 -1.000000e+00 1.224647e-16
    outer loop
      vertex 1.481533e+00 -2.000000e+01 4.734652e+00
      vertex 6.000000e+00 -2.000000e+01 1.900000e+01
      vertex 1.336510e+00 -2.000000e+01 5.180986e+00
    endloop
  endfacet
  facet normal 0.000000e+00 -1.000000e+00 1.224647e-16
    outer loop
      vertex -2.346516e-01 -2.000000e+01 3.018467e+00
      vertex -6.000000e+00 -2.000000e+01 7.105427e-15
      vertex 2.346516e-01 -2.000000e+01 3.018467e+00
    endloop
  endfacet
  facet normal 0.000000e+00 1.224647e-16 1.000000e+00
    outer loop
      vertex -4.903927e+00 1.402455e+01 1.900000e+01
      vertex -6.000000e+00 2.000000e+01 1.900000e+01
      vertex -6.000000e+00 -2.000000e+01 1.900000e+01
    endloop
  endfacet
  facet normal 0.000000e+00 1.224647e-16 1.000000e+00
    outer loop
      vertex 2.777851e+00 1.915735e+01 1.900000e+01
      vertex 6.000000e+00 2.000000e+01 1.900000e+01
      vertex 9.754524e-01 1.990393e+01 1.900000e+01
    endloop
  endfacet
  facet normal 0.000000e+00 1.224647e-16 1.000000e+00
    outer loop
      vertex 6.000000e+00 2.000000e+01 1.900000e+01
      vertex 4.903927e+00 1.597545e+01 1.900000e+01
      vertex 6.000000e+00 -2.000000e+01 1.900000e+01
    endloop
  endfacet
  facet normal 0.000000e+00 1.224647e-16 1.000000e+00
    outer loop
      vertex 4.903927e+00 1.597545e+01 1.900000e+01
      vertex 4.903927e+00 1.402455e+01 1.900000e+01
      vertex 6.000000e+00 -2.000000e+01 1.900000e+01
    endloop
  endfacet
  facet normal 0.000000e+00 1.224647e-16 1.000000e+00
    outer loop
      vertex 4.903927e+00 1.402455e+01 1.900000e+01
      vertex 4.157349e+00 1.222215e+01 1.900000e+01
      vertex 6.000000e+00 -2.000000e+01 1.900000e+01
    endloop
  endfacet
  facet normal 0.000000e+00 1.224647e-16 1.000000e+00
    outer loop
      vertex 4.157349e+00 1.222215e+01 1.900000e+01
      vertex 2.777851e+00 1.084265e+01 1.900000e+01
      vertex 6.000000e+00 -2.000000e+01 1.900000e+01
    endloop
  endfacet
  facet normal 0.000000e+00 1.224647e-16 1.000000e+00
    outer loop
      vertex -2.777851e+00 1.915735e+01 1.900000e+01
      vertex -6.000000e+00 2.000000e+01 1.900000e+01
      vertex -4.157349e+00 1.777785e+01 1.900000e+01
    endloop
  endfacet
  facet normal 0.000000e+00 1.224647e-16 1.000000e+00
    outer loop
      vertex 2.777851e+00 1.084265e+01 1.900000e+01
      vertex 9.754524e-01 1.009607e+01 1.900000e+01
      vertex 6.000000e+00 -2.000000e+01 1.900000e+01
    endloop
  endfacet
  facet normal 0.000000e+00 1.224647e-16 1.000000e+00
    outer loop
      vertex 4.903927e+00 -1.597545e+01 1.900000e+01
      vertex 6.000000e+00 -2.000000e+01 1.900000e+01
      vertex 4.903927e+00 -1.402455e+01 1.900000e+01
    endloop
  endfacet
  facet normal 0.000000e+00 1.224647e-16 1.000000e+00
    outer loop
      vertex -4.157349e+00 1.777785e+01 1.900000e+01
      vertex -6.000000e+00 2.000000e+01 1.900000e+01
      vertex -4.903927e+00 1.597545e+01 1.900000e+01
    endloop
  endfacet
  facet normal 0.000000e+00 1.224647e-16 1.000000e+00
    outer loop
      vertex -4.903927e+00 -1.402455e+01 1.900000e+01
      vertex -4.157349e+00 1.222215e+01 1.900000e+01
      vertex -6.000000e+00 -2.000000e+01 1.900000e+01
    endloop
  endfacet
  facet normal 0.000000e+00 1.224647e-16 1.000000e+00
    outer loop
      vertex -4.157349e+00 1.222215e+01 1.900000e+01
      vertex -4.903927e+00 1.402455e+01 1.900000e+01
      vertex -6.000000e+00 -2.000000e+01 1.900000e+01
    endloop
  endfacet
  facet normal 0.000000e+00 1.224647e-16 1.000000e+00
    outer loop
      vertex -4.903927e+00 1.597545e+01 1.900000e+01
      vertex -6.000000e+00 2.000000e+01 1.900000e+01
      vertex -4.903927e+00 1.402455e+01 1.900000e+01
    endloop
  endfacet
  facet normal 0.000000e+00 1.224647e-16 1.000000e+00
    outer loop
      vertex -9.754524e-01 1.990393e+01 1.900000e+01
      vertex -6.000000e+00 2.000000e+01 1.900000e+01
      vertex -2.777851e+00 1.915735e+01 1.900000e+01
    endloop
  endfacet
  facet normal 0.000000e+00 1.224647e-16 1.000000e+00
    outer loop
      vertex 6.000000e+00 2.000000e+01 1.900000e+01
      vertex -6.000000e+00 2.000000e+01 1.900000e+01
      vertex -9.754524e-01 1.990393e+01 1.900000e+01
    endloop
  endfacet
  facet normal 0.000000e+00 1.224647e-16 1.000000e+00
    outer loop
      vertex 6.000000e+00 2.000000e+01 1.900000e+01
      vertex -9.754524e-01 1.990393e+01 1.900000e+01
      vertex 9.754524e-01 1.990393e+01 1.900000e+01
    endloop
  endfacet
  facet normal 0.000000e+00 1.224647e-16 1.000000e+00
    outer loop
      vertex 4.903927e+00 -1.402455e+01 1.900000e+01
      vertex -9.754524e-01 1.009607e+01 1.900000e+01
      vertex 4.157349e+00 -1.222215e+01 1.900000e+01
    endloop
  endfacet
  facet normal 0.000000e+00 1.224647e-16 1.000000e+00
    outer loop
      vertex 6.000000e+00 2.000000e+01 1.900000e+01
      vertex 2.777851e+00 1.915735e+01 1.900000e+01
      vertex 4.157349e+00 1.777785e+01 1.900000e+01
    endloop
  endfacet
  facet normal 0.000000e+00 1.224647e-16 1.000000e+00
    outer loop
      vertex 6.000000e+00 2.000000e+01 1.900000e+01
      vertex 4.157349e+00 1.777785e+01 1.900000e+01
      vertex 4.903927e+00 1.597545e+01 1.900000e+01
    endloop
  endfacet
  facet normal 0.000000e+00 1.224647e-16 1.000000e+00
    outer loop
      vertex 9.754524e-01 1.009607e+01 1.900000e+01
      vertex -9.754524e-01 1.009607e+01 1.900000e+01
      vertex 4.903927e+00 -1.402455e+01 1.900000e+01
    endloop
  endfacet
  facet normal 0.000000e+00 1.224647e-16 1.000000e+00
    outer loop
      vertex 9.754524e-01 1.009607e+01 1.900000e+01
      vertex 4.903927e+00 -1.402455e+01 1.900000e+01
      vertex 6.000000e+00 -2.000000e+01 1.900000e+01
    endloop
  endfacet
  facet normal 0.000000e+00 1.224647e-16 1.000000e+00
    outer loop
      vertex 4.157349e+00 -1.777785e+01 1.900000e+01
      vertex 6.000000e+00 -2.000000e+01 1.900000e+01
      vertex 4.903927e+00 -1.597545e+01 1.900000e+01
    endloop
  endfacet
  facet normal 0.000000e+00 1.224647e-16 1.000000e+00
    outer loop
      vertex 4.157349e+00 -1.222215e+01 1.900000e+01
      vertex -9.754524e-01 1.009607e+01 1.900000e+01
      vertex -2.777851e+00 1.084265e+01 1.900000e+01
    endloop
  endfacet
  facet normal 0.000000e+00 1.224647e-16 1.000000e+00
    outer loop
      vertex 6.000000e+00 -2.000000e+01 1.900000e+01
      vertex 4.157349e+00 -1.777785e+01 1.900000e+01
      vertex 2.777851e+00 -1.915735e+01 1.900000e+01
    endloop
  endfacet
  facet normal 0.000000e+00 1.224647e-16 1.000000e+00
    outer loop
      vertex 4.157349e+00 -1.222215e+01 1.900000e+01
      vertex -4.157349e+00 1.222215e+01 1.900000e+01
      vertex 2.777851e+00 -1.084265e+01 1.900000e+01
    endloop
  endfacet
  facet normal 0.000000e+00 1.224647e-16 1.000000e+00
    outer loop
      vertex 6.000000e+00 -2.000000e+01 1.900000e+01
      vertex 2.777851e+00 -1.915735e+01 1.900000e+01
      vertex 9.754524e-01 -1.990393e+01 1.900000e+01
    endloop
  endfacet
  facet normal 0.000000e+00 1.224647e-16 1.000000e+00
    outer loop
      vertex 6.000000e+00 -2.000000e+01 1.900000e+01
      vertex 9.754524e-01 -1.990393e+01 1.900000e+01
      vertex -6.000000e+00 -2.000000e+01 1.900000e+01
    endloop
  endfacet
  facet normal 0.000000e+00 1.224647e-16 1.000000e+00
    outer loop
      vertex 9.754524e-01 -1.990393e+01 1.900000e+01
      vertex -9.754524e-01 -1.990393e+01 1.900000e+01
      vertex -6.000000e+00 -2.000000e+01 1.900000e+01
    endloop
  endfacet
  facet normal 0.000000e+00 1.224647e-16 1.000000e+00
    outer loop
      vertex 2.777851e+00 -1.084265e+01 1.900000e+01
      vertex -4.157349e+00 1.222215e+01 1.900000e+01
      vertex 9.754524e-01 -1.009607e+01 1.900000e+01
    endloop
  endfacet
  facet normal 0.000000e+00 1.224647e-16 1.000000e+00
    outer loop
      vertex -4.157349e+00 -1.222215e+01 1.900000e+01
      vertex -4.157349e+00 1.222215e+01 1.900000e+01
      vertex -4.903927e+00 -1.402455e+01 1.900000e+01
    endloop
  endfacet
  facet normal 0.000000e+00 1.224647e-16 1.000000e+00
    outer loop
      vertex -2.777851e+00 -1.915735e+01 1.900000e+01
      vertex -4.157349e+00 -1.777785e+01 1.900000e+01
      vertex -6.000000e+00 -2.000000e+01 1.900000e+01
    endloop
  endfacet
  facet normal 0.000000e+00 1.224647e-16 1.000000e+00
    outer loop
      vertex -2.777851e+00 -1.084265e+01 1.900000e+01
      vertex -4.157349e+00 1.222215e+01 1.900000e+01
      vertex -4.157349e+00 -1.222215e+01 1.900000e+01
    endloop
  endfacet
  facet normal 0.000000e+00 1.224647e-16 1.000000e+00
    outer loop
      vertex -4.157349e+00 -1.777785e+01 1.900000e+01
      vertex -4.903927e+00 -1.597545e+01 1.900000e+01
      vertex -6.000000e+00 -2.000000e+01 1.900000e+01
    endloop
  endfacet
  facet normal 0.000000e+00 1.224647e-16 1.000000e+00
    outer loop
      vertex -4.903927e+00 -1.597545e+01 1.900000e+01
      vertex -4.903927e+00 -1.402455e+01 1.900000e+01
      vertex -6.000000e+00 -2.000000e+01 1.900000e+01
    endloop
  endfacet
  facet normal 0.000000e+00 1.224647e-16 1.000000e+00
    outer loop
      vertex -9.754524e-01 -1.009607e+01 1.900000e+01
      vertex -4.157349e+00 1.222215e+01 1.900000e+01
      vertex -2.777851e+00 -1.084265e+01 1.900000e+01
    endloop
  endfacet
  facet normal 0.000000e+00 1.224647e-16 1.000000e+00
    outer loop
      vertex 9.754524e-01 -1.009607e+01 1.900000e+01
      vertex -4.157349e+00 1.222215e+01 1.900000e+01
      vertex -9.754524e-01 -1.009607e+01 1.900000e+01
    endloop
  endfacet
  facet normal 0.000000e+00 1.224647e-16 1.000000e+00
    outer loop
      vertex 4.157349e+00 -1.222215e+01 1.900000e+01
      vertex -2.777851e+00 1.084265e+01 1.900000e+01
      vertex -4.157349e+00 1.222215e+01 1.900000e+01
    endloop
  endfacet
  facet normal 0.000000e+00 1.224647e-16 1.000000e+00
    outer loop
      vertex -2.777851e+00 -1.915735e+01 1.900000e+01
      vertex -6.000000e+00 -2.000000e+01 1.900000e+01
      vertex -9.754524e-01 -1.990393e+01 1.900000e+01
    endloop
  endfacet
  facet normal -1.000000e+00 0.000000e+00 0.000000e+00
    outer loop
      vertex -6.000000e+00 2.000000e+01 0.000000e+00
      vertex -6.000000e+00 -2.000000e+01 7.105427e-15
      vertex -6.000000e+00 2.000000e+01 1.900000e+01
    endloop
  endfacet
  facet normal -1.000000e+00 0.000000e+00 0.000000e+00
    outer loop
      vertex -6.000000e+00 2.000000e+01 1.900000e+01
      vertex -6.000000e+00 -2.000000e+01 7.105427e-15
      vertex -6.000000e+00 -2.000000e+01 1.900000e+01
    endloop
  endfacet
  facet normal -9.510562e-01 3.784380e-17 3.090180e-01
    outer loop
      vertex 1.336510e+00 -2.000000e+01 3.819014e+00
      vertex 1.481533e+00 -2.000000e+01 4.265348e+00
      vertex 1.336510e+00 2.000000e+01 3.819014e+00
    endloop
  endfacet
  facet normal -9.510562e-01 3.784380e-17 3.090180e-01
    outer loop
      vertex 1.336510e+00 2.000000e+01 3.819014e+00
      vertex 1.481533e+00 -2.000000e+01 4.265348e+00
      vertex 1.481533e+00 2.000000e+01 4.265348e+00
    endloop
  endfacet
  facet normal -1.000000e+00 -0.000000e+00 0.000000e+00
    outer loop
      vertex 1.481533e+00 -2.000000e+01 4.734652e+00
      vertex 1.481533e+00 2.000000e+01 4.734652e+00
      vertex 1.481533e+00 -2.000000e+01 4.265348e+00
    endloop
  endfacet
  facet normal -1.000000e+00 -0.000000e+00 0.000000e+00
    outer loop
      vertex 1.481533e+00 -2.000000e+01 4.265348e+00
      vertex 1.481533e+00 2.000000e+01 4.734652e+00
      vertex 1.481533e+00 2.000000e+01 4.265348e+00
    endloop
  endfacet
  facet normal -8.090163e-01 7.198305e-17 5.877863e-01
    outer loop
      vertex 1.060659e+00 -2.000000e+01 3.439341e+00
      vertex 1.336510e+00 -2.000000e+01 3.819014e+00
      vertex 1.060659e+00 2.000000e+01 3.439341e+00
    endloop
  endfacet
  facet normal -8.090163e-01 7.198305e-17 5.877863e-01
    outer loop
      vertex 1.060659e+00 2.000000e+01 3.439341e+00
      vertex 1.336510e+00 -2.000000e+01 3.819014e+00
      vertex 1.336510e+00 2.000000e+01 3.819014e+00
    endloop
  endfacet
  facet normal -5.877863e-01 9.907592e-17 8.090163e-01
    outer loop
      vertex 6.809864e-01 -2.000000e+01 3.163490e+00
      vertex 1.060659e+00 -2.000000e+01 3.439341e+00
      vertex 6.809864e-01 2.000000e+01 3.163490e+00
    endloop
  endfacet
  facet normal -5.877863e-01 9.907592e-17 8.090163e-01
    outer loop
      vertex 6.809864e-01 2.000000e+01 3.163490e+00
      vertex 1.060659e+00 -2.000000e+01 3.439341e+00
      vertex 1.060659e+00 2.000000e+01 3.439341e+00
    endloop
  endfacet
  facet normal -3.090180e-01 1.164708e-16 9.510562e-01
    outer loop
      vertex 2.346516e-01 -2.000000e+01 3.018467e+00
      vertex 6.809864e-01 -2.000000e+01 3.163490e+00
      vertex 2.346516e-01 2.000000e+01 3.018467e+00
    endloop
  endfacet
  facet normal -3.090180e-01 1.164708e-16 9.510562e-01
    outer loop
      vertex 2.346516e-01 2.000000e+01 3.018467e+00
      vertex 6.809864e-01 -2.000000e+01 3.163490e+00
      vertex 6.809864e-01 2.000000e+01 3.163490e+00
    endloop
  endfacet
  facet normal 0.000000e+00 1.224647e-16 1.000000e+00
    outer loop
      vertex -2.346516e-01 -2.000000e+01 3.018467e+00
      vertex 2.346516e-01 -2.000000e+01 3.018467e+00
      vertex -2.346516e-01 2.000000e+01 3.018467e+00
    endloop
  endfacet
  facet normal 0.000000e+00 1.224647e-16 1.000000e+00
    outer loop
      vertex -2.346516e-01 2.000000e+01 3.018467e+00
      vertex 2.346516e-01 -2.000000e+01 3.018467e+00
      vertex 2.346516e-01 2.000000e+01 3.018467e+00
    endloop
  endfacet
  facet normal 3.090180e-01 1.164708e-16 9.510562e-01
    outer loop
      vertex -6.809864e-01 -2.000000e+01 3.163490e+00
      vertex -2.346516e-01 -2.000000e+01 3.018467e+00
      vertex -6.809864e-01 2.000000e+01 3.163490e+00
    endloop
  endfacet
  facet normal 3.090180e-01 1.164708e-16 9.510562e-01
    outer loop
      vertex -6.809864e-01 2.000000e+01 3.163490e+00
      vertex -2.346516e-01 -2.000000e+01 3.018467e+00
      vertex -2.346516e-01 2.000000e+01 3.018467e+00
    endloop
  endfacet
  facet normal 5.877863e-01 9.907592e-17 8.090163e-01
    outer loop
      vertex -1.060659e+00 -2.000000e+01 3.439341e+00
      vertex -6.809864e-01 -2.000000e+01 3.163490e+00
      vertex -1.060659e+00 2.000000e+01 3.439341e+00
    endloop
  endfacet
  facet normal 5.877863e-01 9.907592e-17 8.090163e-01
    outer loop
      vertex -1.060659e+00 2.000000e+01 3.439341e+00
      vertex -6.809864e-01 -2.000000e+01 3.163490e+00
      vertex -6.809864e-01 2.000000e+01 3.163490e+00
    endloop
  endfacet
  facet normal 8.090163e-01 7.198305e-17 5.877863e-01
    outer loop
      vertex -1.336510e+00 2.000000e+01 3.819014e+00
      vertex -1.336510e+00 -2.000000e+01 3.819014e+00
      vertex -1.060659e+00 -2.000000e+01 3.439341e+00
    endloop
  endfacet
  facet normal 8.090163e-01 7.198305e-17 5.877863e-01
    outer loop
      vertex -1.060659e+00 2.000000e+01 3.439341e+00
      vertex -1.336510e+00 2.000000e+01 3.819014e+00
      vertex -1.060659e+00 -2.000000e+01 3.439341e+00
    endloop
  endfacet
  facet normal 9.510562e-01 3.784380e-17 3.090180e-01
    outer loop
      vertex -1.481533e+00 2.000000e+01 4.265348e+00
      vertex -1.481533e+00 -2.000000e+01 4.265348e+00
      vertex -1.336510e+00 -2.000000e+01 3.819014e+00
    endloop
  endfacet
  facet normal 9.510562e-01 3.784380e-17 3.090180e-01
    outer loop
      vertex -1.336510e+00 2.000000e+01 3.819014e+00
      vertex -1.481533e+00 2.000000e+01 4.265348e+00
      vertex -1.336510e+00 -2.000000e+01 3.819014e+00
    endloop
  endfacet
  facet normal 1.000000e+00 0.000000e+00 0.000000e+00
    outer loop
      vertex -1.481533e+00 2.000000e+01 4.734652e+00
      vertex -1.481533e+00 -2.000000e+01 4.734652e+00
      vertex -1.481533e+00 -2.000000e+01 4.265348e+00
    endloop
  endfacet
  facet normal 1.000000e+00 0.000000e+00 0.000000e+00
    outer loop
      vertex -1.481533e+00 2.000000e+01 4.265348e+00
      vertex -1.481533e+00 2.000000e+01 4.734652e+00
      vertex -1.481533e+00 -2.000000e+01 4.265348e+00
    endloop
  endfacet
  facet normal 9.510562e-01 -3.784380e-17 -3.090180e-01
    outer loop
      vertex -1.336510e+00 -2.000000e+01 5.180986e+00
      vertex -1.481533e+00 -2.000000e+01 4.734652e+00
      vertex -1.481533e+00 2.000000e+01 4.734652e+00
    endloop
  endfacet
  facet normal 9.510562e-01 -3.784380e-17 -3.090180e-01
    outer loop
      vertex -1.336510e+00 2.000000e+01 5.180986e+00
      vertex -1.336510e+00 -2.000000e+01 5.180986e+00
      vertex -1.481533e+00 2.000000e+01 4.734652e+00
    endloop
  endfacet
  facet normal 8.090163e-01 -7.198305e-17 -5.877863e-01
    outer loop
      vertex -1.060659e+00 -2.000000e+01 5.560659e+00
      vertex -1.336510e+00 -2.000000e+01 5.180986e+00
      vertex -1.336510e+00 2.000000e+01 5.180986e+00
    endloop
  endfacet
  facet normal 8.090163e-01 -7.198305e-17 -5.877863e-01
    outer loop
      vertex -1.060659e+00 2.000000e+01 5.560659e+00
      vertex -1.060659e+00 -2.000000e+01 5.560659e+00
      vertex -1.336510e+00 2.000000e+01 5.180986e+00
    endloop
  endfacet
  facet normal 5.877863e-01 -9.907592e-17 -8.090163e-01
    outer loop
      vertex -6.809864e-01 -2.000000e+01 5.836510e+00
      vertex -1.060659e+00 -2.000000e+01 5.560659e+00
      vertex -1.060659e+00 2.000000e+01 5.560659e+00
    endloop
  endfacet
  facet normal 5.877863e-01 -9.907592e-17 -8.090163e-01
    outer loop
      vertex -6.809864e-01 2.000000e+01 5.836510e+00
      vertex -6.809864e-01 -2.000000e+01 5.836510e+00
      vertex -1.060659e+00 2.000000e+01 5.560659e+00
    endloop
  endfacet
  facet normal 3.090180e-01 -1.164708e-16 -9.510562e-01
    outer loop
      vertex -2.346516e-01 -2.000000e+01 5.981533e+00
      vertex -6.809864e-01 -2.000000e+01 5.836510e+00
      vertex -6.809864e-01 2.000000e+01 5.836510e+00
    endloop
  endfacet
  facet normal 3.090180e-01 -1.164708e-16 -9.510562e-01
    outer loop
      vertex -2.346516e-01 2.000000e+01 5.981533e+00
      vertex -2.346516e-01 -2.000000e+01 5.981533e+00
      vertex -6.809864e-01 2.000000e+01 5.836510e+00
    endloop
  endfacet
  facet normal 0.000000e+00 -1.224647e-16 -1.000000e+00
    outer loop
      vertex 2.346516e-01 -2.000000e+01 5.981533e+00
      vertex -2.346516e-01 -2.000000e+01 5.981533e+00
      vertex -2.346516e-01 2.000000e+01 5.981533e+00
    endloop
  endfacet
  facet normal 0.000000e+00 -1.224647e-16 -1.000000e+00
    outer loop
      vertex 2.346516e-01 2.000000e+01 5.981533e+00
      vertex 2.346516e-01 -2.000000e+01 5.981533e+00
      vertex -2.346516e-01 2.000000e+01 5.981533e+00
    endloop
  endfacet
  facet normal -3.090180e-01 -1.164708e-16 -9.510562e-01
    outer loop
      vertex 6.809864e-01 -2.000000e+01 5.836510e+00
      vertex 2.346516e-01 -2.000000e+01 5.981533e+00
      vertex 2.346516e-01 2.000000e+01 5.981533e+00
    endloop
  endfacet
  facet normal -3.090180e-01 -1.164708e-16 -9.510562e-01
    outer loop
      vertex 6.809864e-01 2.000000e+01 5.836510e+00
      vertex 6.809864e-01 -2.000000e+01 5.836510e+00
      vertex 2.346516e-01 2.000000e+01 5.981533e+00
    endloop
  endfacet
  facet normal -5.877863e-01 -9.907592e-17 -8.090163e-01
    outer loop
      vertex 1.060659e+00 -2.000000e+01 5.560659e+00
      vertex 6.809864e-01 -2.000000e+01 5.836510e+00
      vertex 6.809864e-01 2.000000e+01 5.836510e+00
    endloop
  endfacet
  facet normal -5.877863e-01 -9.907592e-17 -8.090163e-01
    outer loop
      vertex 1.060659e+00 2.000000e+01 5.560659e+00
      vertex 1.060659e+00 -2.000000e+01 5.560659e+00
      vertex 6.809864e-01 2.000000e+01 5.836510e+00
    endloop
  endfacet
  facet normal -8.090163e-01 -7.198305e-17 -5.877863e-01
    outer loop
      vertex 1.060659e+00 -2.000000e+01 5.560659e+00
      vertex 1.060659e+00 2.000000e+01 5.560659e+00
      vertex 1.336510e+00 -2.000000e+01 5.180986e+00
    endloop
  endfacet
  facet normal -8.090163e-01 -7.198305e-17 -5.877863e-01
    outer loop
      vertex 1.336510e+00 -2.000000e+01 5.180986e+00
      vertex 1.060659e+00 2.000000e+01 5.560659e+00
      vertex 1.336510e+00 2.000000e+01 5.180986e+00
    endloop
  endfacet
  facet normal -9.510562e-01 -3.784380e-17 -3.090180e-01
    outer loop
      vertex 1.336510e+00 -2.000000e+01 5.180986e+00
      vertex 1.336510e+00 2.000000e+01 5.180986e+00
      vertex 1.481533e+00 -2.000000e+01 4.734652e+00
    endloop
  endfacet
  facet normal -9.510562e-01 -3.784380e-17 -3.090180e-01
    outer loop
      vertex 1.481533e+00 -2.000000e+01 4.734652e+00
      vertex 1.336510e+00 2.000000e+01 5.180986e+00
      vertex 1.481533e+00 2.000000e+01 4.734652e+00
    endloop
  endfacet
  facet normal 1.000000e+00 0.000000e+00 0.000000e+00
    outer loop
      vertex 4.903927e+00 1.402455e+01 1.900000e+01
      vertex 4.903927e+00 1.597545e+01 1.900000e+01
      vertex 4.903927e+00 1.597545e+01 2.100000e+01
    endloop
  endfacet
  facet normal 1.000000e+00 0.000000e+00 0.000000e+00
    outer loop
      vertex 4.903927e+00 1.402455e+01 2.100000e+01
      vertex 4.903927e+00 1.402455e+01 1.900000e+01
      vertex 4.903927e+00 1.597545e+01 2.100000e+01
    endloop
  endfacet
  facet normal 9.238797e-01 3.826829e-01 -4.686514e-17
    outer loop
      vertex 4.903927e+00 1.597545e+01 2.100000e+01
      vertex 4.903927e+00 1.597545e+01 1.900000e+01
      vertex 4.157349e+00 1.777785e+01 1.900000e+01
    endloop
  endfacet
  facet normal 9.238797e-01 3.826829e-01 -4.686514e-17
    outer loop
      vertex 4.157349e+00 1.777785e+01 2.100000e+01
      vertex 4.903927e+00 1.597545e+01 2.100000e+01
      vertex 4.157349e+00 1.777785e+01 1.900000e+01
    endloop
  endfacet
  facet normal 7.071068e-01 7.071068e-01 -8.659561e-17
    outer loop
      vertex 4.157349e+00 1.777785e+01 2.100000e+01
      vertex 4.157349e+00 1.777785e+01 1.900000e+01
      vertex 2.777851e+00 1.915735e+01 1.900000e+01
    endloop
  endfacet
  facet normal 7.071068e-01 7.071068e-01 -8.659561e-17
    outer loop
      vertex 2.777851e+00 1.915735e+01 2.100000e+01
      vertex 4.157349e+00 1.777785e+01 2.100000e+01
      vertex 2.777851e+00 1.915735e+01 1.900000e+01
    endloop
  endfacet
  facet normal 3.826829e-01 9.238797e-01 -1.131426e-16
    outer loop
      vertex 2.777851e+00 1.915735e+01 2.100000e+01
      vertex 2.777851e+00 1.915735e+01 1.900000e+01
      vertex 9.754524e-01 1.990393e+01 1.900000e+01
    endloop
  endfacet
  facet normal 3.826829e-01 9.238797e-01 -1.131426e-16
    outer loop
      vertex 9.754524e-01 1.990393e+01 2.100000e+01
      vertex 2.777851e+00 1.915735e+01 2.100000e+01
      vertex 9.754524e-01 1.990393e+01 1.900000e+01
    endloop
  endfacet
  facet normal 0.000000e+00 1.000000e+00 -1.224647e-16
    outer loop
      vertex 9.754524e-01 1.990393e+01 2.100000e+01
      vertex 9.754524e-01 1.990393e+01 1.900000e+01
      vertex -9.754524e-01 1.990393e+01 1.900000e+01
    endloop
  endfacet
  facet normal 0.000000e+00 1.000000e+00 -1.224647e-16
    outer loop
      vertex -9.754524e-01 1.990393e+01 2.100000e+01
      vertex 9.754524e-01 1.990393e+01 2.100000e+01
      vertex -9.754524e-01 1.990393e+01 1.900000e+01
    endloop
  endfacet
  facet normal -3.826829e-01 9.238797e-01 -1.131426e-16
    outer loop
      vertex -9.754524e-01 1.990393e+01 2.100000e+01
      vertex -9.754524e-01 1.990393e+01 1.900000e+01
      vertex -2.777851e+00 1.915735e+01 1.900000e+01
    endloop
  endfacet
  facet normal -3.826829e-01 9.238797e-01 -1.131426e-16
    outer loop
      vertex -2.777851e+00 1.915735e+01 2.100000e+01
      vertex -9.754524e-01 1.990393e+01 2.100000e+01
      vertex -2.777851e+00 1.915735e+01 1.900000e+01
    endloop
  endfacet
  facet normal -7.071068e-01 7.071068e-01 -8.659561e-17
    outer loop
      vertex -2.777851e+00 1.915735e+01 2.100000e+01
      vertex -2.777851e+00 1.915735e+01 1.900000e+01
      vertex -4.157349e+00 1.777785e+01 1.900000e+01
    endloop
  endfacet
  facet normal -7.071068e-01 7.071068e-01 -8.659561e-17
    outer loop
      vertex -4.157349e+00 1.777785e+01 2.100000e+01
      vertex -2.777851e+00 1.915735e+01 2.100000e+01
      vertex -4.157349e+00 1.777785e+01 1.900000e+01
    endloop
  endfacet
  facet normal -9.238797e-01 3.826829e-01 -4.686514e-17
    outer loop
      vertex -4.157349e+00 1.777785e+01 1.900000e+01
      vertex -4.903927e+00 1.597545e+01 1.900000e+01
      vertex -4.157349e+00 1.777785e+01 2.100000e+01
    endloop
  endfacet
  facet normal -9.238797e-01 3.826829e-01 -4.686514e-17
    outer loop
      vertex -4.157349e+00 1.777785e+01 2.100000e+01
      vertex -4.903927e+00 1.597545e+01 1.900000e+01
      vertex -4.903927e+00 1.597545e+01 2.100000e+01
    endloop
  endfacet
  facet normal -1.000000e+00 -0.000000e+00 0.000000e+00
    outer loop
      vertex -4.903927e+00 1.597545e+01 1.900000e+01
      vertex -4.903927e+00 1.402455e+01 1.900000e+01
      vertex -4.903927e+00 1.597545e+01 2.100000e+01
    endloop
  endfacet
  facet normal -1.000000e+00 0.000000e+00 -0.000000e+00
    outer loop
      vertex -4.903927e+00 1.597545e+01 2.100000e+01
      vertex -4.903927e+00 1.402455e+01 1.900000e+01
      vertex -4.903927e+00 1.402455e+01 2.100000e+01
    endloop
  endfacet
  facet normal -9.238797e-01 -3.826829e-01 4.686514e-17
    outer loop
      vertex -4.157349e+00 1.222215e+01 1.900000e+01
      vertex -4.157349e+00 1.222215e+01 2.100000e+01
      vertex -4.903927e+00 1.402455e+01 1.900000e+01
    endloop
  endfacet
  facet normal -9.238797e-01 -3.826829e-01 4.686514e-17
    outer loop
      vertex -4.903927e+00 1.402455e+01 1.900000e+01
      vertex -4.157349e+00 1.222215e+01 2.100000e+01
      vertex -4.903927e+00 1.402455e+01 2.100000e+01
    endloop
  endfacet
  facet normal -7.071068e-01 -7.071068e-01 8.659561e-17
    outer loop
      vertex -2.777851e+00 1.084265e+01 1.900000e+01
      vertex -2.777851e+00 1.084265e+01 2.100000e+01
      vertex -4.157349e+00 1.222215e+01 1.900000e+01
    endloop
  endfacet
  facet normal -7.071068e-01 -7.071068e-01 8.659561e-17
    outer loop
      vertex -4.157349e+00 1.222215e+01 1.900000e+01
      vertex -2.777851e+00 1.084265e+01 2.100000e+01
      vertex -4.157349e+00 1.222215e+01 2.100000e+01
    endloop
  endfacet
  facet normal -3.826829e-01 -9.238797e-01 1.131426e-16
    outer loop
      vertex -9.754524e-01 1.009607e+01 1.900000e+01
      vertex -9.754524e-01 1.009607e+01 2.100000e+01
      vertex -2.777851e+00 1.084265e+01 1.900000e+01
    endloop
  endfacet
  facet normal -3.826829e-01 -9.238797e-01 1.131426e-16
    outer loop
      vertex -2.777851e+00 1.084265e+01 1.900000e+01
      vertex -9.754524e-01 1.009607e+01 2.100000e+01
      vertex -2.777851e+00 1.084265e+01 2.100000e+01
    endloop
  endfacet
  facet normal 0.000000e+00 -1.000000e+00 1.224647e-16
    outer loop
      vertex 9.754524e-01 1.009607e+01 1.900000e+01
      vertex 9.754524e-01 1.009607e+01 2.100000e+01
      vertex -9.754524e-01 1.009607e+01 1.900000e+01
    endloop
  endfacet
  facet normal 0.000000e+00 -1.000000e+00 1.224647e-16
    outer loop
      vertex -9.754524e-01 1.009607e+01 1.900000e+01
      vertex 9.754524e-01 1.009607e+01 2.100000e+01
      vertex -9.754524e-01 1.009607e+01 2.100000e+01
    endloop
  endfacet
  facet normal 3.826829e-01 -9.238797e-01 1.131426e-16
    outer loop
      vertex 2.777851e+00 1.084265e+01 1.900000e+01
      vertex 2.777851e+00 1.084265e+01 2.100000e+01
      vertex 9.754524e-01 1.009607e+01 1.900000e+01
    endloop
  endfacet
  facet normal 3.826829e-01 -9.238797e-01 1.131426e-16
    outer loop
      vertex 9.754524e-01 1.009607e+01 1.900000e+01
      vertex 2.777851e+00 1.084265e+01 2.100000e+01
      vertex 9.754524e-01 1.009607e+01 2.100000e+01
    endloop
  endfacet
  facet normal 7.071068e-01 -7.071068e-01 8.659561e-17
    outer loop
      vertex 4.157349e+00 1.222215e+01 1.900000e+01
      vertex 4.157349e+00 1.222215e+01 2.100000e+01
      vertex 2.777851e+00 1.084265e+01 1.900000e+01
    endloop
  endfacet
  facet normal 7.071068e-01 -7.071068e-01 8.659561e-17
    outer loop
      vertex 2.777851e+00 1.084265e+01 1.900000e+01
      vertex 4.157349e+00 1.222215e+01 2.100000e+01
      vertex 2.777851e+00 1.084265e+01 2.100000e+01
    endloop
  endfacet
  facet normal 9.238797e-01 -3.826829e-01 4.686514e-17
    outer loop
      vertex 4.157349e+00 1.222215e+01 1.900000e+01
      vertex 4.903927e+00 1.402455e+01 1.900000e+01
      vertex 4.903927e+00 1.402455e+01 2.100000e+01
    endloop
  endfacet
  facet normal 9.238797e-01 -3.826829e-01 4.686514e-17
    outer loop
      vertex 4.157349e+00 1.222215e+01 2.100000e+01
      vertex 4.157349e+00 1.222215e+01 1.900000e+01
      vertex 4.903927e+00 1.402455e+01 2.100000e+01
    endloop
  endfacet
  facet normal 1.000000e+00 0.000000e+00 0.000000e+00
    outer loop
      vertex 4.903927e+00 -1.597545e+01 1.900000e+01
      vertex 4.903927e+00 -1.402455e+01 1.900000e+01
      vertex 4.903927e+00 -1.402455e+01 2.100000e+01
    endloop
  endfacet
  facet normal 1.000000e+00 0.000000e+00 0.000000e+00
    outer loop
      vertex 4.903927e+00 -1.597545e+01 2.100000e+01
      vertex 4.903927e+00 -1.597545e+01 1.900000e+01
      vertex 4.903927e+00 -1.402455e+01 2.100000e+01
    endloop
  endfacet
  facet normal 9.238797e-01 3.826829e-01 -4.686514e-17
    outer loop
      vertex 4.903927e+00 -1.402455e+01 2.100000e+01
      vertex 4.903927e+00 -1.402455e+01 1.900000e+01
      vertex 4.157349e+00 -1.222215e+01 1.900000e+01
    endloop
  endfacet
  facet normal 9.238797e-01 3.826829e-01 -4.686514e-17
    outer loop
      vertex 4.157349e+00 -1.222215e+01 2.100000e+01
      vertex 4.903927e+00 -1.402455e+01 2.100000e+01
      vertex 4.157349e+00 -1.222215e+01 1.900000e+01
    endloop
  endfacet
  facet normal 7.071068e-01 7.071068e-01 -8.659561e-17
    outer loop
      vertex 4.157349e+00 -1.222215e+01 2.100000e+01
      vertex 4.157349e+00 -1.222215e+01 1.900000e+01
      vertex 2.777851e+00 -1.084265e+01 1.900000e+01
    endloop
  endfacet
  facet normal 7.071068e-01 7.071068e-01 -8.659561e-17
    outer loop
      vertex 2.777851e+00 -1.084265e+01 2.100000e+01
      vertex 4.157349e+00 -1.222215e+01 2.100000e+01
      vertex 2.777851e+00 -1.084265e+01 1.900000e+01
    endloop
  endfacet
  facet normal 3.826829e-01 9.238797e-01 -1.131426e-16
    outer loop
      vertex 2.777851e+00 -1.084265e+01 2.100000e+01
      vertex 2.777851e+00 -1.084265e+01 1.900000e+01
      vertex 9.754524e-01 -1.009607e+01 1.900000e+01
    endloop
  endfacet
  facet normal 3.826829e-01 9.238797e-01 -1.131426e-16
    outer loop
      vertex 9.754524e-01 -1.009607e+01 2.100000e+01
      vertex 2.777851e+00 -1.084265e+01 2.100000e+01
      vertex 9.754524e-01 -1.009607e+01 1.900000e+01
    endloop
  endfacet
  facet normal 0.000000e+00 1.000000e+00 -1.224647e-16
    outer loop
      vertex 9.754524e-01 -1.009607e+01 2.100000e+01
      vertex 9.754524e-01 -1.009607e+01 1.900000e+01
      vertex -9.754524e-01 -1.009607e+01 1.900000e+01
    endloop
  endfacet
  facet normal 0.000000e+00 1.000000e+00 -1.224647e-16
    outer loop
      vertex -9.754524e-01 -1.009607e+01 2.100000e+01
      vertex 9.754524e-01 -1.009607e+01 2.100000e+01
      vertex -9.754524e-01 -1.009607e+01 1.900000e+01
    endloop
  endfacet
  facet normal -3.826829e-01 9.238797e-01 -1.131426e-16
    outer loop
      vertex -9.754524e-01 -1.009607e+01 2.100000e+01
      vertex -9.754524e-01 -1.009607e+01 1.900000e+01
      vertex -2.777851e+00 -1.084265e+01 1.900000e+01
    endloop
  endfacet
  facet normal -3.826829e-01 9.238797e-01 -1.131426e-16
    outer loop
      vertex -2.777851e+00 -1.084265e+01 2.100000e+01
      vertex -9.754524e-01 -1.009607e+01 2.100000e+01
      vertex -2.777851e+00 -1.084265e+01 1.900000e+01
    endloop
  endfacet
  facet normal -7.071068e-01 7.071068e-01 -8.659561e-17
    outer loop
      vertex -2.777851e+00 -1.084265e+01 2.100000e+01
      vertex -2.777851e+00 -1.084265e+01 1.900000e+01
      vertex -4.157349e+00 -1.222215e+01 1.900000e+01
    endloop
  endfacet
  facet normal -7.071068e-01 7.071068e-01 -8.659561e-17
    outer loop
      vertex -4.157349e+00 -1.222215e+01 2.100000e+01
      vertex -2.777851e+00 -1.084265e+01 2.100000e+01
      vertex -4.157349e+00 -1.222215e+01 1.900000e+01
    endloop
  endfacet
  facet normal -9.238797e-01 3.826829e-01 -4.686514e-17
    outer loop
      vertex -4.157349e+00 -1.222215e+01 1.900000e+01
      vertex -4.903927e+00 -1.402455e+01 1.900000e+01
      vertex -4.157349e+00 -1.222215e+01 2.100000e+01
    endloop
  endfacet
  facet normal -9.238797e-01 3.826829e-01 -4.686514e-17
    outer loop
      vertex -4.157349e+00 -1.222215e+01 2.100000e+01
      vertex -4.903927e+00 -1.402455e+01 1.900000e+01
      vertex -4.903927e+00 -1.402455e+01 2.100000e+01
    endloop
  endfacet
  facet normal -1.000000e+00 -0.000000e+00 0.000000e+00
    outer loop
      vertex -4.903927e+00 -1.402455e+01 1.900000e+01
      vertex -4.903927e+00 -1.597545e+01 1.900000e+01
      vertex -4.903927e+00 -1.402455e+01 2.100000e+01
    endloop
  endfacet
  facet normal -1.000000e+00 0.000000e+00 -0.000000e+00
    outer loop
      vertex -4.903927e+00 -1.402455e+01 2.100000e+01
      vertex -4.903927e+00 -1.597545e+01 1.900000e+01
      vertex -4.903927e+00 -1.597545e+01 2.100000e+01
    endloop
  endfacet
  facet normal -9.238797e-01 -3.826829e-01 4.686514e-17
    outer loop
      vertex -4.157349e+00 -1.777785e+01 1.900000e+01
      vertex -4.157349e+00 -1.777785e+01 2.100000e+01
      vertex -4.903927e+00 -1.597545e+01 1.900000e+01
    endloop
  endfacet
  facet normal -9.238797e-01 -3.826829e-01 4.686514e-17
    outer loop
      vertex -4.903927e+00 -1.597545e+01 1.900000e+01
      vertex -4.157349e+00 -1.777785e+01 2.100000e+01
      vertex -4.903927e+00 -1.597545e+01 2.100000e+01
    endloop
  endfacet
  facet normal -7.071068e-01 -7.071068e-01 8.659561e-17
    outer loop
      vertex -2.777851e+00 -1.915735e+01 1.900000e+01
      vertex -2.777851e+00 -1.915735e+01 2.100000e+01
      vertex -4.157349e+00 -1.777785e+01 1.900000e+01
    endloop
  endfacet
  facet normal -7.071068e-01 -7.071068e-01 8.659561e-17
    outer loop
      vertex -4.157349e+00 -1.777785e+01 1.900000e+01
      vertex -2.777851e+00 -1.915735e+01 2.100000e+01
      vertex -4.157349e+00 -1.777785e+01 2.100000e+01
    endloop
  endfacet
  facet normal -3.826829e-01 -9.238797e-01 1.131426e-16
    outer loop
      vertex -9.754524e-01 -1.990393e+01 1.900000e+01
      vertex -9.754524e-01 -1.990393e+01 2.100000e+01
      vertex -2.777851e+00 -1.915735e+01 1.900000e+01
    endloop
  endfacet
  facet normal -3.826829e-01 -9.238797e-01 1.131426e-16
    outer loop
      vertex -2.777851e+00 -1.915735e+01 1.900000e+01
      vertex -9.754524e-01 -1.990393e+01 2.100000e+01
      vertex -2.777851e+00 -1.915735e+01 2.100000e+01
    endloop
  endfacet
  facet normal 0.000000e+00 -1.000000e+00 1.224647e-16
    outer loop
      vertex 9.754524e-01 -1.990393e+01 1.900000e+01
      vertex 9.754524e-01 -1.990393e+01 2.100000e+01
      vertex -9.754524e-01 -1.990393e+01 1.900000e+01
    endloop
  endfacet
  facet normal 0.000000e+00 -1.000000e+00 1.224647e-16
    outer loop
      vertex -9.754524e-01 -1.990393e+01 1.900000e+01
      vertex 9.754524e-01 -1.990393e+01 2.100000e+01
      vertex -9.754524e-01 -1.990393e+01 2.100000e+01
    endloop
  endfacet
  facet normal 3.826829e-01 -9.238797e-01 1.131426e-16
    outer loop
      vertex 2.777851e+00 -1.915735e+01 1.900000e+01
      vertex 2.777851e+00 -1.915735e+01 2.100000e+01
      vertex 9.754524e-01 -1.990393e+01 1.900000e+01
    endloop
  endfacet
  facet normal 3.826829e-01 -9.238797e-01 1.131426e-16
    outer loop
      vertex 9.754524e-01 -1.990393e+01 1.900000e+01
      vertex 2.777851e+00 -1.915735e+01 2.100000e+01
      vertex 9.754524e-01 -1.990393e+01 2.100000e+01
    endloop
  endfacet
  facet normal 7.071068e-01 -7.071068e-01 8.659561e-17
    outer loop
      vertex 4.157349e+00 -1.777785e+01 1.900000e+01
      vertex 4.157349e+00 -1.777785e+01 2.100000e+01
      vertex 2.777851e+00 -1.915735e+01 1.900000e+01
    endloop
  endfacet
  facet normal 7.071068e-01 -7.071068e-01 8.659561e-17
    outer loop
      vertex 2.777851e+00 -1.915735e+01 1.900000e+01
      vertex 4.157349e+00 -1.777785e+01 2.100000e+01
      vertex 2.777851e+00 -1.915735e+01 2.100000e+01
    endloop
  endfacet
  facet normal 9.238797e-01 -3.826829e-01 4.686514e-17
    outer loop
      vertex 4.157349e+00 -1.777785e+01 1.900000e+01
      vertex 4.903927e+00 -1.597545e+01 1.900000e+01
      vertex 4.903927e+00 -1.597545e+01 2.100000e+01
    endloop
  endfacet
  facet normal 9.238797e-01 -3.826829e-01 4.686514e-17
    outer loop
      vertex 4.157349e+00 -1.777785e+01 2.100000e+01
      vertex 4.157349e+00 -1.777785e+01 1.900000e+01
      vertex 4.903927e+00 -1.597545e+01 2.100000e+01
    endloop
  endfacet
  facet normal 0.000000e+00 1.224647e-16 1.000000e+00
    outer loop
      vertex 4.903927e+00 1.597545e+01 2.100000e+01
      vertex 4.157349e+00 1.777785e+01 2.100000e+01
      vertex 4.903927e+00 1.402455e+01 2.100000e+01
    endloop
  endfacet
  facet normal 0.000000e+00 1.224647e-16 1.000000e+00
    outer loop
      vertex 4.903927e+00 1.402455e+01 2.100000e+01
      vertex 4.157349e+00 1.777785e+01 2.100000e+01
      vertex 2.777851e+00 1.915735e+01 2.100000e+01
    endloop
  endfacet
  facet normal 0.000000e+00 1.224647e-16 1.000000e+00
    outer loop
      vertex 3.541824e+00 1.685889e+01 2.100000e+01
      vertex 2.777851e+00 1.915735e+01 2.100000e+01
      vertex 9.754524e-01 1.990393e+01 2.100000e+01
    endloop
  endfacet
  facet normal 0.000000e+00 1.224647e-16 1.000000e+00
    outer loop
      vertex 4.821472e-01 1.897083e+01 2.100000e+01
      vertex 9.754524e-01 1.990393e+01 2.100000e+01
      vertex -9.754524e-01 1.990393e+01 2.100000e+01
    endloop
  endfacet
  facet normal 0.000000e+00 1.224647e-16 1.000000e+00
    outer loop
      vertex -1.418421e+00 1.874006e+01 2.100000e+01
      vertex -9.754524e-01 1.990393e+01 2.100000e+01
      vertex -2.777851e+00 1.915735e+01 2.100000e+01
    endloop
  endfacet
  facet normal 0.000000e+00 1.224647e-16 1.000000e+00
    outer loop
      vertex -2.994043e+00 1.765249e+01 2.100000e+01
      vertex -2.777851e+00 1.915735e+01 2.100000e+01
      vertex -4.157349e+00 1.777785e+01 2.100000e+01
    endloop
  endfacet
  facet normal 0.000000e+00 1.224647e-16 1.000000e+00
    outer loop
      vertex -3.883766e+00 1.595726e+01 2.100000e+01
      vertex -4.157349e+00 1.777785e+01 2.100000e+01
      vertex -4.903927e+00 1.597545e+01 2.100000e+01
    endloop
  endfacet
  facet normal 0.000000e+00 1.224647e-16 1.000000e+00
    outer loop
      vertex -3.883766e+00 1.404274e+01 2.100000e+01
      vertex -4.903927e+00 1.597545e+01 2.100000e+01
      vertex -4.903927e+00 1.402455e+01 2.100000e+01
    endloop
  endfacet
  facet normal 0.000000e+00 1.224647e-16 1.000000e+00
    outer loop
      vertex -2.994043e+00 1.234751e+01 2.100000e+01
      vertex -4.157349e+00 1.222215e+01 2.100000e+01
      vertex -2.777851e+00 1.084265e+01 2.100000e+01
    endloop
  endfacet
  facet normal 0.000000e+00 1.224647e-16 1.000000e+00
    outer loop
      vertex -1.418421e+00 1.125994e+01 2.100000e+01
      vertex -2.777851e+00 1.084265e+01 2.100000e+01
      vertex -9.754524e-01 1.009607e+01 2.100000e+01
    endloop
  endfacet
  facet normal 0.000000e+00 1.224647e-16 1.000000e+00
    outer loop
      vertex 2.272259e+00 1.170807e+01 2.100000e+01
      vertex -9.754524e-01 1.009607e+01 2.100000e+01
      vertex 9.754524e-01 1.009607e+01 2.100000e+01
    endloop
  endfacet
  facet normal -0.000000e+00 1.224647e-16 1.000000e+00
    outer loop
      vertex 4.903927e+00 1.402455e+01 2.100000e+01
      vertex 9.754524e-01 1.009607e+01 2.100000e+01
      vertex 2.777851e+00 1.084265e+01 2.100000e+01
    endloop
  endfacet
  facet normal 0.000000e+00 1.224647e-16 1.000000e+00
    outer loop
      vertex 4.903927e+00 1.402455e+01 2.100000e+01
      vertex 2.777851e+00 1.084265e+01 2.100000e+01
      vertex 4.157349e+00 1.222215e+01 2.100000e+01
    endloop
  endfacet
  facet normal 0.000000e+00 1.224647e-16 1.000000e+00
    outer loop
      vertex 4.903927e+00 1.402455e+01 2.100000e+01
      vertex 2.777851e+00 1.915735e+01 2.100000e+01
      vertex 3.541824e+00 1.685889e+01 2.100000e+01
    endloop
  endfacet
  facet normal 0.000000e+00 1.224647e-16 1.000000e+00
    outer loop
      vertex 2.272259e+00 1.829193e+01 2.100000e+01
      vertex 3.541824e+00 1.685889e+01 2.100000e+01
      vertex 9.754524e-01 1.990393e+01 2.100000e+01
    endloop
  endfacet
  facet normal 0.000000e+00 1.224647e-16 1.000000e+00
    outer loop
      vertex 3.541824e+00 1.314111e+01 2.100000e+01
      vertex 4.903927e+00 1.402455e+01 2.100000e+01
      vertex 4.000000e+00 1.500000e+01 2.100000e+01
    endloop
  endfacet
  facet normal 0.000000e+00 1.224647e-16 1.000000e+00
    outer loop
      vertex 2.272259e+00 1.170807e+01 2.100000e+01
      vertex 4.903927e+00 1.402455e+01 2.100000e+01
      vertex 3.541824e+00 1.314111e+01 2.100000e+01
    endloop
  endfacet
  facet normal -0.000000e+00 1.224647e-16 1.000000e+00
    outer loop
      vertex 4.821472e-01 1.102917e+01 2.100000e+01
      vertex -9.754524e-01 1.009607e+01 2.100000e+01
      vertex 2.272259e+00 1.170807e+01 2.100000e+01
    endloop
  endfacet
  facet normal 0.000000e+00 1.224647e-16 1.000000e+00
    outer loop
      vertex 4.903927e+00 1.402455e+01 2.100000e+01
      vertex 2.272259e+00 1.170807e+01 2.100000e+01
      vertex 9.754524e-01 1.009607e+01 2.100000e+01
    endloop
  endfacet
  facet normal 0.000000e+00 1.224647e-16 1.000000e+00
    outer loop
      vertex -1.418421e+00 1.125994e+01 2.100000e+01
      vertex -9.754524e-01 1.009607e+01 2.100000e+01
      vertex 4.821472e-01 1.102917e+01 2.100000e+01
    endloop
  endfacet
  facet normal 0.000000e+00 1.224647e-16 1.000000e+00
    outer loop
      vertex -2.994043e+00 1.234751e+01 2.100000e+01
      vertex -2.777851e+00 1.084265e+01 2.100000e+01
      vertex -1.418421e+00 1.125994e+01 2.100000e+01
    endloop
  endfacet
  facet normal 0.000000e+00 1.224647e-16 1.000000e+00
    outer loop
      vertex 2.272259e+00 1.829193e+01 2.100000e+01
      vertex 9.754524e-01 1.990393e+01 2.100000e+01
      vertex 4.821472e-01 1.897083e+01 2.100000e+01
    endloop
  endfacet
  facet normal 0.000000e+00 1.224647e-16 1.000000e+00
    outer loop
      vertex 4.821472e-01 1.897083e+01 2.100000e+01
      vertex -9.754524e-01 1.990393e+01 2.100000e+01
      vertex -1.418421e+00 1.874006e+01 2.100000e+01
    endloop
  endfacet
  facet normal 0.000000e+00 1.224647e-16 1.000000e+00
    outer loop
      vertex 4.000000e+00 1.500000e+01 2.100000e+01
      vertex 4.903927e+00 1.402455e+01 2.100000e+01
      vertex 3.541824e+00 1.685889e+01 2.100000e+01
    endloop
  endfacet
  facet normal 0.000000e+00 1.224647e-16 1.000000e+00
    outer loop
      vertex -1.418421e+00 1.874006e+01 2.100000e+01
      vertex -2.777851e+00 1.915735e+01 2.100000e+01
      vertex -2.994043e+00 1.765249e+01 2.100000e+01
    endloop
  endfacet
  facet normal 0.000000e+00 1.224647e-16 1.000000e+00
    outer loop
      vertex -2.994043e+00 1.765249e+01 2.100000e+01
      vertex -4.157349e+00 1.777785e+01 2.100000e+01
      vertex -3.883766e+00 1.595726e+01 2.100000e+01
    endloop
  endfacet
  facet normal 0.000000e+00 1.224647e-16 1.000000e+00
    outer loop
      vertex -3.883766e+00 1.404274e+01 2.100000e+01
      vertex -4.903927e+00 1.402455e+01 2.100000e+01
      vertex -4.157349e+00 1.222215e+01 2.100000e+01
    endloop
  endfacet
  facet normal 0.000000e+00 1.224647e-16 1.000000e+00
    outer loop
      vertex -3.883766e+00 1.595726e+01 2.100000e+01
      vertex -4.903927e+00 1.597545e+01 2.100000e+01
      vertex -3.883766e+00 1.404274e+01 2.100000e+01
    endloop
  endfacet
  facet normal 0.000000e+00 1.224647e-16 1.000000e+00
    outer loop
      vertex -3.883766e+00 1.404274e+01 2.100000e+01
      vertex -4.157349e+00 1.222215e+01 2.100000e+01
      vertex -2.994043e+00 1.234751e+01 2.100000e+01
    endloop
  endfacet
  facet normal 0.000000e+00 1.224647e-16 1.000000e+00
    outer loop
      vertex 4.903927e+00 -1.402455e+01 2.100000e+01
      vertex 4.157349e+00 -1.222215e+01 2.100000e+01
      vertex 4.903927e+00 -1.597545e+01 2.100000e+01
    endloop
  endfacet
  facet normal 0.000000e+00 1.224647e-16 1.000000e+00
    outer loop
      vertex 4.903927e+00 -1.597545e+01 2.100000e+01
      vertex 4.157349e+00 -1.222215e+01 2.100000e+01
      vertex 2.777851e+00 -1.084265e+01 2.100000e+01
    endloop
  endfacet
  facet normal 0.000000e+00 1.224647e-16 1.000000e+00
    outer loop
      vertex 3.541824e+00 -1.314111e+01 2.100000e+01
      vertex 2.777851e+00 -1.084265e+01 2.100000e+01
      vertex 9.754524e-01 -1.009607e+01 2.100000e+01
    endloop
  endfacet
  facet normal 0.000000e+00 1.224647e-16 1.000000e+00
    outer loop
      vertex 4.821472e-01 -1.102917e+01 2.100000e+01
      vertex 9.754524e-01 -1.009607e+01 2.100000e+01
      vertex -9.754524e-01 -1.009607e+01 2.100000e+01
    endloop
  endfacet
  facet normal 0.000000e+00 1.224647e-16 1.000000e+00
    outer loop
      vertex -1.418421e+00 -1.125994e+01 2.100000e+01
      vertex -9.754524e-01 -1.009607e+01 2.100000e+01
      vertex -2.777851e+00 -1.084265e+01 2.100000e+01
    endloop
  endfacet
  facet normal 0.000000e+00 1.224647e-16 1.000000e+00
    outer loop
      vertex -2.994043e+00 -1.234751e+01 2.100000e+01
      vertex -2.777851e+00 -1.084265e+01 2.100000e+01
      vertex -4.157349e+00 -1.222215e+01 2.100000e+01
    endloop
  endfacet
  facet normal 0.000000e+00 1.224647e-16 1.000000e+00
    outer loop
      vertex -3.883766e+00 -1.404274e+01 2.100000e+01
      vertex -4.157349e+00 -1.222215e+01 2.100000e+01
      vertex -4.903927e+00 -1.402455e+01 2.100000e+01
    endloop
  endfacet
  facet normal 0.000000e+00 1.224647e-16 1.000000e+00
    outer loop
      vertex -3.883766e+00 -1.595726e+01 2.100000e+01
      vertex -4.903927e+00 -1.402455e+01 2.100000e+01
      vertex -4.903927e+00 -1.597545e+01 2.100000e+01
    endloop
  endfacet
  facet normal 0.000000e+00 1.224647e-16 1.000000e+00
    outer loop
      vertex -2.994043e+00 -1.765249e+01 2.100000e+01
      vertex -4.157349e+00 -1.777785e+01 2.100000e+01
      vertex -2.777851e+00 -1.915735e+01 2.100000e+01
    endloop
  endfacet
  facet normal 0.000000e+00 1.224647e-16 1.000000e+00
    outer loop
      vertex -1.418421e+00 -1.874006e+01 2.100000e+01
      vertex -2.777851e+00 -1.915735e+01 2.100000e+01
      vertex -9.754524e-01 -1.990393e+01 2.100000e+01
    endloop
  endfacet
  facet normal 0.000000e+00 1.224647e-16 1.000000e+00
    outer loop
      vertex 2.272259e+00 -1.829193e+01 2.100000e+01
      vertex -9.754524e-01 -1.990393e+01 2.100000e+01
      vertex 9.754524e-01 -1.990393e+01 2.100000e+01
    endloop
  endfacet
  facet normal -0.000000e+00 1.224647e-16 1.000000e+00
    outer loop
      vertex 4.903927e+00 -1.597545e+01 2.100000e+01
      vertex 9.754524e-01 -1.990393e+01 2.100000e+01
      vertex 2.777851e+00 -1.915735e+01 2.100000e+01
    endloop
  endfacet
  facet normal 0.000000e+00 1.224647e-16 1.000000e+00
    outer loop
      vertex 4.903927e+00 -1.597545e+01 2.100000e+01
      vertex 2.777851e+00 -1.915735e+01 2.100000e+01
      vertex 4.157349e+00 -1.777785e+01 2.100000e+01
    endloop
  endfacet
  facet normal 0.000000e+00 1.224647e-16 1.000000e+00
    outer loop
      vertex 4.903927e+00 -1.597545e+01 2.100000e+01
      vertex 2.777851e+00 -1.084265e+01 2.100000e+01
      vertex 3.541824e+00 -1.314111e+01 2.100000e+01
    endloop
  endfacet
  facet normal 0.000000e+00 1.224647e-16 1.000000e+00
    outer loop
      vertex 2.272259e+00 -1.170807e+01 2.100000e+01
      vertex 3.541824e+00 -1.314111e+01 2.100000e+01
      vertex 9.754524e-01 -1.009607e+01 2.100000e+01
    endloop
  endfacet
  facet normal 0.000000e+00 1.224647e-16 1.000000e+00
    outer loop
      vertex 3.541824e+00 -1.685889e+01 2.100000e+01
      vertex 4.903927e+00 -1.597545e+01 2.100000e+01
      vertex 4.000000e+00 -1.500000e+01 2.100000e+01
    endloop
  endfacet
  facet normal 0.000000e+00 1.224647e-16 1.000000e+00
    outer loop
      vertex 2.272259e+00 -1.829193e+01 2.100000e+01
      vertex 4.903927e+00 -1.597545e+01 2.100000e+01
      vertex 3.541824e+00 -1.685889e+01 2.100000e+01
    endloop
  endfacet
  facet normal -0.000000e+00 1.224647e-16 1.000000e+00
    outer loop
      vertex 4.821472e-01 -1.897083e+01 2.100000e+01
      vertex -9.754524e-01 -1.990393e+01 2.100000e+01
      vertex 2.272259e+00 -1.829193e+01 2.100000e+01
    endloop
  endfacet
  facet normal 0.000000e+00 1.224647e-16 1.000000e+00
    outer loop
      vertex 4.903927e+00 -1.597545e+01 2.100000e+01
      vertex 2.272259e+00 -1.829193e+01 2.100000e+01
      vertex 9.754524e-01 -1.990393e+01 2.100000e+01
    endloop
  endfacet
  facet normal 0.000000e+00 1.224647e-16 1.000000e+00
    outer loop
      vertex -1.418421e+00 -1.874006e+01 2.100000e+01
      vertex -9.754524e-01 -1.990393e+01 2.100000e+01
      vertex 4.821472e-01 -1.897083e+01 2.100000e+01
    endloop
  endfacet
  facet normal 0.000000e+00 1.224647e-16 1.000000e+00
    outer loop
      vertex -2.994043e+00 -1.765249e+01 2.100000e+01
      vertex -2.777851e+00 -1.915735e+01 2.100000e+01
      vertex -1.418421e+00 -1.874006e+01 2.100000e+01
    endloop
  endfacet
  facet normal 0.000000e+00 1.224647e-16 1.000000e+00
    outer loop
      vertex 2.272259e+00 -1.170807e+01 2.100000e+01
      vertex 9.754524e-01 -1.009607e+01 2.100000e+01
      vertex 4.821472e-01 -1.102917e+01 2.100000e+01
    endloop
  endfacet
  facet normal 0.000000e+00 1.224647e-16 1.000000e+00
    outer loop
      vertex 4.821472e-01 -1.102917e+01 2.100000e+01
      vertex -9.754524e-01 -1.009607e+01 2.100000e+01
      vertex -1.418421e+00 -1.125994e+01 2.100000e+01
    endloop
  endfacet
  facet normal 0.000000e+00 1.224647e-16 1.000000e+00
    outer loop
      vertex 4.000000e+00 -1.500000e+01 2.100000e+01
      vertex 4.903927e+00 -1.597545e+01 2.100000e+01
      vertex 3.541824e+00 -1.314111e+01 2.100000e+01
    endloop
  endfacet
  facet normal 0.000000e+00 1.224647e-16 1.000000e+00
    outer loop
      vertex -1.418421e+00 -1.125994e+01 2.100000e+01
      vertex -2.777851e+00 -1.084265e+01 2.100000e+01
      vertex -2.994043e+00 -1.234751e+01 2.100000e+01
    endloop
  endfacet
  facet normal 0.000000e+00 1.224647e-16 1.000000e+00
    outer loop
      vertex -2.994043e+00 -1.234751e+01 2.100000e+01
      vertex -4.157349e+00 -1.222215e+01 2.100000e+01
      vertex -3.883766e+00 -1.404274e+01 2.100000e+01
    endloop
  endfacet
  facet normal 0.000000e+00 1.224647e-16 1.000000e+00
    outer loop
      vertex -3.883766e+00 -1.595726e+01 2.100000e+01
      vertex -4.903927e+00 -1.597545e+01 2.100000e+01
      vertex -4.157349e+00 -1.777785e+01 2.100000e+01
    endloop
  endfacet
  facet normal 0.000000e+00 1.224647e-16 1.000000e+00
    outer loop
      vertex -3.883766e+00 -1.404274e+01 2.100000e+01
      vertex -4.903927e+00 -1.402455e+01 2.100000e+01
      vertex -3.883766e+00 -1.595726e+01 2.100000e+01
    endloop
  endfacet
  facet normal 0.000000e+00 1.224647e-16 1.000000e+00
    outer loop
      vertex -3.883766e+00 -1.595726e+01 2.100000e+01
      vertex -4.157349e+00 -1.777785e+01 2.100000e+01
      vertex -2.994043e+00 -1.765249e+01 2.100000e+01
    endloop
  endfacet
  facet normal 9.709417e-01 2.393159e-01 -2.930775e-17
    outer loop
      vertex 4.000000e+00 1.500000e+01 3.500000e+01
      vertex 4.000000e+00 1.500000e+01 2.100000e+01
      vertex 3.541824e+00 1.685889e+01 2.100000e+01
    endloop
  endfacet
  facet normal 9.709417e-01 2.393159e-01 -2.930775e-17
    outer loop
      vertex 3.541824e+00 1.685889e+01 3.500000e+01
      vertex 4.000000e+00 1.500000e+01 3.500000e+01
      vertex 3.541824e+00 1.685889e+01 2.100000e+01
    endloop
  endfacet
  facet normal 7.485107e-01 6.631227e-01 -8.120911e-17
    outer loop
      vertex 3.541824e+00 1.685889e+01 3.500000e+01
      vertex 3.541824e+00 1.685889e+01 2.100000e+01
      vertex 2.272259e+00 1.829193e+01 2.100000e+01
    endloop
  endfacet
  facet normal 7.485107e-01 6.631227e-01 -8.120911e-17
    outer loop
      vertex 2.272259e+00 1.829193e+01 3.500000e+01
      vertex 3.541824e+00 1.685889e+01 3.500000e+01
      vertex 2.272259e+00 1.829193e+01 2.100000e+01
    endloop
  endfacet
  facet normal 3.546051e-01 9.350162e-01 -1.145065e-16
    outer loop
      vertex 2.272259e+00 1.829193e+01 3.500000e+01
      vertex 2.272259e+00 1.829193e+01 2.100000e+01
      vertex 4.821472e-01 1.897083e+01 2.100000e+01
    endloop
  endfacet
  facet normal 3.546051e-01 9.350162e-01 -1.145065e-16
    outer loop
      vertex 4.821472e-01 1.897083e+01 3.500000e+01
      vertex 2.272259e+00 1.829193e+01 3.500000e+01
      vertex 4.821472e-01 1.897083e+01 2.100000e+01
    endloop
  endfacet
  facet normal -1.205360e-01 9.927090e-01 -1.215718e-16
    outer loop
      vertex 4.821472e-01 1.897083e+01 3.500000e+01
      vertex 4.821472e-01 1.897083e+01 2.100000e+01
      vertex -1.418421e+00 1.874006e+01 2.100000e+01
    endloop
  endfacet
  facet normal -1.205360e-01 9.927090e-01 -1.215718e-16
    outer loop
      vertex -1.418421e+00 1.874006e+01 3.500000e+01
      vertex 4.821472e-01 1.897083e+01 3.500000e+01
      vertex -1.418421e+00 1.874006e+01 2.100000e+01
    endloop
  endfacet
  facet normal -5.680649e-01 8.229838e-01 -1.007864e-16
    outer loop
      vertex -1.418421e+00 1.874006e+01 3.500000e+01
      vertex -1.418421e+00 1.874006e+01 2.100000e+01
      vertex -2.994043e+00 1.765249e+01 2.100000e+01
    endloop
  endfacet
  facet normal -5.680649e-01 8.229838e-01 -1.007864e-16
    outer loop
      vertex -2.994043e+00 1.765249e+01 3.500000e+01
      vertex -1.418421e+00 1.874006e+01 3.500000e+01
      vertex -2.994043e+00 1.765249e+01 2.100000e+01
    endloop
  endfacet
  facet normal -8.854561e-01 4.647231e-01 -5.691216e-17
    outer loop
      vertex -2.994043e+00 1.765249e+01 2.100000e+01
      vertex -3.883766e+00 1.595726e+01 2.100000e+01
      vertex -2.994043e+00 1.765249e+01 3.500000e+01
    endloop
  endfacet
  facet normal -8.854561e-01 4.647231e-01 -5.691216e-17
    outer loop
      vertex -2.994043e+00 1.765249e+01 3.500000e+01
      vertex -3.883766e+00 1.595726e+01 2.100000e+01
      vertex -3.883766e+00 1.595726e+01 3.500000e+01
    endloop
  endfacet
  facet normal -1.000000e+00 -0.000000e+00 0.000000e+00
    outer loop
      vertex -3.883766e+00 1.595726e+01 2.100000e+01
      vertex -3.883766e+00 1.404274e+01 2.100000e+01
      vertex -3.883766e+00 1.595726e+01 3.500000e+01
    endloop
  endfacet
  facet normal -1.000000e+00 0.000000e+00 -0.000000e+00
    outer loop
      vertex -3.883766e+00 1.595726e+01 3.500000e+01
      vertex -3.883766e+00 1.404274e+01 2.100000e+01
      vertex -3.883766e+00 1.404274e+01 3.500000e+01
    endloop
  endfacet
  facet normal -8.854561e-01 -4.647231e-01 5.691216e-17
    outer loop
      vertex -2.994043e+00 1.234751e+01 2.100000e+01
      vertex -2.994043e+00 1.234751e+01 3.500000e+01
      vertex -3.883766e+00 1.404274e+01 2.100000e+01
    endloop
  endfacet
  facet normal -8.854561e-01 -4.647231e-01 5.691216e-17
    outer loop
      vertex -3.883766e+00 1.404274e+01 2.100000e+01
      vertex -2.994043e+00 1.234751e+01 3.500000e+01
      vertex -3.883766e+00 1.404274e+01 3.500000e+01
    endloop
  endfacet
  facet normal -5.680649e-01 -8.229838e-01 1.007864e-16
    outer loop
      vertex -1.418421e+00 1.125994e+01 2.100000e+01
      vertex -1.418421e+00 1.125994e+01 3.500000e+01
      vertex -2.994043e+00 1.234751e+01 2.100000e+01
    endloop
  endfacet
  facet normal -5.680649e-01 -8.229838e-01 1.007864e-16
    outer loop
      vertex -2.994043e+00 1.234751e+01 2.100000e+01
      vertex -1.418421e+00 1.125994e+01 3.500000e+01
      vertex -2.994043e+00 1.234751e+01 3.500000e+01
    endloop
  endfacet
  facet normal -1.205360e-01 -9.927090e-01 1.215718e-16
    outer loop
      vertex 4.821472e-01 1.102917e+01 2.100000e+01
      vertex 4.821472e-01 1.102917e+01 3.500000e+01
      vertex -1.418421e+00 1.125994e+01 2.100000e+01
    endloop
  endfacet
  facet normal -1.205360e-01 -9.927090e-01 1.215718e-16
    outer loop
      vertex -1.418421e+00 1.125994e+01 2.100000e+01
      vertex 4.821472e-01 1.102917e+01 3.500000e+01
      vertex -1.418421e+00 1.125994e+01 3.500000e+01
    endloop
  endfacet
  facet normal 3.546051e-01 -9.350162e-01 1.145065e-16
    outer loop
      vertex 2.272259e+00 1.170807e+01 2.100000e+01
      vertex 2.272259e+00 1.170807e+01 3.500000e+01
      vertex 4.821472e-01 1.102917e+01 2.100000e+01
    endloop
  endfacet
  facet normal 3.546051e-01 -9.350162e-01 1.145065e-16
    outer loop
      vertex 4.821472e-01 1.102917e+01 2.100000e+01
      vertex 2.272259e+00 1.170807e+01 3.500000e+01
      vertex 4.821472e-01 1.102917e+01 3.500000e+01
    endloop
  endfacet
  facet normal 7.485107e-01 -6.631227e-01 8.120911e-17
    outer loop
      vertex 2.272259e+00 1.170807e+01 2.100000e+01
      vertex 3.541824e+00 1.314111e+01 2.100000e+01
      vertex 3.541824e+00 1.314111e+01 3.500000e+01
    endloop
  endfacet
  facet normal 7.485107e-01 -6.631227e-01 8.120911e-17
    outer loop
      vertex 2.272259e+00 1.170807e+01 3.500000e+01
      vertex 2.272259e+00 1.170807e+01 2.100000e+01
      vertex 3.541824e+00 1.314111e+01 3.500000e+01
    endloop
  endfacet
  facet normal 9.709417e-01 -2.393159e-01 2.930775e-17
    outer loop
      vertex 3.541824e+00 1.314111e+01 2.100000e+01
      vertex 4.000000e+00 1.500000e+01 2.100000e+01
      vertex 4.000000e+00 1.500000e+01 3.500000e+01
    endloop
  endfacet
  facet normal 9.709417e-01 -2.393159e-01 2.930775e-17
    outer loop
      vertex 3.541824e+00 1.314111e+01 3.500000e+01
      vertex 3.541824e+00 1.314111e+01 2.100000e+01
      vertex 4.000000e+00 1.500000e+01 3.500000e+01
    endloop
  endfacet
  facet normal 7.485107e-01 6.631227e-01 -8.120911e-17
    outer loop
      vertex 3.541824e+00 -1.314111e+01 3.500000e+01
      vertex 3.541824e+00 -1.314111e+01 2.100000e+01
      vertex 2.272259e+00 -1.170807e+01 2.100000e+01
    endloop
  endfacet
  facet normal 7.485107e-01 6.631227e-01 -8.120911e-17
    outer loop
      vertex 2.272259e+00 -1.170807e+01 3.500000e+01
      vertex 3.541824e+00 -1.314111e+01 3.500000e+01
      vertex 2.272259e+00 -1.170807e+01 2.100000e+01
    endloop
  endfacet
  facet normal 9.709417e-01 2.393159e-01 -2.930775e-17
    outer loop
      vertex 4.000000e+00 -1.500000e+01 3.500000e+01
      vertex 4.000000e+00 -1.500000e+01 2.100000e+01
      vertex 3.541824e+00 -1.314111e+01 2.100000e+01
    endloop
  endfacet
  facet normal 9.709417e-01 2.393159e-01 -2.930775e-17
    outer loop
      vertex 3.541824e+00 -1.314111e+01 3.500000e+01
      vertex 4.000000e+00 -1.500000e+01 3.500000e+01
      vertex 3.541824e+00 -1.314111e+01 2.100000e+01
    endloop
  endfacet
  facet normal 3.546051e-01 9.350162e-01 -1.145065e-16
    outer loop
      vertex 2.272259e+00 -1.170807e+01 3.500000e+01
      vertex 2.272259e+00 -1.170807e+01 2.100000e+01
      vertex 4.821472e-01 -1.102917e+01 2.100000e+01
    endloop
  endfacet
  facet normal 3.546051e-01 9.350162e-01 -1.145065e-16
    outer loop
      vertex 4.821472e-01 -1.102917e+01 3.500000e+01
      vertex 2.272259e+00 -1.170807e+01 3.500000e+01
      vertex 4.821472e-01 -1.102917e+01 2.100000e+01
    endloop
  endfacet
  facet normal -1.205360e-01 9.927090e-01 -1.215718e-16
    outer loop
      vertex 4.821472e-01 -1.102917e+01 3.500000e+01
      vertex 4.821472e-01 -1.102917e+01 2.100000e+01
      vertex -1.418421e+00 -1.125994e+01 2.100000e+01
    endloop
  endfacet
  facet normal -1.205360e-01 9.927090e-01 -1.215718e-16
    outer loop
      vertex -1.418421e+00 -1.125994e+01 3.500000e+01
      vertex 4.821472e-01 -1.102917e+01 3.500000e+01
      vertex -1.418421e+00 -1.125994e+01 2.100000e+01
    endloop
  endfacet
  facet normal -5.680649e-01 8.229838e-01 -1.007864e-16
    outer loop
      vertex -1.418421e+00 -1.125994e+01 3.500000e+01
      vertex -1.418421e+00 -1.125994e+01 2.100000e+01
      vertex -2.994043e+00 -1.234751e+01 2.100000e+01
    endloop
  endfacet
  facet normal -5.680649e-01 8.229838e-01 -1.007864e-16
    outer loop
      vertex -2.994043e+00 -1.234751e+01 3.500000e+01
      vertex -1.418421e+00 -1.125994e+01 3.500000e+01
      vertex -2.994043e+00 -1.234751e+01 2.100000e+01
    endloop
  endfacet
  facet normal -8.854561e-01 4.647231e-01 -5.691216e-17
    outer loop
      vertex -2.994043e+00 -1.234751e+01 2.100000e+01
      vertex -3.883766e+00 -1.404274e+01 2.100000e+01
      vertex -2.994043e+00 -1.234751e+01 3.500000e+01
    endloop
  endfacet
  facet normal -8.854561e-01 4.647231e-01 -5.691216e-17
    outer loop
      vertex -2.994043e+00 -1.234751e+01 3.500000e+01
      vertex -3.883766e+00 -1.404274e+01 2.100000e+01
      vertex -3.883766e+00 -1.404274e+01 3.500000e+01
    endloop
  endfacet
  facet normal -1.000000e+00 -0.000000e+00 0.000000e+00
    outer loop
      vertex -3.883766e+00 -1.404274e+01 2.100000e+01
      vertex -3.883766e+00 -1.595726e+01 2.100000e+01
      vertex -3.883766e+00 -1.404274e+01 3.500000e+01
    endloop
  endfacet
  facet normal -1.000000e+00 0.000000e+00 -0.000000e+00
    outer loop
      vertex -3.883766e+00 -1.404274e+01 3.500000e+01
      vertex -3.883766e+00 -1.595726e+01 2.100000e+01
      vertex -3.883766e+00 -1.595726e+01 3.500000e+01
    endloop
  endfacet
  facet normal -8.854561e-01 -4.647231e-01 5.691216e-17
    outer loop
      vertex -2.994043e+00 -1.765249e+01 2.100000e+01
      vertex -2.994043e+00 -1.765249e+01 3.500000e+01
      vertex -3.883766e+00 -1.595726e+01 2.100000e+01
    endloop
  endfacet
  facet normal -8.854561e-01 -4.647231e-01 5.691216e-17
    outer loop
      vertex -3.883766e+00 -1.595726e+01 2.100000e+01
      vertex -2.994043e+00 -1.765249e+01 3.500000e+01
      vertex -3.883766e+00 -1.595726e+01 3.500000e+01
    endloop
  endfacet
  facet normal -5.680649e-01 -8.229838e-01 1.007864e-16
    outer loop
      vertex -1.418421e+00 -1.874006e+01 2.100000e+01
      vertex -1.418421e+00 -1.874006e+01 3.500000e+01
      vertex -2.994043e+00 -1.765249e+01 2.100000e+01
    endloop
  endfacet
  facet normal -5.680649e-01 -8.229838e-01 1.007864e-16
    outer loop
      vertex -2.994043e+00 -1.765249e+01 2.100000e+01
      vertex -1.418421e+00 -1.874006e+01 3.500000e+01
      vertex -2.994043e+00 -1.765249e+01 3.500000e+01
    endloop
  endfacet
  facet normal -1.205360e-01 -9.927090e-01 1.215718e-16
    outer loop
      vertex 4.821472e-01 -1.897083e+01 2.100000e+01
      vertex 4.821472e-01 -1.897083e+01 3.500000e+01
      vertex -1.418421e+00 -1.874006e+01 2.100000e+01
    endloop
  endfacet
  facet normal -1.205360e-01 -9.927090e-01 1.215718e-16
    outer loop
      vertex -1.418421e+00 -1.874006e+01 2.100000e+01
      vertex 4.821472e-01 -1.897083e+01 3.500000e+01
      vertex -1.418421e+00 -1.874006e+01 3.500000e+01
    endloop
  endfacet
  facet normal 3.546051e-01 -9.350162e-01 1.145065e-16
    outer loop
      vertex 2.272259e+00 -1.829193e+01 2.100000e+01
      vertex 2.272259e+00 -1.829193e+01 3.500000e+01
      vertex 4.821472e-01 -1.897083e+01 2.100000e+01
    endloop
  endfacet
  facet normal 3.546051e-01 -9.350162e-01 1.145065e-16
    outer loop
      vertex 4.821472e-01 -1.897083e+01 2.100000e+01
      vertex 2.272259e+00 -1.829193e+01 3.500000e+01
      vertex 4.821472e-01 -1.897083e+01 3.500000e+01
    endloop
  endfacet
  facet normal 7.485107e-01 -6.631227e-01 8.120911e-17
    outer loop
      vertex 2.272259e+00 -1.829193e+01 2.100000e+01
      vertex 3.541824e+00 -1.685889e+01 2.100000e+01
      vertex 3.541824e+00 -1.685889e+01 3.500000e+01
    endloop
  endfacet
  facet normal 7.485107e-01 -6.631227e-01 8.120911e-17
    outer loop
      vertex 2.272259e+00 -1.829193e+01 3.500000e+01
      vertex 2.272259e+00 -1.829193e+01 2.100000e+01
      vertex 3.541824e+00 -1.685889e+01 3.500000e+01
    endloop
  endfacet
  facet normal 9.709417e-01 -2.393159e-01 2.930775e-17
    outer loop
      vertex 3.541824e+00 -1.685889e+01 2.100000e+01
      vertex 4.000000e+00 -1.500000e+01 2.100000e+01
      vertex 4.000000e+00 -1.500000e+01 3.500000e+01
    endloop
  endfacet
  facet normal 9.709417e-01 -2.393159e-01 2.930775e-17
    outer loop
      vertex 3.541824e+00 -1.685889e+01 3.500000e+01
      vertex 3.541824e+00 -1.685889e+01 2.100000e+01
      vertex 4.000000e+00 -1.500000e+01 3.500000e+01
    endloop
  endfacet
  facet normal 0.000000e+00 1.224647e-16 1.000000e+00
    outer loop
      vertex 4.000000e+00 1.500000e+01 3.500000e+01
      vertex 3.541824e+00 1.685889e+01 3.500000e+01
      vertex 3.541824e+00 1.314111e+01 3.500000e+01
    endloop
  endfacet
  facet normal 0.000000e+00 1.224647e-16 1.000000e+00
    outer loop
      vertex 3.541824e+00 1.314111e+01 3.500000e+01
      vertex 3.541824e+00 1.685889e+01 3.500000e+01
      vertex 2.272259e+00 1.829193e+01 3.500000e+01
    endloop
  endfacet
  facet normal 0.000000e+00 1.224647e-16 1.000000e+00
    outer loop
      vertex 3.541824e+00 1.314111e+01 3.500000e+01
      vertex 2.272259e+00 1.829193e+01 3.500000e+01
      vertex 4.821472e-01 1.897083e+01 3.500000e+01
    endloop
  endfacet
  facet normal 0.000000e+00 1.224647e-16 1.000000e+00
    outer loop
      vertex 3.541824e+00 1.314111e+01 3.500000e+01
      vertex 4.821472e-01 1.897083e+01 3.500000e+01
      vertex -1.418421e+00 1.874006e+01 3.500000e+01
    endloop
  endfacet
  facet normal 0.000000e+00 1.224647e-16 1.000000e+00
    outer loop
      vertex 3.541824e+00 1.314111e+01 3.500000e+01
      vertex -1.418421e+00 1.874006e+01 3.500000e+01
      vertex -2.994043e+00 1.765249e+01 3.500000e+01
    endloop
  endfacet
  facet normal 0.000000e+00 1.224647e-16 1.000000e+00
    outer loop
      vertex 3.541824e+00 1.314111e+01 3.500000e+01
      vertex -2.994043e+00 1.765249e+01 3.500000e+01
      vertex -3.883766e+00 1.595726e+01 3.500000e+01
    endloop
  endfacet
  facet normal 0.000000e+00 1.224647e-16 1.000000e+00
    outer loop
      vertex 3.541824e+00 1.314111e+01 3.500000e+01
      vertex -3.883766e+00 1.595726e+01 3.500000e+01
      vertex -3.883766e+00 1.404274e+01 3.500000e+01
    endloop
  endfacet
  facet normal 0.000000e+00 1.224647e-16 1.000000e+00
    outer loop
      vertex 3.541824e+00 1.314111e+01 3.500000e+01
      vertex -3.883766e+00 1.404274e+01 3.500000e+01
      vertex -2.994043e+00 1.234751e+01 3.500000e+01
    endloop
  endfacet
  facet normal 0.000000e+00 1.224647e-16 1.000000e+00
    outer loop
      vertex 3.541824e+00 1.314111e+01 3.500000e+01
      vertex -2.994043e+00 1.234751e+01 3.500000e+01
      vertex -1.418421e+00 1.125994e+01 3.500000e+01
    endloop
  endfacet
  facet normal 0.000000e+00 1.224647e-16 1.000000e+00
    outer loop
      vertex 3.541824e+00 1.314111e+01 3.500000e+01
      vertex -1.418421e+00 1.125994e+01 3.500000e+01
      vertex 4.821472e-01 1.102917e+01 3.500000e+01
    endloop
  endfacet
  facet normal 0.000000e+00 1.224647e-16 1.000000e+00
    outer loop
      vertex 3.541824e+00 1.314111e+01 3.500000e+01
      vertex 4.821472e-01 1.102917e+01 3.500000e+01
      vertex 2.272259e+00 1.170807e+01 3.500000e+01
    endloop
  endfacet
  facet normal 0.000000e+00 1.224647e-16 1.000000e+00
    outer loop
      vertex 4.000000e+00 -1.500000e+01 3.500000e+01
      vertex 3.541824e+00 -1.314111e+01 3.500000e+01
      vertex 3.541824e+00 -1.685889e+01 3.500000e+01
    endloop
  endfacet
  facet normal 0.000000e+00 1.224647e-16 1.000000e+00
    outer loop
      vertex 3.541824e+00 -1.685889e+01 3.500000e+01
      vertex 3.541824e+00 -1.314111e+01 3.500000e+01
      vertex 2.272259e+00 -1.170807e+01 3.500000e+01
    endloop
  endfacet
  facet normal 0.000000e+00 1.224647e-16 1.000000e+00
    outer loop
      vertex 3.541824e+00 -1.685889e+01 3.500000e+01
      vertex 2.272259e+00 -1.170807e+01 3.500000e+01
      vertex 4.821472e-01 -1.102917e+01 3.500000e+01
    endloop
  endfacet
  facet normal 0.000000e+00 1.224647e-16 1.000000e+00
    outer loop
      vertex 3.541824e+00 -1.685889e+01 3.500000e+01
      vertex 4.821472e-01 -1.102917e+01 3.500000e+01
      vertex -1.418421e+00 -1.125994e+01 3.500000e+01
    endloop
  endfacet
  facet normal 0.000000e+00 1.224647e-16 1.000000e+00
    outer loop
      vertex 3.541824e+00 -1.685889e+01 3.500000e+01
      vertex -1.418421e+00 -1.125994e+01 3.500000e+01
      vertex -2.994043e+00 -1.234751e+01 3.500000e+01
    endloop
  endfacet
  facet normal 0.000000e+00 1.224647e-16 1.000000e+00
    outer loop
      vertex 3.541824e+00 -1.685889e+01 3.500000e+01
      vertex -2.994043e+00 -1.234751e+01 3.500000e+01
      vertex -3.883766e+00 -1.404274e+01 3.500000e+01
    endloop
  endfacet
  facet normal 0.000000e+00 1.224647e-16 1.000000e+00
    outer loop
      vertex 3.541824e+00 -1.685889e+01 3.500000e+01
      vertex -3.883766e+00 -1.404274e+01 3.500000e+01
      vertex -3.883766e+00 -1.595726e+01 3.500000e+01
    endloop
  endfacet
  facet normal 0.000000e+00 1.224647e-16 1.000000e+00
    outer loop
      vertex 3.541824e+00 -1.685889e+01 3.500000e+01
      vertex -3.883766e+00 -1.595726e+01 3.500000e+01
      vertex -2.994043e+00 -1.765249e+01 3.500000e+01
    endloop
  endfacet
  facet normal 0.000000e+00 1.224647e-16 1.000000e+00
    outer loop
      vertex 3.541824e+00 -1.685889e+01 3.500000e+01
      vertex -2.994043e+00 -1.765249e+01 3.500000e+01
      vertex -1.418421e+00 -1.874006e+01 3.500000e+01
    endloop
  endfacet
  facet normal 0.000000e+00 1.224647e-16 1.000000e+00
    outer loop
      vertex 3.541824e+00 -1.685889e+01 3.500000e+01
      vertex -1.418421e+00 -1.874006e+01 3.500000e+01
      vertex 4.821472e-01 -1.897083e+01 3.500000e+01
    endloop
  endfacet
  facet normal 0.000000e+00 1.224647e-16 1.000000e+00
    outer loop
      vertex 3.541824e+00 -1.685889e+01 3.500000e+01
      vertex 4.821472e-01 -1.897083e+01 3.500000e+01
      vertex 2.272259e+00 -1.829193e+01 3.500000e+01
    endloop
  endfacet
endsolid Default
