solid Default
  facet normal -1.000000e+00 0.000000e+00 -0.000000e+00
    outer loop
      vertex -2.000000e+01 1.500000e+01 0.000000e+00
      vertex -2.000000e+01 1.000000e+01 0.000000e+00
      vertex -2.000000e+01 1.500000e+01 1.000000e+02
    endloop
  endfacet
  facet normal -1.000000e+00 0.000000e+00 0.000000e+00
    outer loop
      vertex -2.000000e+01 1.500000e+01 1.000000e+02
      vertex -2.000000e+01 1.000000e+01 0.000000e+00
      vertex -2.000000e+01 1.000000e+01 1.000000e+02
    endloop
  endfacet
  facet normal 0.000000e+00 -6.123234e-17 -1.000000e+00
    outer loop
      vertex -2.000000e+01 1.000000e+01 0.000000e+00
      vertex -2.000000e+01 1.500000e+01 0.000000e+00
      vertex 2.000000e+01 1.500000e+01 0.000000e+00
    endloop
  endfacet
  facet normal 0.000000e+00 -6.123234e-17 -1.000000e+00
    outer loop
      vertex -6.000000e+00 1.100000e+01 0.000000e+00
      vertex -2.000000e+01 1.000000e+01 0.000000e+00
      vertex 2.000000e+01 1.500000e+01 0.000000e+00
    endloop
  endfacet
  facet normal 0.000000e+00 -6.123234e-17 -1.000000e+00
    outer loop
      vertex -6.000000e+00 -5.000000e+00 0.000000e+00
      vertex 6.000000e+00 -5.000000e+00 0.000000e+00
      vertex 8.000000e+00 -8.000000e+00 0.000000e+00
    endloop
  endfacet
  facet normal 0.000000e+00 -6.123234e-17 -1.000000e+00
    outer loop
      vertex 2.000000e+01 1.000000e+01 0.000000e+00
      vertex 1.000000e+01 1.000000e+01 0.000000e+00
      vertex 2.000000e+01 1.500000e+01 0.000000e+00
    endloop
  endfacet
  facet normal 0.000000e+00 -6.123234e-17 -1.000000e+00
    outer loop
      vertex 6.000000e+00 1.100000e+01 0.000000e+00
      vertex -6.000000e+00 1.100000e+01 0.000000e+00
      vertex 2.000000e+01 1.500000e+01 0.000000e+00
    endloop
  endfacet
  facet normal 0.000000e+00 -6.123234e-17 -1.000000e+00
    outer loop
      vertex 1.500000e+01 5.000000e+00 0.000000e+00
      vertex 1.500000e+01 -1.000000e+00 0.000000e+00
      vertex 1.000000e+01 5.000000e+00 0.000000e+00
    endloop
  endfacet
  facet normal 0.000000e+00 -6.123234e-17 -1.000000e+00
    outer loop
      vertex 1.500000e+01 -9.000000e+00 0.000000e+00
      vertex 1.500000e+01 -1.500000e+01 0.000000e+00
      vertex 1.200000e+01 -9.000000e+00 0.000000e+00
    endloop
  endfacet
  facet normal 0.000000e+00 -6.123234e-17 -1.000000e+00
    outer loop
      vertex -1.500000e+01 -1.000000e+00 0.000000e+00
      vertex -1.500000e+01 5.000000e+00 0.000000e+00
      vertex -1.200000e+01 -1.000000e+00 0.000000e+00
    endloop
  endfacet
  facet normal 0.000000e+00 -6.123234e-17 -1.000000e+00
    outer loop
      vertex 1.200000e+01 -9.000000e+00 0.000000e+00
      vertex 1.500000e+01 -1.500000e+01 0.000000e+00
      vertex 8.000000e+00 -8.000000e+00 0.000000e+00
    endloop
  endfacet
  facet normal 0.000000e+00 -6.123234e-17 -1.000000e+00
    outer loop
      vertex -8.000000e+00 -1.500000e+01 0.000000e+00
      vertex -1.500000e+01 -1.500000e+01 0.000000e+00
      vertex -1.500000e+01 -9.000000e+00 0.000000e+00
    endloop
  endfacet
  facet normal 0.000000e+00 -6.123234e-17 -1.000000e+00
    outer loop
      vertex -8.000000e+00 -1.500000e+01 0.000000e+00
      vertex -1.500000e+01 -9.000000e+00 0.000000e+00
      vertex -1.200000e+01 -9.000000e+00 0.000000e+00
    endloop
  endfacet
  facet normal 0.000000e+00 -6.123234e-17 -1.000000e+00
    outer loop
      vertex 6.000000e+00 -5.000000e+00 0.000000e+00
      vertex 1.000000e+01 5.000000e+00 0.000000e+00
      vertex 1.200000e+01 -1.000000e+00 0.000000e+00
    endloop
  endfacet
  facet normal 0.000000e+00 -6.123234e-17 -1.000000e+00
    outer loop
      vertex 6.000000e+00 -5.000000e+00 0.000000e+00
      vertex 1.000000e+01 1.000000e+01 0.000000e+00
      vertex 1.000000e+01 5.000000e+00 0.000000e+00
    endloop
  endfacet
  facet normal 0.000000e+00 -6.123234e-17 -1.000000e+00
    outer loop
      vertex -1.200000e+01 -9.000000e+00 0.000000e+00
      vertex -1.200000e+01 -1.000000e+00 0.000000e+00
      vertex -8.000000e+00 -8.000000e+00 0.000000e+00
    endloop
  endfacet
  facet normal 0.000000e+00 -6.123234e-17 -1.000000e+00
    outer loop
      vertex -6.000000e+00 -5.000000e+00 0.000000e+00
      vertex -1.200000e+01 -1.000000e+00 0.000000e+00
      vertex -1.500000e+01 5.000000e+00 0.000000e+00
    endloop
  endfacet
  facet normal 0.000000e+00 -6.123234e-17 -1.000000e+00
    outer loop
      vertex 1.200000e+01 -1.000000e+00 0.000000e+00
      vertex 1.000000e+01 5.000000e+00 0.000000e+00
      vertex 1.500000e+01 -1.000000e+00 0.000000e+00
    endloop
  endfacet
  facet normal 0.000000e+00 -6.123234e-17 -1.000000e+00
    outer loop
      vertex 6.000000e+00 -5.000000e+00 0.000000e+00
      vertex 6.000000e+00 1.100000e+01 0.000000e+00
      vertex 1.000000e+01 1.000000e+01 0.000000e+00
    endloop
  endfacet
  facet normal 0.000000e+00 -6.123234e-17 -1.000000e+00
    outer loop
      vertex 8.000000e+00 -8.000000e+00 0.000000e+00
      vertex 6.000000e+00 -5.000000e+00 0.000000e+00
      vertex 1.200000e+01 -9.000000e+00 0.000000e+00
    endloop
  endfacet
  facet normal 0.000000e+00 -6.123234e-17 -1.000000e+00
    outer loop
      vertex -1.000000e+01 1.000000e+01 0.000000e+00
      vertex -2.000000e+01 1.000000e+01 0.000000e+00
      vertex -6.000000e+00 1.100000e+01 0.000000e+00
    endloop
  endfacet
  facet normal 0.000000e+00 -6.123234e-17 -1.000000e+00
    outer loop
      vertex -1.200000e+01 -9.000000e+00 0.000000e+00
      vertex -8.000000e+00 -8.000000e+00 0.000000e+00
      vertex -8.000000e+00 -1.500000e+01 0.000000e+00
    endloop
  endfacet
  facet normal 0.000000e+00 -6.123234e-17 -1.000000e+00
    outer loop
      vertex 1.200000e+01 -1.000000e+00 0.000000e+00
      vertex 1.200000e+01 -9.000000e+00 0.000000e+00
      vertex 6.000000e+00 -5.000000e+00 0.000000e+00
    endloop
  endfacet
  facet normal 0.000000e+00 -6.123234e-17 -1.000000e+00
    outer loop
      vertex 1.000000e+01 1.000000e+01 0.000000e+00
      vertex 6.000000e+00 1.100000e+01 0.000000e+00
      vertex 2.000000e+01 1.500000e+01 0.000000e+00
    endloop
  endfacet
  facet normal 0.000000e+00 -6.123234e-17 -1.000000e+00
    outer loop
      vertex 8.000000e+00 -1.500000e+01 0.000000e+00
      vertex 8.000000e+00 -8.000000e+00 0.000000e+00
      vertex 1.500000e+01 -1.500000e+01 0.000000e+00
    endloop
  endfacet
  facet normal 0.000000e+00 -6.123234e-17 -1.000000e+00
    outer loop
      vertex -6.000000e+00 -5.000000e+00 0.000000e+00
      vertex -8.000000e+00 -8.000000e+00 0.000000e+00
      vertex -1.200000e+01 -1.000000e+00 0.000000e+00
    endloop
  endfacet
  facet normal 0.000000e+00 -6.123234e-17 -1.000000e+00
    outer loop
      vertex 8.000000e+00 -8.000000e+00 0.000000e+00
      vertex -8.000000e+00 -8.000000e+00 0.000000e+00
      vertex -6.000000e+00 -5.000000e+00 0.000000e+00
    endloop
  endfacet
  facet normal 0.000000e+00 -6.123234e-17 -1.000000e+00
    outer loop
      vertex -6.000000e+00 1.100000e+01 0.000000e+00
      vertex -1.000000e+01 5.000000e+00 0.000000e+00
      vertex -1.000000e+01 1.000000e+01 0.000000e+00
    endloop
  endfacet
  facet normal 0.000000e+00 -6.123234e-17 -1.000000e+00
    outer loop
      vertex -1.000000e+01 5.000000e+00 0.000000e+00
      vertex -6.000000e+00 -5.000000e+00 0.000000e+00
      vertex -1.500000e+01 5.000000e+00 0.000000e+00
    endloop
  endfacet
  facet normal 0.000000e+00 -6.123234e-17 -1.000000e+00
    outer loop
      vertex -6.000000e+00 1.100000e+01 0.000000e+00
      vertex -6.000000e+00 -5.000000e+00 0.000000e+00
      vertex -1.000000e+01 5.000000e+00 0.000000e+00
    endloop
  endfacet
  facet normal -0.000000e+00 1.000000e+00 -6.123234e-17
    outer loop
      vertex -2.000000e+01 1.500000e+01 0.000000e+00
      vertex -2.000000e+01 1.500000e+01 1.000000e+02
      vertex 2.000000e+01 1.500000e+01 0.000000e+00
    endloop
  endfacet
  facet normal 0.000000e+00 1.000000e+00 -6.123234e-17
    outer loop
      vertex 2.000000e+01 1.500000e+01 0.000000e+00
      vertex -2.000000e+01 1.500000e+01 1.000000e+02
      vertex 2.000000e+01 1.500000e+01 1.000000e+02
    endloop
  endfacet
  facet normal 0.000000e+00 6.123234e-17 1.000000e+00
    outer loop
      vertex -2.000000e+01 1.500000e+01 1.000000e+02
      vertex -2.000000e+01 1.000000e+01 1.000000e+02
      vertex 2.000000e+01 1.500000e+01 1.000000e+02
    endloop
  endfacet
  facet normal 0.000000e+00 6.123234e-17 1.000000e+00
    outer loop
      vertex -6.000000e+00 1.100000e+01 1.000000e+02
      vertex -2.000000e+01 1.000000e+01 1.000000e+02
      vertex -1.000000e+01 1.000000e+01 1.000000e+02
    endloop
  endfacet
  facet normal 0.000000e+00 6.123234e-17 1.000000e+00
    outer loop
      vertex -1.000000e+01 5.000000e+00 1.000000e+02
      vertex -1.500000e+01 5.000000e+00 1.000000e+02
      vertex -1.500000e+01 -1.000000e+00 1.000000e+02
    endloop
  endfacet
  facet normal 0.000000e+00 6.123234e-17 1.000000e+00
    outer loop
      vertex -1.200000e+01 -9.000000e+00 1.000000e+02
      vertex -1.500000e+01 -9.000000e+00 1.000000e+02
      vertex -1.500000e+01 -1.500000e+01 1.000000e+02
    endloop
  endfacet
  facet normal 0.000000e+00 6.123234e-17 1.000000e+00
    outer loop
      vertex 8.000000e+00 -8.000000e+00 1.000000e+02
      vertex 6.000000e+00 -5.000000e+00 1.000000e+02
      vertex -8.000000e+00 -8.000000e+00 1.000000e+02
    endloop
  endfacet
  facet normal 0.000000e+00 6.123234e-17 1.000000e+00
    outer loop
      vertex -1.200000e+01 -9.000000e+00 1.000000e+02
      vertex -1.500000e+01 -1.500000e+01 1.000000e+02
      vertex -8.000000e+00 -8.000000e+00 1.000000e+02
    endloop
  endfacet
  facet normal 0.000000e+00 6.123234e-17 1.000000e+00
    outer loop
      vertex 1.200000e+01 -1.000000e+00 1.000000e+02
      vertex 8.000000e+00 -1.500000e+01 1.000000e+02
      vertex 1.200000e+01 -9.000000e+00 1.000000e+02
    endloop
  endfacet
  facet normal 0.000000e+00 6.123234e-17 1.000000e+00
    outer loop
      vertex 1.200000e+01 -1.000000e+00 1.000000e+02
      vertex 8.000000e+00 -8.000000e+00 1.000000e+02
      vertex 8.000000e+00 -1.500000e+01 1.000000e+02
    endloop
  endfacet
  facet normal 0.000000e+00 6.123234e-17 1.000000e+00
    outer loop
      vertex 1.500000e+01 -9.000000e+00 1.000000e+02
      vertex 8.000000e+00 -1.500000e+01 1.000000e+02
      vertex 1.500000e+01 -1.500000e+01 1.000000e+02
    endloop
  endfacet
  facet normal 0.000000e+00 6.123234e-17 1.000000e+00
    outer loop
      vertex 1.200000e+01 -9.000000e+00 1.000000e+02
      vertex 8.000000e+00 -1.500000e+01 1.000000e+02
      vertex 1.500000e+01 -9.000000e+00 1.000000e+02
    endloop
  endfacet
  facet normal 0.000000e+00 6.123234e-17 1.000000e+00
    outer loop
      vertex 6.000000e+00 -5.000000e+00 1.000000e+02
      vertex 1.000000e+01 5.000000e+00 1.000000e+02
      vertex 1.000000e+01 1.000000e+01 1.000000e+02
    endloop
  endfacet
  facet normal 0.000000e+00 6.123234e-17 1.000000e+00
    outer loop
      vertex -1.000000e+01 5.000000e+00 1.000000e+02
      vertex -1.500000e+01 -1.000000e+00 1.000000e+02
      vertex -1.200000e+01 -1.000000e+00 1.000000e+02
    endloop
  endfacet
  facet normal 0.000000e+00 6.123234e-17 1.000000e+00
    outer loop
      vertex -6.000000e+00 1.100000e+01 1.000000e+02
      vertex -1.200000e+01 -1.000000e+00 1.000000e+02
      vertex -1.200000e+01 -9.000000e+00 1.000000e+02
    endloop
  endfacet
  facet normal 0.000000e+00 6.123234e-17 1.000000e+00
    outer loop
      vertex 1.000000e+01 5.000000e+00 1.000000e+02
      vertex 6.000000e+00 -5.000000e+00 1.000000e+02
      vertex 8.000000e+00 -8.000000e+00 1.000000e+02
    endloop
  endfacet
  facet normal 0.000000e+00 6.123234e-17 1.000000e+00
    outer loop
      vertex 8.000000e+00 -8.000000e+00 1.000000e+02
      vertex 1.200000e+01 -1.000000e+00 1.000000e+02
      vertex 1.500000e+01 5.000000e+00 1.000000e+02
    endloop
  endfacet
  facet normal 0.000000e+00 6.123234e-17 1.000000e+00
    outer loop
      vertex 1.500000e+01 -1.000000e+00 1.000000e+02
      vertex 1.500000e+01 5.000000e+00 1.000000e+02
      vertex 1.200000e+01 -1.000000e+00 1.000000e+02
    endloop
  endfacet
  facet normal 0.000000e+00 6.123234e-17 1.000000e+00
    outer loop
      vertex -6.000000e+00 1.100000e+01 1.000000e+02
      vertex -1.000000e+01 5.000000e+00 1.000000e+02
      vertex -1.200000e+01 -1.000000e+00 1.000000e+02
    endloop
  endfacet
  facet normal 0.000000e+00 6.123234e-17 1.000000e+00
    outer loop
      vertex -6.000000e+00 1.100000e+01 1.000000e+02
      vertex -1.200000e+01 -9.000000e+00 1.000000e+02
      vertex -6.000000e+00 -5.000000e+00 1.000000e+02
    endloop
  endfacet
  facet normal 0.000000e+00 6.123234e-17 1.000000e+00
    outer loop
      vertex 2.000000e+01 1.000000e+01 1.000000e+02
      vertex 2.000000e+01 1.500000e+01 1.000000e+02
      vertex 1.000000e+01 1.000000e+01 1.000000e+02
    endloop
  endfacet
  facet normal 0.000000e+00 6.123234e-17 1.000000e+00
    outer loop
      vertex -6.000000e+00 -5.000000e+00 1.000000e+02
      vertex -8.000000e+00 -8.000000e+00 1.000000e+02
      vertex 6.000000e+00 -5.000000e+00 1.000000e+02
    endloop
  endfacet
  facet normal 0.000000e+00 6.123234e-17 1.000000e+00
    outer loop
      vertex -1.200000e+01 -9.000000e+00 1.000000e+02
      vertex -8.000000e+00 -8.000000e+00 1.000000e+02
      vertex -6.000000e+00 -5.000000e+00 1.000000e+02
    endloop
  endfacet
  facet normal 0.000000e+00 6.123234e-17 1.000000e+00
    outer loop
      vertex 2.000000e+01 1.500000e+01 1.000000e+02
      vertex -2.000000e+01 1.000000e+01 1.000000e+02
      vertex -6.000000e+00 1.100000e+01 1.000000e+02
    endloop
  endfacet
  facet normal 0.000000e+00 6.123234e-17 1.000000e+00
    outer loop
      vertex 6.000000e+00 -5.000000e+00 1.000000e+02
      vertex 1.000000e+01 1.000000e+01 1.000000e+02
      vertex 6.000000e+00 1.100000e+01 1.000000e+02
    endloop
  endfacet
  facet normal 0.000000e+00 6.123234e-17 1.000000e+00
    outer loop
      vertex 1.000000e+01 5.000000e+00 1.000000e+02
      vertex 8.000000e+00 -8.000000e+00 1.000000e+02
      vertex 1.500000e+01 5.000000e+00 1.000000e+02
    endloop
  endfacet
  facet normal 0.000000e+00 6.123234e-17 1.000000e+00
    outer loop
      vertex -6.000000e+00 1.100000e+01 1.000000e+02
      vertex -1.000000e+01 1.000000e+01 1.000000e+02
      vertex -1.000000e+01 5.000000e+00 1.000000e+02
    endloop
  endfacet
  facet normal 0.000000e+00 6.123234e-17 1.000000e+00
    outer loop
      vertex -8.000000e+00 -8.000000e+00 1.000000e+02
      vertex -1.500000e+01 -1.500000e+01 1.000000e+02
      vertex -8.000000e+00 -1.500000e+01 1.000000e+02
    endloop
  endfacet
  facet normal 0.000000e+00 6.123234e-17 1.000000e+00
    outer loop
      vertex 1.000000e+01 1.000000e+01 1.000000e+02
      vertex 2.000000e+01 1.500000e+01 1.000000e+02
      vertex 6.000000e+00 1.100000e+01 1.000000e+02
    endloop
  endfacet
  facet normal 0.000000e+00 6.123234e-17 1.000000e+00
    outer loop
      vertex 6.000000e+00 1.100000e+01 1.000000e+02
      vertex 2.000000e+01 1.500000e+01 1.000000e+02
      vertex -6.000000e+00 1.100000e+01 1.000000e+02
    endloop
  endfacet
  facet normal 0.000000e+00 -1.000000e+00 6.123234e-17
    outer loop
      vertex -1.000000e+01 1.000000e+01 0.000000e+00
      vertex -1.000000e+01 1.000000e+01 1.000000e+02
      vertex -2.000000e+01 1.000000e+01 1.000000e+02
    endloop
  endfacet
  facet normal 0.000000e+00 -1.000000e+00 6.123234e-17
    outer loop
      vertex -2.000000e+01 1.000000e+01 0.000000e+00
      vertex -1.000000e+01 1.000000e+01 0.000000e+00
      vertex -2.000000e+01 1.000000e+01 1.000000e+02
    endloop
  endfacet
  facet normal -1.000000e+00 0.000000e+00 -0.000000e+00
    outer loop
      vertex -1.000000e+01 1.000000e+01 0.000000e+00
      vertex -1.000000e+01 5.000000e+00 0.000000e+00
      vertex -1.000000e+01 1.000000e+01 1.000000e+02
    endloop
  endfacet
  facet normal -1.000000e+00 0.000000e+00 0.000000e+00
    outer loop
      vertex -1.000000e+01 1.000000e+01 1.000000e+02
      vertex -1.000000e+01 5.000000e+00 0.000000e+00
      vertex -1.000000e+01 5.000000e+00 1.000000e+02
    endloop
  endfacet
  facet normal -0.000000e+00 1.000000e+00 -6.123234e-17
    outer loop
      vertex -1.500000e+01 5.000000e+00 0.000000e+00
      vertex -1.500000e+01 5.000000e+00 1.000000e+02
      vertex -1.000000e+01 5.000000e+00 0.000000e+00
    endloop
  endfacet
  facet normal 0.000000e+00 1.000000e+00 -6.123234e-17
    outer loop
      vertex -1.000000e+01 5.000000e+00 0.000000e+00
      vertex -1.500000e+01 5.000000e+00 1.000000e+02
      vertex -1.000000e+01 5.000000e+00 1.000000e+02
    endloop
  endfacet
  facet normal -1.000000e+00 0.000000e+00 -0.000000e+00
    outer loop
      vertex -1.500000e+01 5.000000e+00 0.000000e+00
      vertex -1.500000e+01 -1.000000e+00 0.000000e+00
      vertex -1.500000e+01 5.000000e+00 1.000000e+02
    endloop
  endfacet
  facet normal -1.000000e+00 0.000000e+00 0.000000e+00
    outer loop
      vertex -1.500000e+01 5.000000e+00 1.000000e+02
      vertex -1.500000e+01 -1.000000e+00 0.000000e+00
      vertex -1.500000e+01 -1.000000e+00 1.000000e+02
    endloop
  endfacet
  facet normal 0.000000e+00 -1.000000e+00 6.123234e-17
    outer loop
      vertex -1.200000e+01 -1.000000e+00 0.000000e+00
      vertex -1.200000e+01 -1.000000e+00 1.000000e+02
      vertex -1.500000e+01 -1.000000e+00 1.000000e+02
    endloop
  endfacet
  facet normal 0.000000e+00 -1.000000e+00 6.123234e-17
    outer loop
      vertex -1.500000e+01 -1.000000e+00 0.000000e+00
      vertex -1.200000e+01 -1.000000e+00 0.000000e+00
      vertex -1.500000e+01 -1.000000e+00 1.000000e+02
    endloop
  endfacet
  facet normal -1.000000e+00 0.000000e+00 0.000000e+00
    outer loop
      vertex -1.200000e+01 -9.000000e+00 1.000000e+02
      vertex -1.200000e+01 -1.000000e+00 1.000000e+02
      vertex -1.200000e+01 -9.000000e+00 0.000000e+00
    endloop
  endfacet
  facet normal -1.000000e+00 0.000000e+00 0.000000e+00
    outer loop
      vertex -1.200000e+01 -9.000000e+00 0.000000e+00
      vertex -1.200000e+01 -1.000000e+00 1.000000e+02
      vertex -1.200000e+01 -1.000000e+00 0.000000e+00
    endloop
  endfacet
  facet normal 0.000000e+00 1.000000e+00 -6.123234e-17
    outer loop
      vertex -1.200000e+01 -9.000000e+00 1.000000e+02
      vertex -1.200000e+01 -9.000000e+00 0.000000e+00
      vertex -1.500000e+01 -9.000000e+00 1.000000e+02
    endloop
  endfacet
  facet normal 0.000000e+00 1.000000e+00 -6.123234e-17
    outer loop
      vertex -1.500000e+01 -9.000000e+00 1.000000e+02
      vertex -1.200000e+01 -9.000000e+00 0.000000e+00
      vertex -1.500000e+01 -9.000000e+00 0.000000e+00
    endloop
  endfacet
  facet normal -1.000000e+00 0.000000e+00 -0.000000e+00
    outer loop
      vertex -1.500000e+01 -9.000000e+00 0.000000e+00
      vertex -1.500000e+01 -1.500000e+01 0.000000e+00
      vertex -1.500000e+01 -9.000000e+00 1.000000e+02
    endloop
  endfacet
  facet normal -1.000000e+00 0.000000e+00 0.000000e+00
    outer loop
      vertex -1.500000e+01 -9.000000e+00 1.000000e+02
      vertex -1.500000e+01 -1.500000e+01 0.000000e+00
      vertex -1.500000e+01 -1.500000e+01 1.000000e+02
    endloop
  endfacet
  facet normal 0.000000e+00 -1.000000e+00 6.123234e-17
    outer loop
      vertex -1.500000e+01 -1.500000e+01 1.000000e+02
      vertex -1.500000e+01 -1.500000e+01 0.000000e+00
      vertex -8.000000e+00 -1.500000e+01 0.000000e+00
    endloop
  endfacet
  facet normal 0.000000e+00 -1.000000e+00 6.123234e-17
    outer loop
      vertex -8.000000e+00 -1.500000e+01 1.000000e+02
      vertex -1.500000e+01 -1.500000e+01 1.000000e+02
      vertex -8.000000e+00 -1.500000e+01 0.000000e+00
    endloop
  endfacet
  facet normal 1.000000e+00 0.000000e+00 0.000000e+00
    outer loop
      vertex -8.000000e+00 -8.000000e+00 1.000000e+02
      vertex -8.000000e+00 -1.500000e+01 1.000000e+02
      vertex -8.000000e+00 -1.500000e+01 0.000000e+00
    endloop
  endfacet
  facet normal 1.000000e+00 0.000000e+00 0.000000e+00
    outer loop
      vertex -8.000000e+00 -8.000000e+00 0.000000e+00
      vertex -8.000000e+00 -8.000000e+00 1.000000e+02
      vertex -8.000000e+00 -1.500000e+01 0.000000e+00
    endloop
  endfacet
  facet normal 0.000000e+00 -1.000000e+00 6.123234e-17
    outer loop
      vertex 8.000000e+00 -8.000000e+00 0.000000e+00
      vertex 8.000000e+00 -8.000000e+00 1.000000e+02
      vertex -8.000000e+00 -8.000000e+00 1.000000e+02
    endloop
  endfacet
  facet normal 0.000000e+00 -1.000000e+00 6.123234e-17
    outer loop
      vertex -8.000000e+00 -8.000000e+00 0.000000e+00
      vertex 8.000000e+00 -8.000000e+00 0.000000e+00
      vertex -8.000000e+00 -8.000000e+00 1.000000e+02
    endloop
  endfacet
  facet normal -1.000000e+00 0.000000e+00 0.000000e+00
    outer loop
      vertex 8.000000e+00 -1.500000e+01 1.000000e+02
      vertex 8.000000e+00 -8.000000e+00 1.000000e+02
      vertex 8.000000e+00 -1.500000e+01 0.000000e+00
    endloop
  endfacet
  facet normal -1.000000e+00 0.000000e+00 0.000000e+00
    outer loop
      vertex 8.000000e+00 -1.500000e+01 0.000000e+00
      vertex 8.000000e+00 -8.000000e+00 1.000000e+02
      vertex 8.000000e+00 -8.000000e+00 0.000000e+00
    endloop
  endfacet
  facet normal 0.000000e+00 -1.000000e+00 6.123234e-17
    outer loop
      vertex 8.000000e+00 -1.500000e+01 1.000000e+02
      vertex 8.000000e+00 -1.500000e+01 0.000000e+00
      vertex 1.500000e+01 -1.500000e+01 0.000000e+00
    endloop
  endfacet
  facet normal 0.000000e+00 -1.000000e+00 6.123234e-17
    outer loop
      vertex 1.500000e+01 -1.500000e+01 1.000000e+02
      vertex 8.000000e+00 -1.500000e+01 1.000000e+02
      vertex 1.500000e+01 -1.500000e+01 0.000000e+00
    endloop
  endfacet
  facet normal 1.000000e+00 0.000000e+00 0.000000e+00
    outer loop
      vertex 1.500000e+01 -1.500000e+01 0.000000e+00
      vertex 1.500000e+01 -9.000000e+00 0.000000e+00
      vertex 1.500000e+01 -9.000000e+00 1.000000e+02
    endloop
  endfacet
  facet normal 1.000000e+00 0.000000e+00 0.000000e+00
    outer loop
      vertex 1.500000e+01 -1.500000e+01 1.000000e+02
      vertex 1.500000e+01 -1.500000e+01 0.000000e+00
      vertex 1.500000e+01 -9.000000e+00 1.000000e+02
    endloop
  endfacet
  facet normal 0.000000e+00 1.000000e+00 -6.123234e-17
    outer loop
      vertex 1.500000e+01 -9.000000e+00 1.000000e+02
      vertex 1.500000e+01 -9.000000e+00 0.000000e+00
      vertex 1.200000e+01 -9.000000e+00 1.000000e+02
    endloop
  endfacet
  facet normal 0.000000e+00 1.000000e+00 -6.123234e-17
    outer loop
      vertex 1.200000e+01 -9.000000e+00 1.000000e+02
      vertex 1.500000e+01 -9.000000e+00 0.000000e+00
      vertex 1.200000e+01 -9.000000e+00 0.000000e+00
    endloop
  endfacet
  facet normal 1.000000e+00 0.000000e+00 0.000000e+00
    outer loop
      vertex 1.200000e+01 -1.000000e+00 1.000000e+02
      vertex 1.200000e+01 -9.000000e+00 1.000000e+02
      vertex 1.200000e+01 -9.000000e+00 0.000000e+00
    endloop
  endfacet
  facet normal 1.000000e+00 0.000000e+00 0.000000e+00
    outer loop
      vertex 1.200000e+01 -1.000000e+00 0.000000e+00
      vertex 1.200000e+01 -1.000000e+00 1.000000e+02
      vertex 1.200000e+01 -9.000000e+00 0.000000e+00
    endloop
  endfacet
  facet normal 0.000000e+00 -1.000000e+00 6.123234e-17
    outer loop
      vertex 1.500000e+01 -1.000000e+00 0.000000e+00
      vertex 1.500000e+01 -1.000000e+00 1.000000e+02
      vertex 1.200000e+01 -1.000000e+00 1.000000e+02
    endloop
  endfacet
  facet normal 0.000000e+00 -1.000000e+00 6.123234e-17
    outer loop
      vertex 1.200000e+01 -1.000000e+00 0.000000e+00
      vertex 1.500000e+01 -1.000000e+00 0.000000e+00
      vertex 1.200000e+01 -1.000000e+00 1.000000e+02
    endloop
  endfacet
  facet normal 1.000000e+00 0.000000e+00 0.000000e+00
    outer loop
      vertex 1.500000e+01 -1.000000e+00 0.000000e+00
      vertex 1.500000e+01 5.000000e+00 0.000000e+00
      vertex 1.500000e+01 5.000000e+00 1.000000e+02
    endloop
  endfacet
  facet normal 1.000000e+00 0.000000e+00 0.000000e+00
    outer loop
      vertex 1.500000e+01 -1.000000e+00 1.000000e+02
      vertex 1.500000e+01 -1.000000e+00 0.000000e+00
      vertex 1.500000e+01 5.000000e+00 1.000000e+02
    endloop
  endfacet
  facet normal -0.000000e+00 1.000000e+00 -6.123234e-17
    outer loop
      vertex 1.000000e+01 5.000000e+00 0.000000e+00
      vertex 1.000000e+01 5.000000e+00 1.000000e+02
      vertex 1.500000e+01 5.000000e+00 0.000000e+00
    endloop
  endfacet
  facet normal 0.000000e+00 1.000000e+00 -6.123234e-17
    outer loop
      vertex 1.500000e+01 5.000000e+00 0.000000e+00
      vertex 1.000000e+01 5.000000e+00 1.000000e+02
      vertex 1.500000e+01 5.000000e+00 1.000000e+02
    endloop
  endfacet
  facet normal 1.000000e+00 0.000000e+00 0.000000e+00
    outer loop
      vertex 1.000000e+01 5.000000e+00 0.000000e+00
      vertex 1.000000e+01 1.000000e+01 0.000000e+00
      vertex 1.000000e+01 1.000000e+01 1.000000e+02
    endloop
  endfacet
  facet normal 1.000000e+00 0.000000e+00 0.000000e+00
    outer loop
      vertex 1.000000e+01 5.000000e+00 1.000000e+02
      vertex 1.000000e+01 5.000000e+00 0.000000e+00
      vertex 1.000000e+01 1.000000e+01 1.000000e+02
    endloop
  endfacet
  facet normal 0.000000e+00 -1.000000e+00 6.123234e-17
    outer loop
      vertex 2.000000e+01 1.000000e+01 0.000000e+00
      vertex 2.000000e+01 1.000000e+01 1.000000e+02
      vertex 1.000000e+01 1.000000e+01 1.000000e+02
    endloop
  endfacet
  facet normal 0.000000e+00 -1.000000e+00 6.123234e-17
    outer loop
      vertex 1.000000e+01 1.000000e+01 0.000000e+00
      vertex 2.000000e+01 1.000000e+01 0.000000e+00
      vertex 1.000000e+01 1.000000e+01 1.000000e+02
    endloop
  endfacet
  facet normal 1.000000e+00 0.000000e+00 0.000000e+00
    outer loop
      vertex 2.000000e+01 1.000000e+01 0.000000e+00
      vertex 2.000000e+01 1.500000e+01 0.000000e+00
      vertex 2.000000e+01 1.500000e+01 1.000000e+02
    endloop
  endfacet
  facet normal 1.000000e+00 0.000000e+00 0.000000e+00
    outer loop
      vertex 2.000000e+01 1.000000e+01 1.000000e+02
      vertex 2.000000e+01 1.000000e+01 0.000000e+00
      vertex 2.000000e+01 1.500000e+01 1.000000e+02
    endloop
  endfacet
  facet normal 1.000000e+00 0.000000e+00 0.000000e+00
    outer loop
      vertex -6.000000e+00 1.100000e+01 1.000000e+02
      vertex -6.000000e+00 -5.000000e+00 1.000000e+02
      vertex -6.000000e+00 -5.000000e+00 0.000000e+00
    endloop
  endfacet
  facet normal 1.000000e+00 0.000000e+00 0.000000e+00
    outer loop
      vertex -6.000000e+00 1.100000e+01 0.000000e+00
      vertex -6.000000e+00 1.100000e+01 1.000000e+02
      vertex -6.000000e+00 -5.000000e+00 0.000000e+00
    endloop
  endfacet
  facet normal 0.000000e+00 -1.000000e+00 6.123234e-17
    outer loop
      vertex 6.000000e+00 1.100000e+01 0.000000e+00
      vertex 6.000000e+00 1.100000e+01 1.000000e+02
      vertex -6.000000e+00 1.100000e+01 1.000000e+02
    endloop
  endfacet
  facet normal 0.000000e+00 -1.000000e+00 6.123234e-17
    outer loop
      vertex -6.000000e+00 1.100000e+01 0.000000e+00
      vertex 6.000000e+00 1.100000e+01 0.000000e+00
      vertex -6.000000e+00 1.100000e+01 1.000000e+02
    endloop
  endfacet
  facet normal -1.000000e+00 0.000000e+00 0.000000e+00
    outer loop
      vertex 6.000000e+00 -5.000000e+00 1.000000e+02
      vertex 6.000000e+00 1.100000e+01 1.000000e+02
      vertex 6.000000e+00 -5.000000e+00 0.000000e+00
    endloop
  endfacet
  facet normal -1.000000e+00 0.000000e+00 0.000000e+00
    outer loop
      vertex 6.000000e+00 -5.000000e+00 0.000000e+00
      vertex 6.000000e+00 1.100000e+01 1.000000e+02
      vertex 6.000000e+00 1.100000e+01 0.000000e+00
    endloop
  endfacet
  facet normal 0.000000e+00 1.000000e+00 -6.123234e-17
    outer loop
      vertex 6.000000e+00 -5.000000e+00 1.000000e+02
      vertex 6.000000e+00 -5.000000e+00 0.000000e+00
      vertex -6.000000e+00 -5.000000e+00 1.000000e+02
    endloop
  endfacet
  facet normal 0.000000e+00 1.000000e+00 -6.123234e-17
    outer loop
      vertex -6.000000e+00 -5.000000e+00 1.000000e+02
      vertex 6.000000e+00 -5.000000e+00 0.000000e+00
      vertex -6.000000e+00 -5.000000e+00 0.000000e+00
    endloop
  endfacet
endsolid Default
